<ttFont>
    <TTGlyph name=".notdef" xMin="100" yMin="0" xMax="658" yMax="531">
      <contour>
        <pt x="100" y="0" on="1"/>
        <pt x="100" y="531" on="1"/>
        <pt x="658" y="531" on="1"/>
        <pt x="658" y="0" on="1"/>
      </contour>
      <contour>
        <pt x="114" y="22" on="1"/>
        <pt x="370" y="266" on="1"/>
        <pt x="114" y="507" on="1"/>
      </contour>
      <contour>
        <pt x="124" y="518" on="1"/>
        <pt x="381" y="276" on="1"/>
        <pt x="635" y="518" on="1"/>
      </contour>
      <contour>
        <pt x="127" y="13" on="1"/>
        <pt x="634" y="13" on="1"/>
        <pt x="381" y="256" on="1"/>
      </contour>
      <contour>
        <pt x="392" y="266" on="1"/>
        <pt x="644" y="25" on="1"/>
        <pt x="644" y="506" on="1"/>
      </contour>
    </TTGlyph>
    <TTGlyph name="A" xMin="38" yMin="0" xMax="667" yMax="732">
      <contour>
        <pt x="38" y="0" on="1"/>
        <pt x="409" y="732" on="1"/>
        <pt x="537" y="732" on="1"/>
        <pt x="666" y="0" on="1"/>
        <pt x="548" y="0" on="1"/>
        <pt x="515" y="177" on="1"/>
        <pt x="256" y="177" on="1"/>
        <pt x="166" y="0" on="1"/>
      </contour>
      <contour>
        <pt x="306" y="283" on="1"/>
        <pt x="501" y="283" on="1"/>
        <pt x="452" y="579" on="1"/>
      </contour>
    </TTGlyph>
    <TTGlyph name="AE" xMin="25" yMin="-5" xMax="1017" yMax="733">
      <contour>
        <pt x="640" y="732" on="1"/>
        <pt x="684" y="732" on="1"/>
        <pt x="694" y="732" on="0"/>
        <pt x="977" y="722" on="0"/>
        <pt x="1017" y="716" on="1"/>
        <pt x="1002" y="621" on="1"/>
        <pt x="708" y="621" on="1"/>
        <pt x="672" y="621" on="0"/>
        <pt x="662" y="603" on="1"/>
        <pt x="653" y="590" on="0"/>
        <pt x="649" y="567" on="1"/>
        <pt x="625" y="417" on="1"/>
        <pt x="925" y="406" on="1"/>
        <pt x="910" y="312" on="1"/>
        <pt x="606" y="302" on="1"/>
        <pt x="584" y="158" on="1"/>
        <pt x="578" y="120" on="0"/>
        <pt x="598" y="112" on="1"/>
        <pt x="613" y="106" on="0"/>
        <pt x="638" y="106" on="1"/>
        <pt x="921" y="106" on="1"/>
        <pt x="905" y="13" on="1"/>
        <pt x="873" y="8" on="0"/>
        <pt x="668" y="-1" on="1"/>
        <pt x="600" y="-4" on="1"/>
        <pt x="594" y="-5" on="0"/>
        <pt x="568" y="-5" on="0"/>
        <pt x="545" y="1" on="1"/>
        <pt x="486" y="14" on="0"/>
        <pt x="467" y="60" on="1"/>
        <pt x="460" y="77" on="0"/>
        <pt x="460" y="110" on="0"/>
        <pt x="462" y="122" on="1"/>
        <pt x="475" y="208" on="1"/>
        <pt x="293" y="208" on="1"/>
        <pt x="156" y="0" on="1"/>
        <pt x="25" y="0" on="1"/>
        <pt x="407" y="586" on="1"/>
        <pt x="464" y="673" on="0"/>
        <pt x="525" y="703" on="1"/>
        <pt x="583" y="732" on="0"/>
      </contour>
      <contour>
        <pt x="360" y="313" on="1"/>
        <pt x="492" y="313" on="1"/>
        <pt x="537" y="585" on="1"/>
      </contour>
    </TTGlyph>
    <TTGlyph name="Aacute" xMin="38" yMin="0" xMax="673" yMax="934">
      <contour>
        <pt x="442" y="797" on="1"/>
        <pt x="560" y="934" on="1"/>
        <pt x="673" y="934" on="1"/>
        <pt x="525" y="797" on="1"/>
      </contour>
      <contour>
        <pt x="38" y="0" on="1"/>
        <pt x="409" y="732" on="1"/>
        <pt x="537" y="732" on="1"/>
        <pt x="666" y="0" on="1"/>
        <pt x="548" y="0" on="1"/>
        <pt x="515" y="177" on="1"/>
        <pt x="256" y="177" on="1"/>
        <pt x="166" y="0" on="1"/>
      </contour>
      <contour>
        <pt x="306" y="283" on="1"/>
        <pt x="501" y="283" on="1"/>
        <pt x="452" y="579" on="1"/>
      </contour>
    </TTGlyph>
    <TTGlyph name="Abreve" xMin="38" yMin="0" xMax="666" yMax="911">
      <contour>
        <pt x="441" y="910" on="1"/>
        <pt x="440" y="905" on="0"/>
        <pt x="440" y="879" on="0"/>
        <pt x="466" y="850" on="0"/>
        <pt x="491" y="850" on="1"/>
        <pt x="492" y="850" on="0"/>
        <pt x="493" y="850" on="1"/>
        <pt x="554" y="850" on="0"/>
        <pt x="562" y="910" on="1"/>
        <pt x="616" y="910" on="1"/>
        <pt x="602" y="797" on="0"/>
        <pt x="491" y="797" on="1"/>
        <pt x="445" y="797" on="0"/>
        <pt x="387" y="855" on="0"/>
        <pt x="387" y="898" on="1"/>
        <pt x="387" y="904" on="0"/>
        <pt x="388" y="910" on="1"/>
      </contour>
      <contour>
        <pt x="38" y="0" on="1"/>
        <pt x="409" y="732" on="1"/>
        <pt x="537" y="732" on="1"/>
        <pt x="666" y="0" on="1"/>
        <pt x="548" y="0" on="1"/>
        <pt x="515" y="177" on="1"/>
        <pt x="256" y="177" on="1"/>
        <pt x="166" y="0" on="1"/>
      </contour>
      <contour>
        <pt x="306" y="283" on="1"/>
        <pt x="501" y="283" on="1"/>
        <pt x="452" y="579" on="1"/>
      </contour>
    </TTGlyph>
    <TTGlyph name="Acircumflex" xMin="38" yMin="0" xMax="666" yMax="931">
      <contour>
        <pt x="332" y="797" on="1"/>
        <pt x="465" y="930" on="1"/>
        <pt x="557" y="930" on="1"/>
        <pt x="635" y="797" on="1"/>
        <pt x="554" y="797" on="1"/>
        <pt x="506" y="869" on="1"/>
        <pt x="427" y="797" on="1"/>
      </contour>
      <contour>
        <pt x="38" y="0" on="1"/>
        <pt x="409" y="732" on="1"/>
        <pt x="537" y="732" on="1"/>
        <pt x="666" y="0" on="1"/>
        <pt x="548" y="0" on="1"/>
        <pt x="515" y="177" on="1"/>
        <pt x="256" y="177" on="1"/>
        <pt x="166" y="0" on="1"/>
      </contour>
      <contour>
        <pt x="306" y="283" on="1"/>
        <pt x="501" y="283" on="1"/>
        <pt x="452" y="579" on="1"/>
      </contour>
    </TTGlyph>
    <TTGlyph name="Adieresis" xMin="38" yMin="0" xMax="677" yMax="909">
      <contour>
        <pt x="351" y="908" on="0"/>
        <pt x="397" y="908" on="0"/>
        <pt x="422" y="880" on="0"/>
        <pt x="422" y="858" on="0"/>
        <pt x="419" y="842" on="0"/>
        <pt x="407" y="821" on="0"/>
        <pt x="399" y="814" on="1"/>
        <pt x="380" y="797" on="0"/>
        <pt x="334" y="797" on="0"/>
        <pt x="309" y="827" on="0"/>
        <pt x="309" y="838" on="1"/>
        <pt x="309" y="873" on="0"/>
      </contour>
      <contour>
        <pt x="606" y="908" on="0"/>
        <pt x="652" y="908" on="0"/>
        <pt x="677" y="880" on="0"/>
        <pt x="677" y="858" on="0"/>
        <pt x="674" y="842" on="0"/>
        <pt x="662" y="821" on="0"/>
        <pt x="654" y="814" on="1"/>
        <pt x="635" y="797" on="0"/>
        <pt x="589" y="797" on="0"/>
        <pt x="564" y="827" on="0"/>
        <pt x="564" y="838" on="1"/>
        <pt x="564" y="873" on="0"/>
      </contour>
      <contour>
        <pt x="38" y="0" on="1"/>
        <pt x="409" y="732" on="1"/>
        <pt x="537" y="732" on="1"/>
        <pt x="666" y="0" on="1"/>
        <pt x="548" y="0" on="1"/>
        <pt x="515" y="177" on="1"/>
        <pt x="256" y="177" on="1"/>
        <pt x="166" y="0" on="1"/>
      </contour>
      <contour>
        <pt x="306" y="283" on="1"/>
        <pt x="501" y="283" on="1"/>
        <pt x="452" y="579" on="1"/>
      </contour>
    </TTGlyph>
    <TTGlyph name="Agrave" xMin="38" yMin="0" xMax="666" yMax="934">
      <contour>
        <pt x="330" y="934" on="1"/>
        <pt x="437" y="934" on="1"/>
        <pt x="525" y="797" on="1"/>
        <pt x="442" y="797" on="1"/>
      </contour>
      <contour>
        <pt x="38" y="0" on="1"/>
        <pt x="409" y="732" on="1"/>
        <pt x="537" y="732" on="1"/>
        <pt x="666" y="0" on="1"/>
        <pt x="548" y="0" on="1"/>
        <pt x="515" y="177" on="1"/>
        <pt x="256" y="177" on="1"/>
        <pt x="166" y="0" on="1"/>
      </contour>
      <contour>
        <pt x="306" y="283" on="1"/>
        <pt x="501" y="283" on="1"/>
        <pt x="452" y="579" on="1"/>
      </contour>
    </TTGlyph>
    <TTGlyph name="Amacron" xMin="38" yMin="0" xMax="666" yMax="871">
      <contour>
        <pt x="338" y="797" on="1"/>
        <pt x="349" y="870" on="1"/>
        <pt x="641" y="870" on="1"/>
        <pt x="630" y="797" on="1"/>
      </contour>
      <contour>
        <pt x="38" y="0" on="1"/>
        <pt x="409" y="732" on="1"/>
        <pt x="537" y="732" on="1"/>
        <pt x="666" y="0" on="1"/>
        <pt x="548" y="0" on="1"/>
        <pt x="515" y="177" on="1"/>
        <pt x="256" y="177" on="1"/>
        <pt x="166" y="0" on="1"/>
      </contour>
      <contour>
        <pt x="306" y="283" on="1"/>
        <pt x="501" y="283" on="1"/>
        <pt x="452" y="579" on="1"/>
      </contour>
    </TTGlyph>
    <TTGlyph name="Aogonek" xMin="104" yMin="-187" xMax="733" yMax="732">
      <contour>
        <pt x="561" y="-108" on="1"/>
        <pt x="561" y="-40" on="0"/>
        <pt x="652" y="0" on="1"/>
        <pt x="702" y="0" on="1"/>
        <pt x="637" y="-45" on="0"/>
        <pt x="637" y="-81" on="1"/>
        <pt x="637" y="-114" on="0"/>
        <pt x="682" y="-114" on="1"/>
        <pt x="686" y="-114" on="0"/>
        <pt x="690" y="-114" on="1"/>
        <pt x="679" y="-184" on="1"/>
        <pt x="665" y="-187" on="0"/>
        <pt x="652" y="-187" on="1"/>
        <pt x="614" y="-187" on="0"/>
        <pt x="561" y="-140" on="0"/>
      </contour>
      <contour>
        <pt x="104" y="0" on="1"/>
        <pt x="475" y="732" on="1"/>
        <pt x="604" y="732" on="1"/>
        <pt x="732" y="0" on="1"/>
        <pt x="614" y="0" on="1"/>
        <pt x="581" y="177" on="1"/>
        <pt x="322" y="177" on="1"/>
        <pt x="232" y="0" on="1"/>
      </contour>
      <contour>
        <pt x="372" y="283" on="1"/>
        <pt x="568" y="283" on="1"/>
        <pt x="519" y="579" on="1"/>
      </contour>
    </TTGlyph>
    <TTGlyph name="Aring" xMin="38" yMin="0" xMax="666" yMax="934">
      <contour>
        <pt x="468" y="933" on="0"/>
        <pt x="419" y="906" on="0"/>
        <pt x="385" y="855" on="0"/>
        <pt x="385" y="822" on="1"/>
        <pt x="385" y="786" on="0"/>
        <pt x="438" y="730" on="0"/>
        <pt x="480" y="730" on="1"/>
        <pt x="538" y="730" on="0"/>
        <pt x="572" y="782" on="1"/>
        <pt x="589" y="808" on="0"/>
        <pt x="589" y="842" on="1"/>
        <pt x="589" y="878" on="0"/>
        <pt x="538" y="933" on="0"/>
      </contour>
      <contour>
        <pt x="471" y="785" on="0"/>
        <pt x="450" y="797" on="0"/>
        <pt x="439" y="819" on="0"/>
        <pt x="442" y="851" on="0"/>
        <pt x="472" y="879" on="0"/>
        <pt x="511" y="879" on="0"/>
        <pt x="535" y="853" on="0"/>
        <pt x="535" y="814" on="0"/>
        <pt x="503" y="785" on="0"/>
      </contour>
      <contour>
        <pt x="38" y="0" on="1"/>
        <pt x="409" y="732" on="1"/>
        <pt x="537" y="732" on="1"/>
        <pt x="666" y="0" on="1"/>
        <pt x="548" y="0" on="1"/>
        <pt x="515" y="177" on="1"/>
        <pt x="256" y="177" on="1"/>
        <pt x="166" y="0" on="1"/>
      </contour>
      <contour>
        <pt x="306" y="283" on="1"/>
        <pt x="501" y="283" on="1"/>
        <pt x="452" y="579" on="1"/>
      </contour>
    </TTGlyph>
    <TTGlyph name="Atilde" xMin="38" yMin="0" xMax="666" yMax="917">
      <contour>
        <pt x="477" y="914" on="0"/>
        <pt x="537" y="881" on="0"/>
        <pt x="552" y="880" on="0"/>
        <pt x="573" y="880" on="0"/>
        <pt x="639" y="906" on="0"/>
        <pt x="651" y="916" on="1"/>
        <pt x="666" y="863" on="1"/>
        <pt x="664" y="862" on="0"/>
        <pt x="636" y="840" on="0"/>
        <pt x="628" y="834" on="0"/>
        <pt x="603" y="817" on="0"/>
        <pt x="590" y="811" on="0"/>
        <pt x="579" y="806" on="1"/>
        <pt x="535" y="785" on="0"/>
        <pt x="483" y="815" on="1"/>
        <pt x="453" y="832" on="0"/>
        <pt x="436" y="832" on="1"/>
        <pt x="405" y="832" on="0"/>
        <pt x="367" y="814" on="0"/>
        <pt x="358" y="809" on="0"/>
        <pt x="340" y="799" on="0"/>
        <pt x="336" y="797" on="1"/>
        <pt x="320" y="847" on="1"/>
        <pt x="358" y="879" on="0"/>
        <pt x="420" y="915" on="0"/>
      </contour>
      <contour>
        <pt x="38" y="0" on="1"/>
        <pt x="409" y="732" on="1"/>
        <pt x="537" y="732" on="1"/>
        <pt x="666" y="0" on="1"/>
        <pt x="548" y="0" on="1"/>
        <pt x="515" y="177" on="1"/>
        <pt x="256" y="177" on="1"/>
        <pt x="166" y="0" on="1"/>
      </contour>
      <contour>
        <pt x="306" y="283" on="1"/>
        <pt x="501" y="283" on="1"/>
        <pt x="452" y="579" on="1"/>
      </contour>
    </TTGlyph>
    <TTGlyph name="B" xMin="67" yMin="0" xMax="649" yMax="732">
      <contour>
        <pt x="475" y="732" on="1"/>
        <pt x="563" y="732" on="0"/>
        <pt x="604" y="689" on="1"/>
        <pt x="648" y="643" on="0"/>
        <pt x="648" y="573" on="1"/>
        <pt x="648" y="552" on="0"/>
        <pt x="646" y="530" on="1"/>
        <pt x="638" y="467" on="0"/>
        <pt x="571" y="390" on="0"/>
        <pt x="523" y="380" on="1"/>
        <pt x="560" y="374" on="0"/>
        <pt x="586" y="324" on="1"/>
        <pt x="605" y="288" on="0"/>
        <pt x="605" y="238" on="1"/>
        <pt x="605" y="219" on="0"/>
        <pt x="603" y="199" on="1"/>
        <pt x="589" y="93" on="0"/>
        <pt x="476" y="0" on="0"/>
        <pt x="361" y="0" on="1"/>
        <pt x="68" y="0" on="1"/>
        <pt x="184" y="732" on="1"/>
      </contour>
      <contour>
        <pt x="487" y="216" on="1"/>
        <pt x="489" y="231" on="0"/>
        <pt x="489" y="276" on="0"/>
        <pt x="477" y="299" on="1"/>
        <pt x="458" y="333" on="0"/>
        <pt x="410" y="333" on="1"/>
        <pt x="237" y="333" on="1"/>
        <pt x="201" y="106" on="1"/>
        <pt x="375" y="106" on="1"/>
        <pt x="469" y="106" on="0"/>
      </contour>
      <contour>
        <pt x="495" y="459" on="1"/>
        <pt x="532" y="493" on="0"/>
        <pt x="532" y="569" on="1"/>
        <pt x="532" y="591" on="0"/>
        <pt x="497" y="627" on="0"/>
        <pt x="455" y="627" on="1"/>
        <pt x="284" y="627" on="1"/>
        <pt x="253" y="435" on="1"/>
        <pt x="423" y="435" on="1"/>
        <pt x="468" y="435" on="0"/>
      </contour>
    </TTGlyph>
    <TTGlyph name="C" xMin="94" yMin="-7" xMax="657" yMax="741">
      <contour>
        <pt x="410" y="740" on="1"/>
        <pt x="533" y="740" on="0"/>
        <pt x="657" y="707" on="1"/>
        <pt x="642" y="615" on="1"/>
        <pt x="524" y="631" on="0"/>
        <pt x="430" y="631" on="1"/>
        <pt x="423" y="631" on="0"/>
        <pt x="415" y="631" on="0"/>
        <pt x="398" y="631" on="0"/>
        <pt x="382" y="630" on="0"/>
        <pt x="352" y="625" on="0"/>
        <pt x="334" y="616" on="0"/>
        <pt x="306" y="598" on="0"/>
        <pt x="287" y="572" on="0"/>
        <pt x="263" y="532" on="0"/>
        <pt x="255" y="506" on="1"/>
        <pt x="234" y="445" on="0"/>
        <pt x="211" y="306" on="0"/>
        <pt x="211" y="207" on="0"/>
        <pt x="224" y="173" on="1"/>
        <pt x="248" y="107" on="0"/>
        <pt x="328" y="103" on="1"/>
        <pt x="344" y="103" on="0"/>
        <pt x="440" y="103" on="0"/>
        <pt x="565" y="111" on="1"/>
        <pt x="551" y="20" on="1"/>
        <pt x="465" y="-6" on="0"/>
        <pt x="315" y="-6" on="1"/>
        <pt x="241" y="-6" on="0"/>
        <pt x="201" y="16" on="1"/>
        <pt x="95" y="72" on="0"/>
        <pt x="95" y="256" on="1"/>
        <pt x="95" y="312" on="0"/>
        <pt x="121" y="471" on="0"/>
        <pt x="162" y="598" on="0"/>
        <pt x="197" y="646" on="1"/>
        <pt x="265" y="740" on="0"/>
      </contour>
    </TTGlyph>
    <TTGlyph name="Cacute" xMin="94" yMin="-7" xMax="657" yMax="937">
      <contour>
        <pt x="408" y="800" on="1"/>
        <pt x="526" y="936" on="1"/>
        <pt x="638" y="936" on="1"/>
        <pt x="491" y="800" on="1"/>
      </contour>
      <contour>
        <pt x="657" y="706" on="1"/>
        <pt x="642" y="615" on="1"/>
        <pt x="524" y="631" on="0"/>
        <pt x="430" y="631" on="1"/>
        <pt x="423" y="631" on="0"/>
        <pt x="415" y="631" on="0"/>
        <pt x="398" y="631" on="0"/>
        <pt x="382" y="630" on="0"/>
        <pt x="352" y="625" on="0"/>
        <pt x="334" y="616" on="0"/>
        <pt x="306" y="598" on="0"/>
        <pt x="287" y="572" on="0"/>
        <pt x="263" y="532" on="0"/>
        <pt x="255" y="506" on="1"/>
        <pt x="234" y="445" on="0"/>
        <pt x="211" y="306" on="0"/>
        <pt x="211" y="207" on="0"/>
        <pt x="224" y="173" on="1"/>
        <pt x="248" y="107" on="0"/>
        <pt x="328" y="103" on="1"/>
        <pt x="344" y="103" on="0"/>
        <pt x="440" y="103" on="0"/>
        <pt x="565" y="111" on="1"/>
        <pt x="551" y="20" on="1"/>
        <pt x="465" y="-6" on="0"/>
        <pt x="315" y="-6" on="1"/>
        <pt x="241" y="-6" on="0"/>
        <pt x="201" y="16" on="1"/>
        <pt x="95" y="72" on="0"/>
        <pt x="95" y="256" on="1"/>
        <pt x="95" y="372" on="0"/>
        <pt x="133" y="507" on="1"/>
        <pt x="167" y="627" on="0"/>
        <pt x="228" y="681" on="1"/>
        <pt x="296" y="740" on="0"/>
        <pt x="533" y="740" on="0"/>
      </contour>
    </TTGlyph>
    <TTGlyph name="Ccaron" xMin="94" yMin="-7" xMax="657" yMax="934">
      <contour>
        <pt x="327" y="934" on="1"/>
        <pt x="408" y="934" on="1"/>
        <pt x="457" y="862" on="1"/>
        <pt x="535" y="934" on="1"/>
        <pt x="629" y="934" on="1"/>
        <pt x="497" y="800" on="1"/>
        <pt x="407" y="800" on="1"/>
      </contour>
      <contour>
        <pt x="657" y="706" on="1"/>
        <pt x="642" y="615" on="1"/>
        <pt x="524" y="631" on="0"/>
        <pt x="430" y="631" on="1"/>
        <pt x="423" y="631" on="0"/>
        <pt x="415" y="631" on="0"/>
        <pt x="398" y="631" on="0"/>
        <pt x="382" y="630" on="0"/>
        <pt x="352" y="625" on="0"/>
        <pt x="334" y="616" on="0"/>
        <pt x="306" y="598" on="0"/>
        <pt x="287" y="572" on="0"/>
        <pt x="263" y="532" on="0"/>
        <pt x="255" y="506" on="1"/>
        <pt x="234" y="445" on="0"/>
        <pt x="211" y="306" on="0"/>
        <pt x="211" y="207" on="0"/>
        <pt x="224" y="173" on="1"/>
        <pt x="248" y="107" on="0"/>
        <pt x="328" y="103" on="1"/>
        <pt x="344" y="103" on="0"/>
        <pt x="440" y="103" on="0"/>
        <pt x="565" y="111" on="1"/>
        <pt x="551" y="20" on="1"/>
        <pt x="465" y="-6" on="0"/>
        <pt x="315" y="-6" on="1"/>
        <pt x="241" y="-6" on="0"/>
        <pt x="201" y="16" on="1"/>
        <pt x="95" y="72" on="0"/>
        <pt x="95" y="256" on="1"/>
        <pt x="95" y="372" on="0"/>
        <pt x="133" y="507" on="1"/>
        <pt x="167" y="627" on="0"/>
        <pt x="228" y="681" on="1"/>
        <pt x="296" y="740" on="0"/>
        <pt x="533" y="740" on="0"/>
      </contour>
    </TTGlyph>
    <TTGlyph name="Ccedilla" xMin="94" yMin="-177" xMax="657" yMax="741">
      <contour>
        <pt x="410" y="740" on="1"/>
        <pt x="533" y="740" on="0"/>
        <pt x="657" y="707" on="1"/>
        <pt x="642" y="615" on="1"/>
        <pt x="524" y="631" on="0"/>
        <pt x="430" y="631" on="1"/>
        <pt x="423" y="631" on="0"/>
        <pt x="415" y="631" on="0"/>
        <pt x="398" y="631" on="0"/>
        <pt x="382" y="630" on="0"/>
        <pt x="353" y="625" on="0"/>
        <pt x="334" y="616" on="0"/>
        <pt x="307" y="598" on="0"/>
        <pt x="288" y="572" on="0"/>
        <pt x="265" y="532" on="0"/>
        <pt x="256" y="506" on="1"/>
        <pt x="235" y="445" on="0"/>
        <pt x="213" y="305" on="0"/>
        <pt x="213" y="207" on="0"/>
        <pt x="225" y="173" on="1"/>
        <pt x="248" y="107" on="0"/>
        <pt x="328" y="103" on="1"/>
        <pt x="344" y="103" on="0"/>
        <pt x="440" y="103" on="0"/>
        <pt x="565" y="111" on="1"/>
        <pt x="551" y="20" on="1"/>
        <pt x="465" y="-6" on="0"/>
        <pt x="315" y="-6" on="1"/>
        <pt x="241" y="-6" on="0"/>
        <pt x="201" y="16" on="1"/>
        <pt x="95" y="72" on="0"/>
        <pt x="95" y="256" on="1"/>
        <pt x="95" y="312" on="0"/>
        <pt x="121" y="471" on="0"/>
        <pt x="162" y="598" on="0"/>
        <pt x="197" y="646" on="1"/>
        <pt x="265" y="740" on="0"/>
      </contour>
      <contour>
        <pt x="235" y="-176" on="1"/>
        <pt x="181" y="-176" on="1"/>
        <pt x="189" y="-124" on="1"/>
        <pt x="238" y="-109" on="1"/>
        <pt x="266" y="-101" on="0"/>
        <pt x="274" y="-71" on="1"/>
        <pt x="278" y="-59" on="0"/>
        <pt x="281" y="-37" on="1"/>
        <pt x="366" y="-37" on="1"/>
        <pt x="354" y="-114" on="0"/>
        <pt x="297" y="-176" on="0"/>
      </contour>
    </TTGlyph>
    <TTGlyph name="Ccircumflex" xMin="94" yMin="-7" xMax="657" yMax="934">
      <contour>
        <pt x="292" y="800" on="1"/>
        <pt x="425" y="934" on="1"/>
        <pt x="517" y="934" on="1"/>
        <pt x="595" y="800" on="1"/>
        <pt x="514" y="800" on="1"/>
        <pt x="466" y="872" on="1"/>
        <pt x="387" y="800" on="1"/>
      </contour>
      <contour>
        <pt x="657" y="706" on="1"/>
        <pt x="642" y="615" on="1"/>
        <pt x="524" y="631" on="0"/>
        <pt x="430" y="631" on="1"/>
        <pt x="423" y="631" on="0"/>
        <pt x="415" y="631" on="0"/>
        <pt x="398" y="631" on="0"/>
        <pt x="382" y="630" on="0"/>
        <pt x="352" y="625" on="0"/>
        <pt x="334" y="616" on="0"/>
        <pt x="306" y="598" on="0"/>
        <pt x="287" y="572" on="0"/>
        <pt x="263" y="532" on="0"/>
        <pt x="255" y="506" on="1"/>
        <pt x="234" y="445" on="0"/>
        <pt x="211" y="306" on="0"/>
        <pt x="211" y="207" on="0"/>
        <pt x="224" y="173" on="1"/>
        <pt x="248" y="107" on="0"/>
        <pt x="328" y="103" on="1"/>
        <pt x="344" y="103" on="0"/>
        <pt x="440" y="103" on="0"/>
        <pt x="565" y="111" on="1"/>
        <pt x="551" y="20" on="1"/>
        <pt x="465" y="-6" on="0"/>
        <pt x="315" y="-6" on="1"/>
        <pt x="241" y="-6" on="0"/>
        <pt x="201" y="16" on="1"/>
        <pt x="95" y="72" on="0"/>
        <pt x="95" y="256" on="1"/>
        <pt x="95" y="372" on="0"/>
        <pt x="133" y="507" on="1"/>
        <pt x="167" y="627" on="0"/>
        <pt x="228" y="681" on="1"/>
        <pt x="296" y="740" on="0"/>
        <pt x="533" y="740" on="0"/>
      </contour>
    </TTGlyph>
    <TTGlyph name="Cdotaccent" xMin="94" yMin="-7" xMax="657" yMax="916">
      <contour>
        <pt x="421" y="916" on="1"/>
        <pt x="485" y="916" on="1"/>
        <pt x="508" y="916" on="0"/>
        <pt x="504" y="891" on="1"/>
        <pt x="493" y="823" on="1"/>
        <pt x="490" y="800" on="0"/>
        <pt x="467" y="800" on="1"/>
        <pt x="403" y="800" on="1"/>
        <pt x="392" y="800" on="0"/>
        <pt x="381" y="813" on="0"/>
        <pt x="382" y="823" on="1"/>
        <pt x="393" y="891" on="1"/>
        <pt x="397" y="916" on="0"/>
      </contour>
      <contour>
        <pt x="657" y="706" on="1"/>
        <pt x="642" y="615" on="1"/>
        <pt x="524" y="631" on="0"/>
        <pt x="430" y="631" on="1"/>
        <pt x="423" y="631" on="0"/>
        <pt x="415" y="631" on="0"/>
        <pt x="398" y="631" on="0"/>
        <pt x="382" y="630" on="0"/>
        <pt x="352" y="625" on="0"/>
        <pt x="334" y="616" on="0"/>
        <pt x="306" y="598" on="0"/>
        <pt x="287" y="572" on="0"/>
        <pt x="263" y="532" on="0"/>
        <pt x="255" y="506" on="1"/>
        <pt x="234" y="445" on="0"/>
        <pt x="211" y="306" on="0"/>
        <pt x="211" y="207" on="0"/>
        <pt x="224" y="173" on="1"/>
        <pt x="248" y="107" on="0"/>
        <pt x="328" y="103" on="1"/>
        <pt x="344" y="103" on="0"/>
        <pt x="440" y="103" on="0"/>
        <pt x="565" y="111" on="1"/>
        <pt x="551" y="20" on="1"/>
        <pt x="465" y="-6" on="0"/>
        <pt x="315" y="-6" on="1"/>
        <pt x="241" y="-6" on="0"/>
        <pt x="201" y="16" on="1"/>
        <pt x="95" y="72" on="0"/>
        <pt x="95" y="256" on="1"/>
        <pt x="95" y="372" on="0"/>
        <pt x="133" y="507" on="1"/>
        <pt x="167" y="627" on="0"/>
        <pt x="228" y="681" on="1"/>
        <pt x="296" y="740" on="0"/>
        <pt x="533" y="740" on="0"/>
      </contour>
    </TTGlyph>
    <TTGlyph name="D" xMin="67" yMin="0" xMax="682" yMax="732">
      <contour>
        <pt x="472" y="732" on="1"/>
        <pt x="577" y="732" on="0"/>
        <pt x="626" y="668" on="1"/>
        <pt x="673" y="606" on="0"/>
        <pt x="680" y="521" on="1"/>
        <pt x="682" y="493" on="0"/>
        <pt x="682" y="472" on="1"/>
        <pt x="682" y="412" on="0"/>
        <pt x="672" y="352" on="1"/>
        <pt x="643" y="172" on="0"/>
        <pt x="496" y="0" on="0"/>
        <pt x="362" y="0" on="1"/>
        <pt x="68" y="0" on="1"/>
        <pt x="184" y="731" on="1"/>
        <pt x="184" y="732" on="0"/>
      </contour>
      <contour>
        <pt x="366" y="107" on="1"/>
        <pt x="443" y="107" on="0"/>
        <pt x="538" y="247" on="0"/>
        <pt x="556" y="364" on="1"/>
        <pt x="567" y="428" on="0"/>
        <pt x="567" y="481" on="1"/>
        <pt x="567" y="626" on="0"/>
        <pt x="445" y="626" on="1"/>
        <pt x="283" y="626" on="1"/>
        <pt x="201" y="107" on="1"/>
      </contour>
    </TTGlyph>
    <TTGlyph name="Dcaron" xMin="78" yMin="0" xMax="693" yMax="928">
      <contour>
        <pt x="323" y="927" on="1"/>
        <pt x="404" y="927" on="1"/>
        <pt x="453" y="855" on="1"/>
        <pt x="531" y="927" on="1"/>
        <pt x="625" y="927" on="1"/>
        <pt x="493" y="794" on="1"/>
        <pt x="403" y="794" on="1"/>
      </contour>
      <contour>
        <pt x="482" y="732" on="1"/>
        <pt x="587" y="732" on="0"/>
        <pt x="636" y="668" on="1"/>
        <pt x="684" y="606" on="0"/>
        <pt x="690" y="521" on="1"/>
        <pt x="692" y="493" on="0"/>
        <pt x="692" y="472" on="1"/>
        <pt x="692" y="412" on="0"/>
        <pt x="682" y="352" on="1"/>
        <pt x="653" y="172" on="0"/>
        <pt x="506" y="0" on="0"/>
        <pt x="372" y="0" on="1"/>
        <pt x="78" y="0" on="1"/>
        <pt x="194" y="731" on="1"/>
        <pt x="194" y="732" on="0"/>
      </contour>
      <contour>
        <pt x="377" y="107" on="1"/>
        <pt x="453" y="107" on="0"/>
        <pt x="548" y="247" on="0"/>
        <pt x="567" y="364" on="1"/>
        <pt x="577" y="428" on="0"/>
        <pt x="577" y="481" on="1"/>
        <pt x="577" y="626" on="0"/>
        <pt x="456" y="626" on="1"/>
        <pt x="293" y="626" on="1"/>
        <pt x="211" y="107" on="1"/>
      </contour>
    </TTGlyph>
    <TTGlyph name="Dcroat" xMin="75" yMin="0" xMax="702" yMax="732">
      <contour>
        <pt x="493" y="732" on="1"/>
        <pt x="598" y="732" on="0"/>
        <pt x="646" y="667" on="1"/>
        <pt x="694" y="603" on="0"/>
        <pt x="700" y="518" on="1"/>
        <pt x="701" y="492" on="0"/>
        <pt x="701" y="471" on="1"/>
        <pt x="701" y="411" on="0"/>
        <pt x="692" y="352" on="1"/>
        <pt x="662" y="176" on="0"/>
        <pt x="516" y="0" on="0"/>
        <pt x="384" y="0" on="1"/>
        <pt x="87" y="0" on="1"/>
        <pt x="141" y="342" on="1"/>
        <pt x="76" y="342" on="1"/>
        <pt x="86" y="404" on="1"/>
        <pt x="151" y="404" on="1"/>
        <pt x="203" y="731" on="1"/>
        <pt x="203" y="732" on="0"/>
      </contour>
      <contour>
        <pt x="387" y="107" on="1"/>
        <pt x="462" y="107" on="0"/>
        <pt x="556" y="247" on="0"/>
        <pt x="575" y="364" on="1"/>
        <pt x="585" y="430" on="0"/>
        <pt x="585" y="482" on="1"/>
        <pt x="585" y="626" on="0"/>
        <pt x="469" y="626" on="1"/>
        <pt x="302" y="626" on="1"/>
        <pt x="267" y="404" on="1"/>
        <pt x="388" y="404" on="1"/>
        <pt x="378" y="342" on="1"/>
        <pt x="257" y="342" on="1"/>
        <pt x="219" y="107" on="1"/>
      </contour>
    </TTGlyph>
    <TTGlyph name="E" xMin="83" yMin="-4" xMax="639" yMax="733">
      <contour>
        <pt x="319" y="732" on="1"/>
        <pt x="323" y="732" on="0"/>
        <pt x="598" y="722" on="0"/>
        <pt x="638" y="716" on="1"/>
        <pt x="623" y="621" on="1"/>
        <pt x="331" y="621" on="1"/>
        <pt x="295" y="621" on="0"/>
        <pt x="283" y="603" on="1"/>
        <pt x="273" y="588" on="0"/>
        <pt x="270" y="565" on="1"/>
        <pt x="247" y="421" on="1"/>
        <pt x="546" y="411" on="1"/>
        <pt x="531" y="316" on="1"/>
        <pt x="229" y="307" on="1"/>
        <pt x="206" y="160" on="1"/>
        <pt x="200" y="122" on="0"/>
        <pt x="220" y="114" on="1"/>
        <pt x="235" y="108" on="0"/>
        <pt x="260" y="108" on="1"/>
        <pt x="543" y="108" on="1"/>
        <pt x="527" y="14" on="1"/>
        <pt x="494" y="10" on="0"/>
        <pt x="289" y="0" on="1"/>
        <pt x="221" y="-3" on="1"/>
        <pt x="216" y="-3" on="0"/>
        <pt x="188" y="-3" on="0"/>
        <pt x="166" y="3" on="1"/>
        <pt x="84" y="24" on="0"/>
        <pt x="84" y="110" on="1"/>
        <pt x="84" y="124" on="0"/>
        <pt x="86" y="140" on="1"/>
        <pt x="158" y="592" on="1"/>
        <pt x="180" y="732" on="0"/>
      </contour>
    </TTGlyph>
    <TTGlyph name="Eacute" xMin="83" yMin="-4" xMax="639" yMax="929">
      <contour>
        <pt x="388" y="792" on="1"/>
        <pt x="506" y="928" on="1"/>
        <pt x="618" y="928" on="1"/>
        <pt x="470" y="792" on="1"/>
      </contour>
      <contour>
        <pt x="319" y="732" on="1"/>
        <pt x="323" y="732" on="0"/>
        <pt x="598" y="722" on="0"/>
        <pt x="638" y="716" on="1"/>
        <pt x="623" y="621" on="1"/>
        <pt x="331" y="621" on="1"/>
        <pt x="295" y="621" on="0"/>
        <pt x="283" y="603" on="1"/>
        <pt x="273" y="588" on="0"/>
        <pt x="270" y="565" on="1"/>
        <pt x="247" y="421" on="1"/>
        <pt x="546" y="411" on="1"/>
        <pt x="531" y="316" on="1"/>
        <pt x="229" y="307" on="1"/>
        <pt x="206" y="160" on="1"/>
        <pt x="200" y="122" on="0"/>
        <pt x="220" y="114" on="1"/>
        <pt x="235" y="108" on="0"/>
        <pt x="260" y="108" on="1"/>
        <pt x="543" y="108" on="1"/>
        <pt x="527" y="14" on="1"/>
        <pt x="494" y="10" on="0"/>
        <pt x="289" y="0" on="1"/>
        <pt x="221" y="-3" on="1"/>
        <pt x="216" y="-3" on="0"/>
        <pt x="188" y="-3" on="0"/>
        <pt x="166" y="3" on="1"/>
        <pt x="84" y="24" on="0"/>
        <pt x="84" y="110" on="1"/>
        <pt x="84" y="124" on="0"/>
        <pt x="86" y="140" on="1"/>
        <pt x="158" y="592" on="1"/>
        <pt x="180" y="732" on="0"/>
      </contour>
    </TTGlyph>
    <TTGlyph name="Ecaron" xMin="83" yMin="-4" xMax="639" yMax="931">
      <contour>
        <pt x="311" y="930" on="1"/>
        <pt x="392" y="930" on="1"/>
        <pt x="442" y="859" on="1"/>
        <pt x="519" y="930" on="1"/>
        <pt x="614" y="930" on="1"/>
        <pt x="481" y="797" on="1"/>
        <pt x="391" y="797" on="1"/>
      </contour>
      <contour>
        <pt x="319" y="732" on="1"/>
        <pt x="323" y="732" on="0"/>
        <pt x="598" y="722" on="0"/>
        <pt x="638" y="716" on="1"/>
        <pt x="623" y="621" on="1"/>
        <pt x="331" y="621" on="1"/>
        <pt x="295" y="621" on="0"/>
        <pt x="283" y="603" on="1"/>
        <pt x="273" y="588" on="0"/>
        <pt x="270" y="565" on="1"/>
        <pt x="247" y="421" on="1"/>
        <pt x="546" y="411" on="1"/>
        <pt x="531" y="316" on="1"/>
        <pt x="229" y="307" on="1"/>
        <pt x="206" y="160" on="1"/>
        <pt x="200" y="122" on="0"/>
        <pt x="220" y="114" on="1"/>
        <pt x="235" y="108" on="0"/>
        <pt x="260" y="108" on="1"/>
        <pt x="543" y="108" on="1"/>
        <pt x="527" y="14" on="1"/>
        <pt x="494" y="10" on="0"/>
        <pt x="289" y="0" on="1"/>
        <pt x="221" y="-3" on="1"/>
        <pt x="216" y="-3" on="0"/>
        <pt x="188" y="-3" on="0"/>
        <pt x="166" y="3" on="1"/>
        <pt x="84" y="24" on="0"/>
        <pt x="84" y="110" on="1"/>
        <pt x="84" y="124" on="0"/>
        <pt x="86" y="140" on="1"/>
        <pt x="158" y="592" on="1"/>
        <pt x="180" y="732" on="0"/>
      </contour>
    </TTGlyph>
    <TTGlyph name="Ecircumflex" xMin="83" yMin="-4" xMax="639" yMax="927">
      <contour>
        <pt x="279" y="792" on="1"/>
        <pt x="411" y="926" on="1"/>
        <pt x="503" y="926" on="1"/>
        <pt x="581" y="792" on="1"/>
        <pt x="498" y="792" on="1"/>
        <pt x="453" y="862" on="1"/>
        <pt x="380" y="792" on="1"/>
      </contour>
      <contour>
        <pt x="319" y="732" on="1"/>
        <pt x="323" y="732" on="0"/>
        <pt x="598" y="722" on="0"/>
        <pt x="638" y="716" on="1"/>
        <pt x="623" y="621" on="1"/>
        <pt x="331" y="621" on="1"/>
        <pt x="295" y="621" on="0"/>
        <pt x="283" y="603" on="1"/>
        <pt x="273" y="588" on="0"/>
        <pt x="270" y="565" on="1"/>
        <pt x="247" y="421" on="1"/>
        <pt x="546" y="411" on="1"/>
        <pt x="531" y="316" on="1"/>
        <pt x="229" y="307" on="1"/>
        <pt x="206" y="160" on="1"/>
        <pt x="200" y="122" on="0"/>
        <pt x="220" y="114" on="1"/>
        <pt x="235" y="108" on="0"/>
        <pt x="260" y="108" on="1"/>
        <pt x="543" y="108" on="1"/>
        <pt x="527" y="14" on="1"/>
        <pt x="494" y="10" on="0"/>
        <pt x="289" y="0" on="1"/>
        <pt x="221" y="-3" on="1"/>
        <pt x="216" y="-3" on="0"/>
        <pt x="188" y="-3" on="0"/>
        <pt x="166" y="3" on="1"/>
        <pt x="84" y="24" on="0"/>
        <pt x="84" y="110" on="1"/>
        <pt x="84" y="124" on="0"/>
        <pt x="86" y="140" on="1"/>
        <pt x="158" y="592" on="1"/>
        <pt x="180" y="732" on="0"/>
      </contour>
    </TTGlyph>
    <TTGlyph name="Edieresis" xMin="83" yMin="-4" xMax="639" yMax="899">
      <contour>
        <pt x="288" y="898" on="0"/>
        <pt x="334" y="898" on="0"/>
        <pt x="358" y="869" on="0"/>
        <pt x="358" y="859" on="1"/>
        <pt x="358" y="824" on="0"/>
        <pt x="316" y="787" on="0"/>
        <pt x="270" y="787" on="0"/>
        <pt x="245" y="816" on="0"/>
        <pt x="245" y="827" on="1"/>
        <pt x="245" y="862" on="0"/>
      </contour>
      <contour>
        <pt x="543" y="898" on="0"/>
        <pt x="589" y="898" on="0"/>
        <pt x="613" y="869" on="0"/>
        <pt x="613" y="859" on="1"/>
        <pt x="613" y="824" on="0"/>
        <pt x="571" y="787" on="0"/>
        <pt x="525" y="787" on="0"/>
        <pt x="500" y="816" on="0"/>
        <pt x="500" y="827" on="1"/>
        <pt x="500" y="862" on="0"/>
      </contour>
      <contour>
        <pt x="319" y="732" on="1"/>
        <pt x="323" y="732" on="0"/>
        <pt x="598" y="722" on="0"/>
        <pt x="638" y="716" on="1"/>
        <pt x="623" y="621" on="1"/>
        <pt x="331" y="621" on="1"/>
        <pt x="295" y="621" on="0"/>
        <pt x="283" y="603" on="1"/>
        <pt x="273" y="588" on="0"/>
        <pt x="270" y="565" on="1"/>
        <pt x="247" y="421" on="1"/>
        <pt x="546" y="411" on="1"/>
        <pt x="531" y="316" on="1"/>
        <pt x="229" y="307" on="1"/>
        <pt x="206" y="160" on="1"/>
        <pt x="200" y="122" on="0"/>
        <pt x="220" y="114" on="1"/>
        <pt x="235" y="108" on="0"/>
        <pt x="260" y="108" on="1"/>
        <pt x="543" y="108" on="1"/>
        <pt x="527" y="14" on="1"/>
        <pt x="494" y="10" on="0"/>
        <pt x="289" y="0" on="1"/>
        <pt x="221" y="-3" on="1"/>
        <pt x="216" y="-3" on="0"/>
        <pt x="188" y="-3" on="0"/>
        <pt x="166" y="3" on="1"/>
        <pt x="84" y="24" on="0"/>
        <pt x="84" y="110" on="1"/>
        <pt x="84" y="124" on="0"/>
        <pt x="86" y="140" on="1"/>
        <pt x="158" y="592" on="1"/>
        <pt x="180" y="732" on="0"/>
      </contour>
    </TTGlyph>
    <TTGlyph name="Edotaccent" xMin="83" yMin="-4" xMax="639" yMax="913">
      <contour>
        <pt x="423" y="913" on="1"/>
        <pt x="487" y="913" on="1"/>
        <pt x="510" y="913" on="0"/>
        <pt x="506" y="888" on="1"/>
        <pt x="495" y="820" on="1"/>
        <pt x="492" y="797" on="0"/>
        <pt x="469" y="797" on="1"/>
        <pt x="405" y="797" on="1"/>
        <pt x="394" y="797" on="0"/>
        <pt x="382" y="810" on="0"/>
        <pt x="384" y="820" on="1"/>
        <pt x="395" y="888" on="1"/>
        <pt x="398" y="913" on="0"/>
      </contour>
      <contour>
        <pt x="319" y="732" on="1"/>
        <pt x="323" y="732" on="0"/>
        <pt x="598" y="722" on="0"/>
        <pt x="638" y="716" on="1"/>
        <pt x="623" y="621" on="1"/>
        <pt x="331" y="621" on="1"/>
        <pt x="295" y="621" on="0"/>
        <pt x="283" y="603" on="1"/>
        <pt x="273" y="588" on="0"/>
        <pt x="270" y="565" on="1"/>
        <pt x="247" y="421" on="1"/>
        <pt x="546" y="411" on="1"/>
        <pt x="531" y="316" on="1"/>
        <pt x="229" y="307" on="1"/>
        <pt x="206" y="160" on="1"/>
        <pt x="200" y="122" on="0"/>
        <pt x="220" y="114" on="1"/>
        <pt x="235" y="108" on="0"/>
        <pt x="260" y="108" on="1"/>
        <pt x="543" y="108" on="1"/>
        <pt x="527" y="14" on="1"/>
        <pt x="494" y="10" on="0"/>
        <pt x="289" y="0" on="1"/>
        <pt x="221" y="-3" on="1"/>
        <pt x="216" y="-3" on="0"/>
        <pt x="188" y="-3" on="0"/>
        <pt x="166" y="3" on="1"/>
        <pt x="84" y="24" on="0"/>
        <pt x="84" y="110" on="1"/>
        <pt x="84" y="124" on="0"/>
        <pt x="86" y="140" on="1"/>
        <pt x="158" y="592" on="1"/>
        <pt x="180" y="732" on="0"/>
      </contour>
    </TTGlyph>
    <TTGlyph name="Egrave" xMin="83" yMin="-4" xMax="639" yMax="929">
      <contour>
        <pt x="276" y="928" on="1"/>
        <pt x="384" y="928" on="1"/>
        <pt x="471" y="792" on="1"/>
        <pt x="388" y="792" on="1"/>
      </contour>
      <contour>
        <pt x="319" y="732" on="1"/>
        <pt x="323" y="732" on="0"/>
        <pt x="598" y="722" on="0"/>
        <pt x="638" y="716" on="1"/>
        <pt x="623" y="621" on="1"/>
        <pt x="331" y="621" on="1"/>
        <pt x="295" y="621" on="0"/>
        <pt x="283" y="603" on="1"/>
        <pt x="273" y="588" on="0"/>
        <pt x="270" y="565" on="1"/>
        <pt x="247" y="421" on="1"/>
        <pt x="546" y="411" on="1"/>
        <pt x="531" y="316" on="1"/>
        <pt x="229" y="307" on="1"/>
        <pt x="206" y="160" on="1"/>
        <pt x="200" y="122" on="0"/>
        <pt x="220" y="114" on="1"/>
        <pt x="235" y="108" on="0"/>
        <pt x="260" y="108" on="1"/>
        <pt x="543" y="108" on="1"/>
        <pt x="527" y="14" on="1"/>
        <pt x="494" y="10" on="0"/>
        <pt x="289" y="0" on="1"/>
        <pt x="221" y="-3" on="1"/>
        <pt x="216" y="-3" on="0"/>
        <pt x="188" y="-3" on="0"/>
        <pt x="166" y="3" on="1"/>
        <pt x="84" y="24" on="0"/>
        <pt x="84" y="110" on="1"/>
        <pt x="84" y="124" on="0"/>
        <pt x="86" y="140" on="1"/>
        <pt x="158" y="592" on="1"/>
        <pt x="180" y="732" on="0"/>
      </contour>
    </TTGlyph>
    <TTGlyph name="Emacron" xMin="83" yMin="-4" xMax="639" yMax="866">
      <contour>
        <pt x="277" y="792" on="1"/>
        <pt x="289" y="866" on="1"/>
        <pt x="581" y="866" on="1"/>
        <pt x="569" y="792" on="1"/>
      </contour>
      <contour>
        <pt x="319" y="732" on="1"/>
        <pt x="323" y="732" on="0"/>
        <pt x="598" y="722" on="0"/>
        <pt x="638" y="716" on="1"/>
        <pt x="623" y="621" on="1"/>
        <pt x="331" y="621" on="1"/>
        <pt x="295" y="621" on="0"/>
        <pt x="283" y="603" on="1"/>
        <pt x="273" y="588" on="0"/>
        <pt x="270" y="565" on="1"/>
        <pt x="247" y="421" on="1"/>
        <pt x="546" y="411" on="1"/>
        <pt x="531" y="316" on="1"/>
        <pt x="229" y="307" on="1"/>
        <pt x="206" y="160" on="1"/>
        <pt x="200" y="122" on="0"/>
        <pt x="220" y="114" on="1"/>
        <pt x="235" y="108" on="0"/>
        <pt x="260" y="108" on="1"/>
        <pt x="543" y="108" on="1"/>
        <pt x="527" y="14" on="1"/>
        <pt x="494" y="10" on="0"/>
        <pt x="289" y="0" on="1"/>
        <pt x="221" y="-3" on="1"/>
        <pt x="216" y="-3" on="0"/>
        <pt x="188" y="-3" on="0"/>
        <pt x="166" y="3" on="1"/>
        <pt x="84" y="24" on="0"/>
        <pt x="84" y="110" on="1"/>
        <pt x="84" y="124" on="0"/>
        <pt x="86" y="140" on="1"/>
        <pt x="158" y="592" on="1"/>
        <pt x="180" y="732" on="0"/>
      </contour>
    </TTGlyph>
    <TTGlyph name="Eng" xMin="67" yMin="-258" xMax="731" yMax="732">
      <contour>
        <pt x="411" y="-257" on="0"/>
        <pt x="380" y="-257" on="0"/>
        <pt x="355" y="-257" on="0"/>
        <pt x="335" y="-257" on="1"/>
        <pt x="349" y="-172" on="1"/>
        <pt x="356" y="-171" on="0"/>
        <pt x="391" y="-165" on="0"/>
        <pt x="408" y="-162" on="0"/>
        <pt x="437" y="-153" on="0"/>
        <pt x="453" y="-139" on="0"/>
        <pt x="463" y="-129" on="1"/>
        <pt x="481" y="-110" on="0"/>
        <pt x="488" y="-66" on="1"/>
        <pt x="499" y="4" on="1"/>
        <pt x="266" y="514" on="1"/>
        <pt x="185" y="0" on="1"/>
        <pt x="68" y="0" on="1"/>
        <pt x="184" y="732" on="1"/>
        <pt x="299" y="732" on="1"/>
        <pt x="533" y="215" on="1"/>
        <pt x="615" y="732" on="1"/>
        <pt x="731" y="732" on="1"/>
        <pt x="603" y="-77" on="1"/>
        <pt x="587" y="-173" on="0"/>
        <pt x="524" y="-219" on="1"/>
        <pt x="492" y="-241" on="0"/>
      </contour>
    </TTGlyph>
    <TTGlyph name="Eogonek" xMin="86" yMin="-174" xMax="642" yMax="733">
      <contour>
        <pt x="389" y="-95" on="1"/>
        <pt x="389" y="-26" on="0"/>
        <pt x="481" y="14" on="1"/>
        <pt x="530" y="14" on="1"/>
        <pt x="465" y="-31" on="0"/>
        <pt x="465" y="-67" on="1"/>
        <pt x="465" y="-100" on="0"/>
        <pt x="511" y="-100" on="1"/>
        <pt x="515" y="-100" on="0"/>
        <pt x="519" y="-100" on="1"/>
        <pt x="507" y="-170" on="1"/>
        <pt x="493" y="-173" on="0"/>
        <pt x="480" y="-173" on="1"/>
        <pt x="442" y="-173" on="0"/>
        <pt x="389" y="-127" on="0"/>
      </contour>
      <contour>
        <pt x="322" y="732" on="1"/>
        <pt x="326" y="732" on="0"/>
        <pt x="601" y="722" on="0"/>
        <pt x="641" y="716" on="1"/>
        <pt x="626" y="621" on="1"/>
        <pt x="334" y="621" on="1"/>
        <pt x="299" y="621" on="0"/>
        <pt x="286" y="603" on="1"/>
        <pt x="277" y="588" on="0"/>
        <pt x="273" y="565" on="1"/>
        <pt x="250" y="421" on="1"/>
        <pt x="550" y="411" on="1"/>
        <pt x="534" y="316" on="1"/>
        <pt x="232" y="307" on="1"/>
        <pt x="209" y="160" on="1"/>
        <pt x="203" y="122" on="0"/>
        <pt x="223" y="114" on="1"/>
        <pt x="238" y="108" on="0"/>
        <pt x="264" y="108" on="1"/>
        <pt x="546" y="108" on="1"/>
        <pt x="530" y="14" on="1"/>
        <pt x="497" y="10" on="0"/>
        <pt x="292" y="0" on="1"/>
        <pt x="224" y="-3" on="1"/>
        <pt x="219" y="-3" on="0"/>
        <pt x="192" y="-3" on="0"/>
        <pt x="169" y="3" on="1"/>
        <pt x="87" y="24" on="0"/>
        <pt x="87" y="110" on="1"/>
        <pt x="87" y="124" on="0"/>
        <pt x="89" y="140" on="1"/>
        <pt x="161" y="592" on="1"/>
        <pt x="184" y="732" on="0"/>
      </contour>
    </TTGlyph>
    <TTGlyph name="Eth" xMin="56" yMin="0" xMax="683" yMax="732">
      <contour>
        <pt x="474" y="732" on="1"/>
        <pt x="579" y="732" on="0"/>
        <pt x="627" y="667" on="1"/>
        <pt x="674" y="603" on="0"/>
        <pt x="680" y="518" on="1"/>
        <pt x="682" y="492" on="0"/>
        <pt x="682" y="471" on="1"/>
        <pt x="682" y="411" on="0"/>
        <pt x="672" y="352" on="1"/>
        <pt x="642" y="176" on="0"/>
        <pt x="497" y="0" on="0"/>
        <pt x="365" y="0" on="1"/>
        <pt x="67" y="0" on="1"/>
        <pt x="121" y="342" on="1"/>
        <pt x="56" y="342" on="1"/>
        <pt x="66" y="404" on="1"/>
        <pt x="131" y="404" on="1"/>
        <pt x="183" y="731" on="1"/>
        <pt x="183" y="732" on="0"/>
      </contour>
      <contour>
        <pt x="367" y="107" on="1"/>
        <pt x="442" y="107" on="0"/>
        <pt x="537" y="247" on="0"/>
        <pt x="555" y="364" on="1"/>
        <pt x="566" y="430" on="0"/>
        <pt x="566" y="482" on="1"/>
        <pt x="566" y="626" on="0"/>
        <pt x="450" y="626" on="1"/>
        <pt x="282" y="626" on="1"/>
        <pt x="247" y="404" on="1"/>
        <pt x="369" y="404" on="1"/>
        <pt x="359" y="342" on="1"/>
        <pt x="237" y="342" on="1"/>
        <pt x="200" y="107" on="1"/>
      </contour>
    </TTGlyph>
    <TTGlyph name="Euro" xMin="61" yMin="-6" xMax="711" yMax="740">
      <contour>
        <pt x="327" y="717" on="0"/>
        <pt x="410" y="740" on="0"/>
        <pt x="504" y="740" on="0"/>
        <pt x="660" y="720" on="0"/>
        <pt x="711" y="706" on="1"/>
        <pt x="697" y="620" on="1"/>
        <pt x="547" y="634" on="0"/>
        <pt x="435" y="634" on="0"/>
        <pt x="389" y="625" on="0"/>
        <pt x="356" y="612" on="0"/>
        <pt x="331" y="586" on="0"/>
        <pt x="316" y="563" on="0"/>
        <pt x="310" y="544" on="1"/>
        <pt x="301" y="517" on="0"/>
        <pt x="293" y="474" on="1"/>
        <pt x="526" y="466" on="1"/>
        <pt x="517" y="406" on="1"/>
        <pt x="282" y="400" on="1"/>
        <pt x="269" y="320" on="1"/>
        <pt x="502" y="312" on="1"/>
        <pt x="492" y="252" on="1"/>
        <pt x="353" y="249" on="0"/>
        <pt x="290" y="246" on="1"/>
        <pt x="257" y="244" on="1"/>
        <pt x="253" y="211" on="0"/>
        <pt x="253" y="166" on="0"/>
        <pt x="270" y="133" on="0"/>
        <pt x="290" y="112" on="0"/>
        <pt x="307" y="106" on="1"/>
        <pt x="336" y="96" on="0"/>
        <pt x="406" y="96" on="0"/>
        <pt x="475" y="100" on="0"/>
        <pt x="505" y="103" on="1"/>
        <pt x="568" y="109" on="0"/>
        <pt x="605" y="114" on="1"/>
        <pt x="621" y="116" on="1"/>
        <pt x="608" y="32" on="1"/>
        <pt x="499" y="-6" on="0"/>
        <pt x="343" y="-6" on="1"/>
        <pt x="278" y="-6" on="0"/>
        <pt x="236" y="14" on="1"/>
        <pt x="188" y="36" on="0"/>
        <pt x="169" y="66" on="1"/>
        <pt x="136" y="117" on="0"/>
        <pt x="136" y="200" on="0"/>
        <pt x="141" y="244" on="1"/>
        <pt x="61" y="252" on="1"/>
        <pt x="71" y="312" on="1"/>
        <pt x="153" y="320" on="1"/>
        <pt x="166" y="400" on="1"/>
        <pt x="86" y="408" on="1"/>
        <pt x="95" y="464" on="1"/>
        <pt x="177" y="474" on="1"/>
        <pt x="191" y="563" on="0"/>
        <pt x="217" y="609" on="1"/>
        <pt x="228" y="630" on="0"/>
        <pt x="272" y="684" on="0"/>
      </contour>
    </TTGlyph>
    <TTGlyph name="Euro.smcp" xMin="44" yMin="-5" xMax="574" yMax="577">
      <contour>
        <pt x="361" y="577" on="1"/>
        <pt x="397" y="577" on="0"/>
        <pt x="526" y="563" on="0"/>
        <pt x="573" y="554" on="1"/>
        <pt x="560" y="464" on="1"/>
        <pt x="430" y="475" on="0"/>
        <pt x="335" y="475" on="0"/>
        <pt x="290" y="457" on="0"/>
        <pt x="278" y="440" on="1"/>
        <pt x="258" y="412" on="0"/>
        <pt x="250" y="372" on="1"/>
        <pt x="428" y="366" on="1"/>
        <pt x="419" y="310" on="1"/>
        <pt x="240" y="305" on="1"/>
        <pt x="233" y="260" on="1"/>
        <pt x="410" y="255" on="1"/>
        <pt x="401" y="197" on="1"/>
        <pt x="219" y="193" on="0"/>
        <pt x="221" y="191" on="1"/>
        <pt x="218" y="177" on="0"/>
        <pt x="218" y="157" on="0"/>
        <pt x="224" y="133" on="0"/>
        <pt x="236" y="113" on="0"/>
        <pt x="249" y="108" on="1"/>
        <pt x="271" y="99" on="0"/>
        <pt x="305" y="99" on="1"/>
        <pt x="374" y="99" on="0"/>
        <pt x="473" y="109" on="1"/>
        <pt x="506" y="112" on="1"/>
        <pt x="492" y="23" on="1"/>
        <pt x="406" y="-5" on="0"/>
        <pt x="273" y="-5" on="1"/>
        <pt x="217" y="-5" on="0"/>
        <pt x="148" y="29" on="0"/>
        <pt x="131" y="49" on="1"/>
        <pt x="102" y="85" on="0"/>
        <pt x="102" y="149" on="1"/>
        <pt x="102" y="169" on="0"/>
        <pt x="105" y="191" on="1"/>
        <pt x="44" y="197" on="1"/>
        <pt x="53" y="255" on="1"/>
        <pt x="116" y="260" on="1"/>
        <pt x="123" y="305" on="1"/>
        <pt x="63" y="311" on="1"/>
        <pt x="71" y="365" on="1"/>
        <pt x="133" y="372" on="1"/>
        <pt x="144" y="444" on="0"/>
        <pt x="167" y="481" on="1"/>
        <pt x="194" y="526" on="0"/>
        <pt x="235" y="548" on="1"/>
        <pt x="288" y="577" on="0"/>
      </contour>
    </TTGlyph>
    <TTGlyph name="F" xMin="66" yMin="0" xMax="640" yMax="733">
      <contour>
        <pt x="321" y="732" on="1"/>
        <pt x="325" y="732" on="0"/>
        <pt x="599" y="722" on="0"/>
        <pt x="639" y="716" on="1"/>
        <pt x="625" y="621" on="1"/>
        <pt x="332" y="621" on="1"/>
        <pt x="299" y="621" on="0"/>
        <pt x="275" y="591" on="0"/>
        <pt x="271" y="565" on="1"/>
        <pt x="249" y="420" on="1"/>
        <pt x="548" y="410" on="1"/>
        <pt x="533" y="315" on="1"/>
        <pt x="230" y="305" on="1"/>
        <pt x="182" y="0" on="1"/>
        <pt x="66" y="0" on="1"/>
        <pt x="158" y="585" on="1"/>
        <pt x="171" y="665" on="0"/>
        <pt x="260" y="732" on="0"/>
      </contour>
    </TTGlyph>
    <TTGlyph name="G" xMin="96" yMin="-7" xMax="666" yMax="740">
      <contour>
        <pt x="216" y="248" on="1"/>
        <pt x="216" y="104" on="0"/>
        <pt x="325" y="104" on="1"/>
        <pt x="325" y="104" on="0"/>
        <pt x="326" y="104" on="1"/>
        <pt x="358" y="104" on="0"/>
        <pt x="435" y="130" on="0"/>
        <pt x="457" y="143" on="1"/>
        <pt x="480" y="156" on="1"/>
        <pt x="506" y="307" on="1"/>
        <pt x="379" y="307" on="1"/>
        <pt x="391" y="382" on="1"/>
        <pt x="462" y="406" on="0"/>
        <pt x="570" y="406" on="1"/>
        <pt x="601" y="406" on="0"/>
        <pt x="637" y="404" on="1"/>
        <pt x="573" y="0" on="1"/>
        <pt x="488" y="0" on="1"/>
        <pt x="465" y="54" on="1"/>
        <pt x="439" y="29" on="0"/>
        <pt x="394" y="12" on="1"/>
        <pt x="345" y="-6" on="0"/>
        <pt x="235" y="-6" on="0"/>
        <pt x="196" y="16" on="1"/>
        <pt x="96" y="72" on="0"/>
        <pt x="96" y="253" on="1"/>
        <pt x="96" y="312" on="0"/>
        <pt x="122" y="457" on="0"/>
        <pt x="152" y="562" on="0"/>
        <pt x="199" y="654" on="0"/>
        <pt x="230" y="681" on="1"/>
        <pt x="297" y="739" on="0"/>
        <pt x="411" y="739" on="1"/>
        <pt x="413" y="739" on="0"/>
        <pt x="416" y="739" on="1"/>
        <pt x="529" y="739" on="0"/>
        <pt x="665" y="707" on="1"/>
        <pt x="651" y="617" on="1"/>
        <pt x="616" y="622" on="0"/>
        <pt x="542" y="628" on="1"/>
        <pt x="462" y="634" on="0"/>
        <pt x="389" y="634" on="0"/>
        <pt x="355" y="628" on="0"/>
        <pt x="306" y="598" on="0"/>
        <pt x="289" y="571" on="1"/>
        <pt x="247" y="505" on="0"/>
        <pt x="227" y="366" on="1"/>
        <pt x="216" y="299" on="0"/>
      </contour>
    </TTGlyph>
    <TTGlyph name="Gbreve" xMin="96" yMin="-7" xMax="666" yMax="913">
      <contour>
        <pt x="392" y="913" on="1"/>
        <pt x="391" y="907" on="0"/>
        <pt x="391" y="890" on="0"/>
        <pt x="397" y="878" on="1"/>
        <pt x="408" y="852" on="0"/>
        <pt x="443" y="852" on="1"/>
        <pt x="444" y="852" on="0"/>
        <pt x="445" y="852" on="1"/>
        <pt x="505" y="852" on="0"/>
        <pt x="513" y="913" on="1"/>
        <pt x="567" y="913" on="1"/>
        <pt x="560" y="856" on="0"/>
        <pt x="495" y="799" on="0"/>
        <pt x="396" y="799" on="0"/>
        <pt x="338" y="857" on="0"/>
        <pt x="338" y="900" on="1"/>
        <pt x="338" y="906" on="0"/>
        <pt x="339" y="913" on="1"/>
      </contour>
      <contour>
        <pt x="216" y="248" on="1"/>
        <pt x="216" y="104" on="0"/>
        <pt x="325" y="104" on="1"/>
        <pt x="325" y="104" on="0"/>
        <pt x="326" y="104" on="1"/>
        <pt x="358" y="104" on="0"/>
        <pt x="435" y="130" on="0"/>
        <pt x="457" y="143" on="1"/>
        <pt x="480" y="156" on="1"/>
        <pt x="506" y="307" on="1"/>
        <pt x="379" y="307" on="1"/>
        <pt x="391" y="382" on="1"/>
        <pt x="462" y="406" on="0"/>
        <pt x="570" y="406" on="1"/>
        <pt x="601" y="406" on="0"/>
        <pt x="637" y="404" on="1"/>
        <pt x="573" y="0" on="1"/>
        <pt x="488" y="0" on="1"/>
        <pt x="465" y="54" on="1"/>
        <pt x="439" y="29" on="0"/>
        <pt x="394" y="12" on="1"/>
        <pt x="345" y="-6" on="0"/>
        <pt x="235" y="-6" on="0"/>
        <pt x="196" y="16" on="1"/>
        <pt x="96" y="72" on="0"/>
        <pt x="96" y="253" on="1"/>
        <pt x="96" y="354" on="0"/>
        <pt x="132" y="490" on="1"/>
        <pt x="159" y="596" on="0"/>
        <pt x="201" y="649" on="1"/>
        <pt x="250" y="711" on="0"/>
        <pt x="322" y="729" on="1"/>
        <pt x="361" y="739" on="0"/>
        <pt x="413" y="739" on="0"/>
        <pt x="416" y="739" on="1"/>
        <pt x="529" y="739" on="0"/>
        <pt x="665" y="707" on="1"/>
        <pt x="651" y="617" on="1"/>
        <pt x="616" y="622" on="0"/>
        <pt x="542" y="628" on="1"/>
        <pt x="462" y="634" on="0"/>
        <pt x="389" y="634" on="0"/>
        <pt x="355" y="628" on="0"/>
        <pt x="306" y="598" on="0"/>
        <pt x="289" y="571" on="1"/>
        <pt x="247" y="505" on="0"/>
        <pt x="227" y="366" on="1"/>
        <pt x="216" y="299" on="0"/>
      </contour>
    </TTGlyph>
    <TTGlyph name="Gcircumflex" xMin="96" yMin="-7" xMax="666" yMax="933">
      <contour>
        <pt x="284" y="799" on="1"/>
        <pt x="417" y="933" on="1"/>
        <pt x="509" y="933" on="1"/>
        <pt x="587" y="799" on="1"/>
        <pt x="506" y="799" on="1"/>
        <pt x="458" y="871" on="1"/>
        <pt x="379" y="799" on="1"/>
      </contour>
      <contour>
        <pt x="216" y="248" on="1"/>
        <pt x="216" y="104" on="0"/>
        <pt x="325" y="104" on="1"/>
        <pt x="325" y="104" on="0"/>
        <pt x="326" y="104" on="1"/>
        <pt x="358" y="104" on="0"/>
        <pt x="435" y="130" on="0"/>
        <pt x="457" y="143" on="1"/>
        <pt x="480" y="156" on="1"/>
        <pt x="506" y="307" on="1"/>
        <pt x="379" y="307" on="1"/>
        <pt x="391" y="382" on="1"/>
        <pt x="462" y="406" on="0"/>
        <pt x="570" y="406" on="1"/>
        <pt x="601" y="406" on="0"/>
        <pt x="637" y="404" on="1"/>
        <pt x="573" y="0" on="1"/>
        <pt x="488" y="0" on="1"/>
        <pt x="465" y="54" on="1"/>
        <pt x="439" y="29" on="0"/>
        <pt x="394" y="12" on="1"/>
        <pt x="345" y="-6" on="0"/>
        <pt x="235" y="-6" on="0"/>
        <pt x="196" y="16" on="1"/>
        <pt x="96" y="72" on="0"/>
        <pt x="96" y="253" on="1"/>
        <pt x="96" y="354" on="0"/>
        <pt x="132" y="490" on="1"/>
        <pt x="159" y="596" on="0"/>
        <pt x="201" y="649" on="1"/>
        <pt x="250" y="711" on="0"/>
        <pt x="322" y="729" on="1"/>
        <pt x="361" y="739" on="0"/>
        <pt x="413" y="739" on="0"/>
        <pt x="416" y="739" on="1"/>
        <pt x="529" y="739" on="0"/>
        <pt x="665" y="707" on="1"/>
        <pt x="651" y="617" on="1"/>
        <pt x="616" y="622" on="0"/>
        <pt x="542" y="628" on="1"/>
        <pt x="462" y="634" on="0"/>
        <pt x="389" y="634" on="0"/>
        <pt x="355" y="628" on="0"/>
        <pt x="306" y="598" on="0"/>
        <pt x="289" y="571" on="1"/>
        <pt x="247" y="505" on="0"/>
        <pt x="227" y="366" on="1"/>
        <pt x="216" y="299" on="0"/>
      </contour>
    </TTGlyph>
    <TTGlyph name="Gcommaaccent" xMin="96" yMin="-267" xMax="666" yMax="740">
      <contour>
        <pt x="286" y="-184" on="1"/>
        <pt x="276" y="-184" on="0"/>
        <pt x="265" y="-172" on="0"/>
        <pt x="267" y="-162" on="1"/>
        <pt x="277" y="-94" on="1"/>
        <pt x="281" y="-70" on="0"/>
        <pt x="304" y="-70" on="1"/>
        <pt x="369" y="-70" on="1"/>
        <pt x="387" y="-70" on="0"/>
        <pt x="387" y="-88" on="1"/>
        <pt x="387" y="-91" on="0"/>
        <pt x="386" y="-94" on="1"/>
        <pt x="370" y="-194" on="1"/>
        <pt x="366" y="-220" on="0"/>
        <pt x="353" y="-237" on="1"/>
        <pt x="330" y="-266" on="0"/>
        <pt x="280" y="-266" on="1"/>
        <pt x="272" y="-266" on="0"/>
        <pt x="266" y="-265" on="1"/>
        <pt x="255" y="-263" on="1"/>
        <pt x="261" y="-225" on="1"/>
        <pt x="281" y="-226" on="0"/>
        <pt x="285" y="-219" on="1"/>
        <pt x="291" y="-209" on="0"/>
        <pt x="293" y="-200" on="1"/>
        <pt x="296" y="-184" on="1"/>
      </contour>
      <contour>
        <pt x="216" y="248" on="1"/>
        <pt x="216" y="104" on="0"/>
        <pt x="325" y="104" on="1"/>
        <pt x="325" y="104" on="0"/>
        <pt x="326" y="104" on="1"/>
        <pt x="358" y="104" on="0"/>
        <pt x="435" y="130" on="0"/>
        <pt x="457" y="143" on="1"/>
        <pt x="480" y="156" on="1"/>
        <pt x="506" y="307" on="1"/>
        <pt x="379" y="307" on="1"/>
        <pt x="391" y="382" on="1"/>
        <pt x="462" y="406" on="0"/>
        <pt x="570" y="406" on="1"/>
        <pt x="601" y="406" on="0"/>
        <pt x="637" y="404" on="1"/>
        <pt x="573" y="0" on="1"/>
        <pt x="488" y="0" on="1"/>
        <pt x="465" y="54" on="1"/>
        <pt x="439" y="29" on="0"/>
        <pt x="394" y="12" on="1"/>
        <pt x="345" y="-6" on="0"/>
        <pt x="235" y="-6" on="0"/>
        <pt x="196" y="16" on="1"/>
        <pt x="96" y="72" on="0"/>
        <pt x="96" y="253" on="1"/>
        <pt x="96" y="354" on="0"/>
        <pt x="132" y="490" on="1"/>
        <pt x="159" y="596" on="0"/>
        <pt x="201" y="649" on="1"/>
        <pt x="250" y="711" on="0"/>
        <pt x="322" y="729" on="1"/>
        <pt x="361" y="739" on="0"/>
        <pt x="413" y="739" on="0"/>
        <pt x="416" y="739" on="1"/>
        <pt x="529" y="739" on="0"/>
        <pt x="665" y="707" on="1"/>
        <pt x="651" y="617" on="1"/>
        <pt x="616" y="622" on="0"/>
        <pt x="542" y="628" on="1"/>
        <pt x="462" y="634" on="0"/>
        <pt x="389" y="634" on="0"/>
        <pt x="355" y="628" on="0"/>
        <pt x="306" y="598" on="0"/>
        <pt x="289" y="571" on="1"/>
        <pt x="247" y="505" on="0"/>
        <pt x="227" y="366" on="1"/>
        <pt x="216" y="299" on="0"/>
      </contour>
    </TTGlyph>
    <TTGlyph name="Gdotaccent" xMin="96" yMin="-7" xMax="666" yMax="916">
      <contour>
        <pt x="427" y="916" on="1"/>
        <pt x="491" y="916" on="1"/>
        <pt x="514" y="916" on="0"/>
        <pt x="510" y="891" on="1"/>
        <pt x="499" y="823" on="1"/>
        <pt x="496" y="800" on="0"/>
        <pt x="473" y="800" on="1"/>
        <pt x="409" y="800" on="1"/>
        <pt x="398" y="800" on="0"/>
        <pt x="386" y="813" on="0"/>
        <pt x="388" y="823" on="1"/>
        <pt x="399" y="891" on="1"/>
        <pt x="402" y="916" on="0"/>
      </contour>
      <contour>
        <pt x="216" y="248" on="1"/>
        <pt x="216" y="104" on="0"/>
        <pt x="325" y="104" on="1"/>
        <pt x="325" y="104" on="0"/>
        <pt x="326" y="104" on="1"/>
        <pt x="358" y="104" on="0"/>
        <pt x="435" y="130" on="0"/>
        <pt x="457" y="143" on="1"/>
        <pt x="480" y="156" on="1"/>
        <pt x="506" y="307" on="1"/>
        <pt x="379" y="307" on="1"/>
        <pt x="391" y="382" on="1"/>
        <pt x="462" y="406" on="0"/>
        <pt x="570" y="406" on="1"/>
        <pt x="601" y="406" on="0"/>
        <pt x="637" y="404" on="1"/>
        <pt x="573" y="0" on="1"/>
        <pt x="488" y="0" on="1"/>
        <pt x="465" y="54" on="1"/>
        <pt x="439" y="29" on="0"/>
        <pt x="394" y="12" on="1"/>
        <pt x="345" y="-6" on="0"/>
        <pt x="235" y="-6" on="0"/>
        <pt x="196" y="16" on="1"/>
        <pt x="96" y="72" on="0"/>
        <pt x="96" y="253" on="1"/>
        <pt x="96" y="354" on="0"/>
        <pt x="132" y="490" on="1"/>
        <pt x="159" y="596" on="0"/>
        <pt x="201" y="649" on="1"/>
        <pt x="250" y="711" on="0"/>
        <pt x="322" y="729" on="1"/>
        <pt x="361" y="739" on="0"/>
        <pt x="413" y="739" on="0"/>
        <pt x="416" y="739" on="1"/>
        <pt x="529" y="739" on="0"/>
        <pt x="665" y="707" on="1"/>
        <pt x="651" y="617" on="1"/>
        <pt x="616" y="622" on="0"/>
        <pt x="542" y="628" on="1"/>
        <pt x="462" y="634" on="0"/>
        <pt x="389" y="634" on="0"/>
        <pt x="355" y="628" on="0"/>
        <pt x="306" y="598" on="0"/>
        <pt x="289" y="571" on="1"/>
        <pt x="247" y="505" on="0"/>
        <pt x="227" y="366" on="1"/>
        <pt x="216" y="299" on="0"/>
      </contour>
    </TTGlyph>
    <TTGlyph name="H" xMin="71" yMin="0" xMax="706" yMax="732">
      <contour>
        <pt x="71" y="0" on="1"/>
        <pt x="187" y="732" on="1"/>
        <pt x="303" y="732" on="1"/>
        <pt x="251" y="408" on="1"/>
        <pt x="538" y="408" on="1"/>
        <pt x="590" y="732" on="1"/>
        <pt x="706" y="732" on="1"/>
        <pt x="590" y="0" on="1"/>
        <pt x="474" y="0" on="1"/>
        <pt x="522" y="300" on="1"/>
        <pt x="235" y="300" on="1"/>
        <pt x="187" y="0" on="1"/>
      </contour>
    </TTGlyph>
    <TTGlyph name="Hbar" xMin="71" yMin="0" xMax="743" yMax="733">
      <contour>
        <pt x="71" y="0" on="1"/>
        <pt x="153" y="517" on="1"/>
        <pt x="91" y="517" on="1"/>
        <pt x="100" y="578" on="1"/>
        <pt x="162" y="578" on="1"/>
        <pt x="187" y="732" on="1"/>
        <pt x="303" y="732" on="1"/>
        <pt x="278" y="578" on="1"/>
        <pt x="565" y="578" on="1"/>
        <pt x="590" y="732" on="1"/>
        <pt x="706" y="732" on="1"/>
        <pt x="681" y="578" on="1"/>
        <pt x="742" y="578" on="1"/>
        <pt x="733" y="517" on="1"/>
        <pt x="672" y="517" on="1"/>
        <pt x="590" y="0" on="1"/>
        <pt x="474" y="0" on="1"/>
        <pt x="523" y="300" on="1"/>
        <pt x="236" y="300" on="1"/>
        <pt x="187" y="0" on="1"/>
      </contour>
      <contour>
        <pt x="252" y="410" on="1"/>
        <pt x="539" y="410" on="1"/>
        <pt x="556" y="517" on="1"/>
        <pt x="269" y="517" on="1"/>
      </contour>
    </TTGlyph>
    <TTGlyph name="Hcircumflex" xMin="71" yMin="0" xMax="706" yMax="931">
      <contour>
        <pt x="306" y="797" on="1"/>
        <pt x="438" y="930" on="1"/>
        <pt x="530" y="930" on="1"/>
        <pt x="608" y="797" on="1"/>
        <pt x="527" y="797" on="1"/>
        <pt x="479" y="869" on="1"/>
        <pt x="400" y="797" on="1"/>
      </contour>
      <contour>
        <pt x="71" y="0" on="1"/>
        <pt x="187" y="732" on="1"/>
        <pt x="303" y="732" on="1"/>
        <pt x="251" y="408" on="1"/>
        <pt x="538" y="408" on="1"/>
        <pt x="590" y="732" on="1"/>
        <pt x="706" y="732" on="1"/>
        <pt x="590" y="0" on="1"/>
        <pt x="474" y="0" on="1"/>
        <pt x="522" y="300" on="1"/>
        <pt x="235" y="300" on="1"/>
        <pt x="187" y="0" on="1"/>
      </contour>
    </TTGlyph>
    <TTGlyph name="I" xMin="74" yMin="0" xMax="307" yMax="732">
      <contour>
        <pt x="74" y="0" on="1"/>
        <pt x="190" y="732" on="1"/>
        <pt x="306" y="732" on="1"/>
        <pt x="190" y="0" on="1"/>
      </contour>
    </TTGlyph>
    <TTGlyph name="Iacute" xMin="74" yMin="0" xMax="448" yMax="934">
      <contour>
        <pt x="217" y="797" on="1"/>
        <pt x="335" y="934" on="1"/>
        <pt x="448" y="934" on="1"/>
        <pt x="300" y="797" on="1"/>
      </contour>
      <contour>
        <pt x="74" y="0" on="1"/>
        <pt x="190" y="732" on="1"/>
        <pt x="306" y="732" on="1"/>
        <pt x="190" y="0" on="1"/>
      </contour>
    </TTGlyph>
    <TTGlyph name="Icircumflex" xMin="74" yMin="0" xMax="410" yMax="931">
      <contour>
        <pt x="107" y="797" on="1"/>
        <pt x="240" y="930" on="1"/>
        <pt x="332" y="930" on="1"/>
        <pt x="410" y="797" on="1"/>
        <pt x="329" y="797" on="1"/>
        <pt x="281" y="869" on="1"/>
        <pt x="202" y="797" on="1"/>
      </contour>
      <contour>
        <pt x="74" y="0" on="1"/>
        <pt x="190" y="732" on="1"/>
        <pt x="306" y="732" on="1"/>
        <pt x="190" y="0" on="1"/>
      </contour>
    </TTGlyph>
    <TTGlyph name="Idieresis" xMin="74" yMin="0" xMax="452" yMax="909">
      <contour>
        <pt x="126" y="908" on="0"/>
        <pt x="172" y="908" on="0"/>
        <pt x="197" y="880" on="0"/>
        <pt x="197" y="869" on="1"/>
        <pt x="197" y="834" on="0"/>
        <pt x="155" y="797" on="0"/>
        <pt x="120" y="797" on="0"/>
        <pt x="101" y="806" on="0"/>
        <pt x="95" y="814" on="1"/>
        <pt x="81" y="830" on="0"/>
        <pt x="88" y="876" on="0"/>
      </contour>
      <contour>
        <pt x="381" y="908" on="0"/>
        <pt x="427" y="908" on="0"/>
        <pt x="452" y="880" on="0"/>
        <pt x="452" y="869" on="1"/>
        <pt x="452" y="834" on="0"/>
        <pt x="410" y="797" on="0"/>
        <pt x="375" y="797" on="0"/>
        <pt x="356" y="806" on="0"/>
        <pt x="350" y="814" on="1"/>
        <pt x="336" y="830" on="0"/>
        <pt x="343" y="876" on="0"/>
      </contour>
      <contour>
        <pt x="74" y="0" on="1"/>
        <pt x="190" y="732" on="1"/>
        <pt x="306" y="732" on="1"/>
        <pt x="190" y="0" on="1"/>
      </contour>
    </TTGlyph>
    <TTGlyph name="Idotaccent" xMin="74" yMin="0" xMax="329" yMax="913">
      <contour>
        <pt x="310" y="913" on="1"/>
        <pt x="329" y="913" on="0"/>
        <pt x="329" y="893" on="1"/>
        <pt x="329" y="891" on="0"/>
        <pt x="329" y="888" on="1"/>
        <pt x="317" y="820" on="1"/>
        <pt x="314" y="797" on="0"/>
        <pt x="291" y="797" on="1"/>
        <pt x="227" y="797" on="1"/>
        <pt x="217" y="797" on="0"/>
        <pt x="205" y="810" on="0"/>
        <pt x="206" y="820" on="1"/>
        <pt x="218" y="888" on="1"/>
        <pt x="221" y="913" on="0"/>
        <pt x="246" y="913" on="1"/>
      </contour>
      <contour>
        <pt x="74" y="0" on="1"/>
        <pt x="190" y="732" on="1"/>
        <pt x="306" y="732" on="1"/>
        <pt x="190" y="0" on="1"/>
      </contour>
    </TTGlyph>
    <TTGlyph name="Idotaccent.smcp" xMin="49" yMin="0" xMax="277" yMax="741">
      <contour>
        <pt x="49" y="0" on="1"/>
        <pt x="139" y="570" on="1"/>
        <pt x="255" y="570" on="1"/>
        <pt x="165" y="0" on="1"/>
      </contour>
      <contour>
        <pt x="257" y="741" on="1"/>
        <pt x="276" y="741" on="0"/>
        <pt x="276" y="721" on="1"/>
        <pt x="276" y="719" on="0"/>
        <pt x="276" y="716" on="1"/>
        <pt x="265" y="648" on="1"/>
        <pt x="262" y="625" on="0"/>
        <pt x="239" y="625" on="1"/>
        <pt x="175" y="625" on="1"/>
        <pt x="164" y="625" on="0"/>
        <pt x="152" y="638" on="0"/>
        <pt x="154" y="648" on="1"/>
        <pt x="165" y="716" on="1"/>
        <pt x="168" y="741" on="0"/>
        <pt x="193" y="741" on="1"/>
      </contour>
    </TTGlyph>
    <TTGlyph name="Igrave" xMin="74" yMin="0" xMax="307" yMax="934">
      <contour>
        <pt x="105" y="934" on="1"/>
        <pt x="212" y="934" on="1"/>
        <pt x="300" y="797" on="1"/>
        <pt x="217" y="797" on="1"/>
      </contour>
      <contour>
        <pt x="74" y="0" on="1"/>
        <pt x="190" y="732" on="1"/>
        <pt x="306" y="732" on="1"/>
        <pt x="190" y="0" on="1"/>
      </contour>
    </TTGlyph>
    <TTGlyph name="Imacron" xMin="43" yMin="0" xMax="378" yMax="868">
      <contour>
        <pt x="74" y="794" on="1"/>
        <pt x="86" y="867" on="1"/>
        <pt x="378" y="867" on="1"/>
        <pt x="366" y="794" on="1"/>
      </contour>
      <contour>
        <pt x="43" y="0" on="1"/>
        <pt x="159" y="732" on="1"/>
        <pt x="275" y="732" on="1"/>
        <pt x="159" y="0" on="1"/>
      </contour>
    </TTGlyph>
    <TTGlyph name="Iogonek" xMin="20" yMin="-187" xMax="307" yMax="732">
      <contour>
        <pt x="21" y="-108" on="1"/>
        <pt x="21" y="-40" on="0"/>
        <pt x="112" y="0" on="1"/>
        <pt x="161" y="0" on="1"/>
        <pt x="97" y="-45" on="0"/>
        <pt x="97" y="-81" on="1"/>
        <pt x="97" y="-114" on="0"/>
        <pt x="142" y="-114" on="1"/>
        <pt x="146" y="-114" on="0"/>
        <pt x="150" y="-114" on="1"/>
        <pt x="138" y="-184" on="1"/>
        <pt x="124" y="-187" on="0"/>
        <pt x="111" y="-187" on="1"/>
        <pt x="74" y="-187" on="0"/>
        <pt x="21" y="-140" on="0"/>
      </contour>
      <contour>
        <pt x="74" y="0" on="1"/>
        <pt x="190" y="732" on="1"/>
        <pt x="306" y="732" on="1"/>
        <pt x="190" y="0" on="1"/>
      </contour>
    </TTGlyph>
    <TTGlyph name="Itilde" xMin="74" yMin="0" xMax="441" yMax="917">
      <contour>
        <pt x="252" y="914" on="0"/>
        <pt x="311" y="881" on="0"/>
        <pt x="327" y="880" on="0"/>
        <pt x="348" y="880" on="0"/>
        <pt x="414" y="906" on="0"/>
        <pt x="426" y="916" on="1"/>
        <pt x="440" y="863" on="1"/>
        <pt x="439" y="862" on="0"/>
        <pt x="411" y="840" on="0"/>
        <pt x="403" y="834" on="0"/>
        <pt x="378" y="817" on="0"/>
        <pt x="365" y="811" on="0"/>
        <pt x="354" y="806" on="1"/>
        <pt x="310" y="785" on="0"/>
        <pt x="258" y="815" on="1"/>
        <pt x="228" y="832" on="0"/>
        <pt x="194" y="832" on="0"/>
        <pt x="167" y="825" on="0"/>
        <pt x="147" y="816" on="0"/>
        <pt x="138" y="812" on="0"/>
        <pt x="115" y="799" on="0"/>
        <pt x="111" y="797" on="1"/>
        <pt x="95" y="847" on="1"/>
        <pt x="133" y="879" on="0"/>
        <pt x="195" y="915" on="0"/>
      </contour>
      <contour>
        <pt x="74" y="0" on="1"/>
        <pt x="190" y="732" on="1"/>
        <pt x="306" y="732" on="1"/>
        <pt x="190" y="0" on="1"/>
      </contour>
    </TTGlyph>
    <TTGlyph name="J" xMin="32" yMin="-6" xMax="423" yMax="732">
      <contour>
        <pt x="33" y="22" on="1"/>
        <pt x="50" y="111" on="1"/>
        <pt x="124" y="101" on="0"/>
        <pt x="158" y="110" on="0"/>
        <pt x="187" y="122" on="0"/>
        <pt x="196" y="134" on="1"/>
        <pt x="216" y="161" on="0"/>
        <pt x="223" y="204" on="1"/>
        <pt x="307" y="732" on="1"/>
        <pt x="423" y="732" on="1"/>
        <pt x="333" y="165" on="1"/>
        <pt x="316" y="52" on="0"/>
        <pt x="257" y="18" on="1"/>
        <pt x="216" y="-5" on="0"/>
        <pt x="71" y="-5" on="0"/>
      </contour>
    </TTGlyph>
    <TTGlyph name="Jcircumflex" xMin="32" yMin="-6" xMax="527" yMax="931">
      <contour>
        <pt x="224" y="797" on="1"/>
        <pt x="356" y="930" on="1"/>
        <pt x="448" y="930" on="1"/>
        <pt x="526" y="797" on="1"/>
        <pt x="445" y="797" on="1"/>
        <pt x="397" y="869" on="1"/>
        <pt x="318" y="797" on="1"/>
      </contour>
      <contour>
        <pt x="33" y="22" on="1"/>
        <pt x="50" y="111" on="1"/>
        <pt x="124" y="101" on="0"/>
        <pt x="158" y="110" on="0"/>
        <pt x="187" y="122" on="0"/>
        <pt x="196" y="134" on="1"/>
        <pt x="216" y="161" on="0"/>
        <pt x="223" y="204" on="1"/>
        <pt x="307" y="732" on="1"/>
        <pt x="423" y="732" on="1"/>
        <pt x="333" y="165" on="1"/>
        <pt x="316" y="52" on="0"/>
        <pt x="257" y="18" on="1"/>
        <pt x="216" y="-5" on="0"/>
        <pt x="71" y="-5" on="0"/>
      </contour>
    </TTGlyph>
    <TTGlyph name="K" xMin="67" yMin="0" xMax="702" yMax="732">
      <contour>
        <pt x="68" y="0" on="1"/>
        <pt x="184" y="732" on="1"/>
        <pt x="296" y="732" on="1"/>
        <pt x="246" y="418" on="1"/>
        <pt x="313" y="418" on="1"/>
        <pt x="560" y="732" on="1"/>
        <pt x="702" y="732" on="1"/>
        <pt x="414" y="357" on="1"/>
        <pt x="586" y="0" on="1"/>
        <pt x="452" y="0" on="1"/>
        <pt x="307" y="312" on="1"/>
        <pt x="230" y="312" on="1"/>
        <pt x="181" y="0" on="1"/>
      </contour>
    </TTGlyph>
    <TTGlyph name="Kcommaaccent" xMin="67" yMin="-262" xMax="702" yMax="732">
      <contour>
        <pt x="259" y="-179" on="1"/>
        <pt x="249" y="-179" on="0"/>
        <pt x="238" y="-167" on="0"/>
        <pt x="240" y="-156" on="1"/>
        <pt x="250" y="-89" on="1"/>
        <pt x="254" y="-65" on="0"/>
        <pt x="277" y="-65" on="1"/>
        <pt x="342" y="-65" on="1"/>
        <pt x="359" y="-65" on="0"/>
        <pt x="359" y="-83" on="1"/>
        <pt x="359" y="-86" on="0"/>
        <pt x="359" y="-89" on="1"/>
        <pt x="343" y="-189" on="1"/>
        <pt x="339" y="-215" on="0"/>
        <pt x="326" y="-232" on="1"/>
        <pt x="302" y="-261" on="0"/>
        <pt x="253" y="-261" on="1"/>
        <pt x="245" y="-261" on="0"/>
        <pt x="238" y="-260" on="1"/>
        <pt x="228" y="-258" on="1"/>
        <pt x="234" y="-220" on="1"/>
        <pt x="259" y="-221" on="0"/>
        <pt x="264" y="-202" on="1"/>
        <pt x="265" y="-199" on="0"/>
        <pt x="266" y="-195" on="1"/>
        <pt x="268" y="-179" on="1"/>
      </contour>
      <contour>
        <pt x="68" y="0" on="1"/>
        <pt x="184" y="732" on="1"/>
        <pt x="296" y="732" on="1"/>
        <pt x="246" y="418" on="1"/>
        <pt x="313" y="418" on="1"/>
        <pt x="560" y="732" on="1"/>
        <pt x="702" y="732" on="1"/>
        <pt x="414" y="357" on="1"/>
        <pt x="586" y="0" on="1"/>
        <pt x="452" y="0" on="1"/>
        <pt x="307" y="312" on="1"/>
        <pt x="230" y="312" on="1"/>
        <pt x="181" y="0" on="1"/>
      </contour>
    </TTGlyph>
    <TTGlyph name="L" xMin="85" yMin="0" xMax="535" yMax="732">
      <contour>
        <pt x="263" y="109" on="1"/>
        <pt x="534" y="109" on="1"/>
        <pt x="517" y="0" on="1"/>
        <pt x="213" y="0" on="1"/>
        <pt x="150" y="0" on="0"/>
        <pt x="86" y="58" on="0"/>
        <pt x="86" y="105" on="1"/>
        <pt x="86" y="120" on="0"/>
        <pt x="88" y="136" on="1"/>
        <pt x="184" y="732" on="1"/>
        <pt x="299" y="732" on="1"/>
        <pt x="208" y="161" on="1"/>
        <pt x="203" y="123" on="0"/>
        <pt x="223" y="115" on="1"/>
        <pt x="237" y="109" on="0"/>
      </contour>
    </TTGlyph>
    <TTGlyph name="Lacute" xMin="31" yMin="0" xMax="480" yMax="929">
      <contour>
        <pt x="153" y="792" on="1"/>
        <pt x="271" y="928" on="1"/>
        <pt x="384" y="928" on="1"/>
        <pt x="236" y="792" on="1"/>
      </contour>
      <contour>
        <pt x="208" y="109" on="1"/>
        <pt x="479" y="109" on="1"/>
        <pt x="462" y="0" on="1"/>
        <pt x="159" y="0" on="1"/>
        <pt x="96" y="0" on="0"/>
        <pt x="31" y="58" on="0"/>
        <pt x="31" y="105" on="1"/>
        <pt x="31" y="120" on="0"/>
        <pt x="34" y="136" on="1"/>
        <pt x="129" y="732" on="1"/>
        <pt x="245" y="732" on="1"/>
        <pt x="154" y="161" on="1"/>
        <pt x="148" y="123" on="0"/>
        <pt x="168" y="115" on="1"/>
        <pt x="183" y="109" on="0"/>
      </contour>
    </TTGlyph>
    <TTGlyph name="Lcaron" xMin="85" yMin="0" xMax="534" yMax="772">
      <contour>
        <pt x="263" y="109" on="1"/>
        <pt x="534" y="109" on="1"/>
        <pt x="517" y="0" on="1"/>
        <pt x="213" y="0" on="1"/>
        <pt x="150" y="0" on="0"/>
        <pt x="86" y="58" on="0"/>
        <pt x="86" y="105" on="1"/>
        <pt x="86" y="120" on="0"/>
        <pt x="88" y="136" on="1"/>
        <pt x="184" y="732" on="1"/>
        <pt x="299" y="732" on="1"/>
        <pt x="208" y="161" on="1"/>
        <pt x="203" y="123" on="0"/>
        <pt x="223" y="115" on="1"/>
        <pt x="237" y="109" on="0"/>
      </contour>
      <contour>
        <pt x="349" y="571" on="1"/>
        <pt x="359" y="705" on="1"/>
        <pt x="370" y="772" on="1"/>
        <pt x="458" y="772" on="1"/>
        <pt x="447" y="705" on="1"/>
        <pt x="416" y="571" on="1"/>
      </contour>
    </TTGlyph>
    <TTGlyph name="Lcommaaccent" xMin="85" yMin="-262" xMax="534" yMax="732">
      <contour>
        <pt x="248" y="-179" on="1"/>
        <pt x="238" y="-179" on="0"/>
        <pt x="227" y="-167" on="0"/>
        <pt x="229" y="-156" on="1"/>
        <pt x="240" y="-89" on="1"/>
        <pt x="244" y="-65" on="0"/>
        <pt x="266" y="-65" on="1"/>
        <pt x="331" y="-65" on="1"/>
        <pt x="349" y="-65" on="0"/>
        <pt x="349" y="-83" on="1"/>
        <pt x="349" y="-86" on="0"/>
        <pt x="349" y="-89" on="1"/>
        <pt x="333" y="-189" on="1"/>
        <pt x="329" y="-215" on="0"/>
        <pt x="315" y="-232" on="1"/>
        <pt x="292" y="-261" on="0"/>
        <pt x="242" y="-261" on="1"/>
        <pt x="234" y="-261" on="0"/>
        <pt x="228" y="-260" on="1"/>
        <pt x="218" y="-258" on="1"/>
        <pt x="224" y="-220" on="1"/>
        <pt x="236" y="-220" on="0"/>
        <pt x="243" y="-216" on="1"/>
        <pt x="253" y="-210" on="0"/>
        <pt x="255" y="-195" on="1"/>
        <pt x="258" y="-179" on="1"/>
      </contour>
      <contour>
        <pt x="263" y="109" on="1"/>
        <pt x="534" y="109" on="1"/>
        <pt x="517" y="0" on="1"/>
        <pt x="213" y="0" on="1"/>
        <pt x="150" y="0" on="0"/>
        <pt x="86" y="58" on="0"/>
        <pt x="86" y="105" on="1"/>
        <pt x="86" y="120" on="0"/>
        <pt x="88" y="136" on="1"/>
        <pt x="184" y="732" on="1"/>
        <pt x="299" y="732" on="1"/>
        <pt x="208" y="161" on="1"/>
        <pt x="203" y="123" on="0"/>
        <pt x="223" y="115" on="1"/>
        <pt x="237" y="109" on="0"/>
      </contour>
    </TTGlyph>
    <TTGlyph name="Lslash" xMin="34" yMin="0" xMax="534" yMax="732">
      <contour>
        <pt x="261" y="109" on="1"/>
        <pt x="533" y="109" on="1"/>
        <pt x="516" y="0" on="1"/>
        <pt x="213" y="0" on="1"/>
        <pt x="150" y="0" on="0"/>
        <pt x="85" y="58" on="0"/>
        <pt x="85" y="106" on="1"/>
        <pt x="85" y="120" on="0"/>
        <pt x="88" y="136" on="1"/>
        <pt x="121" y="345" on="1"/>
        <pt x="35" y="311" on="1"/>
        <pt x="46" y="379" on="1"/>
        <pt x="132" y="413" on="1"/>
        <pt x="182" y="732" on="1"/>
        <pt x="298" y="732" on="1"/>
        <pt x="255" y="463" on="1"/>
        <pt x="386" y="515" on="1"/>
        <pt x="374" y="448" on="1"/>
        <pt x="245" y="395" on="1"/>
        <pt x="207" y="161" on="1"/>
        <pt x="202" y="123" on="0"/>
        <pt x="221" y="115" on="1"/>
        <pt x="236" y="109" on="0"/>
      </contour>
    </TTGlyph>
    <TTGlyph name="M" xMin="57" yMin="0" xMax="847" yMax="732">
      <contour>
        <pt x="57" y="0" on="1"/>
        <pt x="232" y="732" on="1"/>
        <pt x="388" y="732" on="1"/>
        <pt x="454" y="192" on="1"/>
        <pt x="685" y="732" on="1"/>
        <pt x="847" y="732" on="1"/>
        <pt x="795" y="0" on="1"/>
        <pt x="680" y="0" on="1"/>
        <pt x="721" y="529" on="1"/>
        <pt x="491" y="0" on="1"/>
        <pt x="363" y="0" on="1"/>
        <pt x="298" y="528" on="1"/>
        <pt x="174" y="0" on="1"/>
      </contour>
    </TTGlyph>
    <TTGlyph name="M.salt" xMin="46" yMin="-1" xMax="849" yMax="736">
      <contour>
        <pt x="190" y="671" on="0"/>
        <pt x="244" y="723" on="0"/>
        <pt x="297" y="733" on="0"/>
        <pt x="314" y="733" on="1"/>
        <pt x="373" y="733" on="0"/>
        <pt x="425" y="672" on="0"/>
        <pt x="425" y="631" on="1"/>
        <pt x="450" y="294" on="1"/>
        <pt x="451" y="281" on="0"/>
        <pt x="473" y="282" on="0"/>
        <pt x="477" y="294" on="1"/>
        <pt x="601" y="646" on="1"/>
        <pt x="612" y="683" on="0"/>
        <pt x="643" y="707" on="1"/>
        <pt x="680" y="736" on="0"/>
        <pt x="732" y="736" on="1"/>
        <pt x="755" y="736" on="0"/>
        <pt x="810" y="723" on="0"/>
        <pt x="849" y="674" on="0"/>
        <pt x="849" y="644" on="1"/>
        <pt x="849" y="640" on="0"/>
        <pt x="848" y="635" on="1"/>
        <pt x="793" y="0" on="1"/>
        <pt x="675" y="0" on="1"/>
        <pt x="730" y="594" on="1"/>
        <pt x="732" y="607" on="0"/>
        <pt x="720" y="608" on="1"/>
        <pt x="707" y="607" on="0"/>
        <pt x="703" y="597" on="1"/>
        <pt x="577" y="252" on="1"/>
        <pt x="567" y="221" on="0"/>
        <pt x="513" y="178" on="0"/>
        <pt x="465" y="171" on="0"/>
        <pt x="433" y="171" on="0"/>
        <pt x="385" y="180" on="0"/>
        <pt x="342" y="229" on="0"/>
        <pt x="341" y="265" on="1"/>
        <pt x="315" y="597" on="1"/>
        <pt x="315" y="605" on="0"/>
        <pt x="303" y="611" on="0"/>
        <pt x="290" y="603" on="0"/>
        <pt x="288" y="593" on="1"/>
        <pt x="162" y="0" on="1"/>
        <pt x="47" y="0" on="1"/>
        <pt x="183" y="634" on="1"/>
      </contour>
    </TTGlyph>
    <TTGlyph name="N" xMin="67" yMin="0" xMax="731" yMax="732">
      <contour>
        <pt x="68" y="0" on="1"/>
        <pt x="184" y="732" on="1"/>
        <pt x="299" y="732" on="1"/>
        <pt x="533" y="213" on="1"/>
        <pt x="615" y="732" on="1"/>
        <pt x="731" y="732" on="1"/>
        <pt x="615" y="0" on="1"/>
        <pt x="501" y="0" on="1"/>
        <pt x="266" y="515" on="1"/>
        <pt x="185" y="0" on="1"/>
      </contour>
    </TTGlyph>
    <TTGlyph name="N.salt" xMin="67" yMin="-6" xMax="764" yMax="737">
      <contour>
        <pt x="171" y="668" on="0"/>
        <pt x="225" y="725" on="0"/>
        <pt x="281" y="737" on="0"/>
        <pt x="299" y="737" on="1"/>
        <pt x="358" y="737" on="0"/>
        <pt x="416" y="682" on="0"/>
        <pt x="419" y="646" on="1"/>
        <pt x="526" y="120" on="1"/>
        <pt x="528" y="105" on="0"/>
        <pt x="548" y="108" on="0"/>
        <pt x="551" y="123" on="1"/>
        <pt x="648" y="732" on="1"/>
        <pt x="764" y="732" on="1"/>
        <pt x="667" y="106" on="1"/>
        <pt x="662" y="71" on="0"/>
        <pt x="642" y="45" on="1"/>
        <pt x="601" y="-6" on="0"/>
        <pt x="533" y="-6" on="1"/>
        <pt x="470" y="-6" on="0"/>
        <pt x="435" y="41" on="1"/>
        <pt x="416" y="67" on="0"/>
        <pt x="412" y="103" on="1"/>
        <pt x="308" y="623" on="1"/>
        <pt x="306" y="636" on="0"/>
        <pt x="284" y="627" on="0"/>
        <pt x="282" y="616" on="1"/>
        <pt x="184" y="0" on="1"/>
        <pt x="68" y="0" on="1"/>
        <pt x="165" y="626" on="1"/>
      </contour>
    </TTGlyph>
    <TTGlyph name="Nacute" xMin="67" yMin="0" xMax="731" yMax="934">
      <contour>
        <pt x="426" y="797" on="1"/>
        <pt x="544" y="934" on="1"/>
        <pt x="657" y="934" on="1"/>
        <pt x="509" y="797" on="1"/>
      </contour>
      <contour>
        <pt x="68" y="0" on="1"/>
        <pt x="184" y="732" on="1"/>
        <pt x="299" y="732" on="1"/>
        <pt x="533" y="213" on="1"/>
        <pt x="615" y="732" on="1"/>
        <pt x="731" y="732" on="1"/>
        <pt x="615" y="0" on="1"/>
        <pt x="501" y="0" on="1"/>
        <pt x="266" y="515" on="1"/>
        <pt x="185" y="0" on="1"/>
      </contour>
    </TTGlyph>
    <TTGlyph name="Nacute.salt" xMin="67" yMin="-6" xMax="764" yMax="935">
      <contour>
        <pt x="460" y="798" on="1"/>
        <pt x="578" y="935" on="1"/>
        <pt x="691" y="935" on="1"/>
        <pt x="543" y="798" on="1"/>
      </contour>
      <contour>
        <pt x="171" y="668" on="0"/>
        <pt x="225" y="725" on="0"/>
        <pt x="281" y="737" on="0"/>
        <pt x="299" y="737" on="1"/>
        <pt x="358" y="737" on="0"/>
        <pt x="416" y="682" on="0"/>
        <pt x="420" y="646" on="1"/>
        <pt x="526" y="120" on="1"/>
        <pt x="528" y="105" on="0"/>
        <pt x="548" y="108" on="0"/>
        <pt x="551" y="123" on="1"/>
        <pt x="648" y="732" on="1"/>
        <pt x="764" y="732" on="1"/>
        <pt x="667" y="106" on="1"/>
        <pt x="661" y="65" on="0"/>
        <pt x="607" y="7" on="0"/>
        <pt x="552" y="-5" on="0"/>
        <pt x="535" y="-5" on="1"/>
        <pt x="476" y="-5" on="0"/>
        <pt x="416" y="60" on="0"/>
        <pt x="412" y="103" on="1"/>
        <pt x="308" y="623" on="1"/>
        <pt x="306" y="636" on="0"/>
        <pt x="284" y="627" on="0"/>
        <pt x="282" y="616" on="1"/>
        <pt x="184" y="0" on="1"/>
        <pt x="68" y="0" on="1"/>
        <pt x="165" y="626" on="1"/>
      </contour>
    </TTGlyph>
    <TTGlyph name="Ncaron" xMin="67" yMin="0" xMax="731" yMax="931">
      <contour>
        <pt x="338" y="930" on="1"/>
        <pt x="419" y="930" on="1"/>
        <pt x="468" y="859" on="1"/>
        <pt x="545" y="930" on="1"/>
        <pt x="640" y="930" on="1"/>
        <pt x="508" y="797" on="1"/>
        <pt x="417" y="797" on="1"/>
      </contour>
      <contour>
        <pt x="68" y="0" on="1"/>
        <pt x="184" y="732" on="1"/>
        <pt x="299" y="732" on="1"/>
        <pt x="533" y="213" on="1"/>
        <pt x="615" y="732" on="1"/>
        <pt x="731" y="732" on="1"/>
        <pt x="615" y="0" on="1"/>
        <pt x="501" y="0" on="1"/>
        <pt x="266" y="515" on="1"/>
        <pt x="185" y="0" on="1"/>
      </contour>
    </TTGlyph>
    <TTGlyph name="Ncaron.salt" xMin="67" yMin="-6" xMax="764" yMax="932">
      <contour>
        <pt x="369" y="932" on="1"/>
        <pt x="451" y="932" on="1"/>
        <pt x="500" y="860" on="1"/>
        <pt x="577" y="932" on="1"/>
        <pt x="672" y="932" on="1"/>
        <pt x="540" y="798" on="1"/>
        <pt x="449" y="798" on="1"/>
      </contour>
      <contour>
        <pt x="171" y="668" on="0"/>
        <pt x="225" y="725" on="0"/>
        <pt x="281" y="737" on="0"/>
        <pt x="299" y="737" on="1"/>
        <pt x="358" y="737" on="0"/>
        <pt x="416" y="682" on="0"/>
        <pt x="420" y="646" on="1"/>
        <pt x="526" y="120" on="1"/>
        <pt x="528" y="105" on="0"/>
        <pt x="548" y="108" on="0"/>
        <pt x="551" y="123" on="1"/>
        <pt x="648" y="732" on="1"/>
        <pt x="764" y="732" on="1"/>
        <pt x="667" y="106" on="1"/>
        <pt x="661" y="65" on="0"/>
        <pt x="607" y="7" on="0"/>
        <pt x="552" y="-5" on="0"/>
        <pt x="535" y="-5" on="1"/>
        <pt x="476" y="-5" on="0"/>
        <pt x="416" y="60" on="0"/>
        <pt x="412" y="103" on="1"/>
        <pt x="308" y="623" on="1"/>
        <pt x="306" y="636" on="0"/>
        <pt x="284" y="627" on="0"/>
        <pt x="282" y="616" on="1"/>
        <pt x="184" y="0" on="1"/>
        <pt x="68" y="0" on="1"/>
        <pt x="165" y="626" on="1"/>
      </contour>
    </TTGlyph>
    <TTGlyph name="Ncommaaccent" xMin="67" yMin="-262" xMax="731" yMax="732">
      <contour>
        <pt x="297" y="-179" on="1"/>
        <pt x="287" y="-179" on="0"/>
        <pt x="276" y="-167" on="0"/>
        <pt x="278" y="-156" on="1"/>
        <pt x="289" y="-89" on="1"/>
        <pt x="293" y="-65" on="0"/>
        <pt x="315" y="-65" on="1"/>
        <pt x="380" y="-65" on="1"/>
        <pt x="398" y="-65" on="0"/>
        <pt x="398" y="-83" on="1"/>
        <pt x="398" y="-86" on="0"/>
        <pt x="398" y="-89" on="1"/>
        <pt x="382" y="-189" on="1"/>
        <pt x="378" y="-215" on="0"/>
        <pt x="364" y="-232" on="1"/>
        <pt x="341" y="-261" on="0"/>
        <pt x="291" y="-261" on="1"/>
        <pt x="283" y="-261" on="0"/>
        <pt x="277" y="-260" on="1"/>
        <pt x="267" y="-258" on="1"/>
        <pt x="273" y="-220" on="1"/>
        <pt x="285" y="-220" on="0"/>
        <pt x="292" y="-216" on="1"/>
        <pt x="302" y="-210" on="0"/>
        <pt x="304" y="-195" on="1"/>
        <pt x="307" y="-179" on="1"/>
      </contour>
      <contour>
        <pt x="68" y="0" on="1"/>
        <pt x="184" y="732" on="1"/>
        <pt x="299" y="732" on="1"/>
        <pt x="533" y="213" on="1"/>
        <pt x="615" y="732" on="1"/>
        <pt x="731" y="732" on="1"/>
        <pt x="615" y="0" on="1"/>
        <pt x="501" y="0" on="1"/>
        <pt x="266" y="515" on="1"/>
        <pt x="185" y="0" on="1"/>
      </contour>
    </TTGlyph>
    <TTGlyph name="Ncommaaccent.salt" xMin="67" yMin="-279" xMax="764" yMax="737">
      <contour>
        <pt x="304" y="-193" on="1"/>
        <pt x="293" y="-193" on="0"/>
        <pt x="282" y="-181" on="0"/>
        <pt x="284" y="-169" on="1"/>
        <pt x="295" y="-99" on="1"/>
        <pt x="299" y="-74" on="0"/>
        <pt x="323" y="-74" on="1"/>
        <pt x="390" y="-74" on="1"/>
        <pt x="409" y="-74" on="0"/>
        <pt x="409" y="-93" on="1"/>
        <pt x="409" y="-96" on="0"/>
        <pt x="408" y="-99" on="1"/>
        <pt x="392" y="-203" on="1"/>
        <pt x="387" y="-230" on="0"/>
        <pt x="373" y="-248" on="1"/>
        <pt x="349" y="-278" on="0"/>
        <pt x="298" y="-278" on="1"/>
        <pt x="289" y="-278" on="0"/>
        <pt x="283" y="-277" on="1"/>
        <pt x="272" y="-275" on="1"/>
        <pt x="278" y="-235" on="1"/>
        <pt x="291" y="-236" on="0"/>
        <pt x="307" y="-226" on="0"/>
        <pt x="310" y="-217" on="0"/>
        <pt x="311" y="-209" on="1"/>
        <pt x="314" y="-193" on="1"/>
      </contour>
      <contour>
        <pt x="171" y="668" on="0"/>
        <pt x="225" y="725" on="0"/>
        <pt x="281" y="737" on="0"/>
        <pt x="299" y="737" on="1"/>
        <pt x="358" y="737" on="0"/>
        <pt x="416" y="682" on="0"/>
        <pt x="420" y="646" on="1"/>
        <pt x="526" y="120" on="1"/>
        <pt x="528" y="105" on="0"/>
        <pt x="548" y="108" on="0"/>
        <pt x="551" y="123" on="1"/>
        <pt x="648" y="732" on="1"/>
        <pt x="764" y="732" on="1"/>
        <pt x="667" y="106" on="1"/>
        <pt x="661" y="65" on="0"/>
        <pt x="607" y="7" on="0"/>
        <pt x="552" y="-5" on="0"/>
        <pt x="535" y="-5" on="1"/>
        <pt x="476" y="-5" on="0"/>
        <pt x="416" y="60" on="0"/>
        <pt x="412" y="103" on="1"/>
        <pt x="308" y="623" on="1"/>
        <pt x="306" y="636" on="0"/>
        <pt x="284" y="627" on="0"/>
        <pt x="282" y="616" on="1"/>
        <pt x="184" y="0" on="1"/>
        <pt x="68" y="0" on="1"/>
        <pt x="165" y="626" on="1"/>
      </contour>
    </TTGlyph>
    <TTGlyph name="Ntilde" xMin="67" yMin="0" xMax="731" yMax="914">
      <contour>
        <pt x="486" y="894" on="1"/>
        <pt x="516" y="877" on="0"/>
        <pt x="531" y="877" on="0"/>
        <pt x="545" y="877" on="0"/>
        <pt x="567" y="884" on="1"/>
        <pt x="611" y="898" on="0"/>
        <pt x="630" y="913" on="1"/>
        <pt x="645" y="860" on="1"/>
        <pt x="643" y="858" on="0"/>
        <pt x="615" y="837" on="0"/>
        <pt x="607" y="831" on="0"/>
        <pt x="583" y="813" on="0"/>
        <pt x="569" y="807" on="0"/>
        <pt x="558" y="802" on="1"/>
        <pt x="514" y="782" on="0"/>
        <pt x="462" y="812" on="1"/>
        <pt x="432" y="829" on="0"/>
        <pt x="398" y="829" on="0"/>
        <pt x="371" y="822" on="0"/>
        <pt x="351" y="813" on="0"/>
        <pt x="342" y="808" on="0"/>
        <pt x="319" y="796" on="0"/>
        <pt x="315" y="794" on="1"/>
        <pt x="300" y="844" on="1"/>
        <pt x="359" y="894" on="0"/>
        <pt x="396" y="906" on="1"/>
        <pt x="439" y="919" on="0"/>
      </contour>
      <contour>
        <pt x="68" y="0" on="1"/>
        <pt x="184" y="732" on="1"/>
        <pt x="299" y="732" on="1"/>
        <pt x="533" y="213" on="1"/>
        <pt x="615" y="732" on="1"/>
        <pt x="731" y="732" on="1"/>
        <pt x="615" y="0" on="1"/>
        <pt x="501" y="0" on="1"/>
        <pt x="266" y="515" on="1"/>
        <pt x="185" y="0" on="1"/>
      </contour>
    </TTGlyph>
    <TTGlyph name="Ntilde.salt" xMin="67" yMin="-6" xMax="764" yMax="917">
      <contour>
        <pt x="482" y="897" on="1"/>
        <pt x="512" y="881" on="0"/>
        <pt x="528" y="880" on="0"/>
        <pt x="542" y="880" on="0"/>
        <pt x="563" y="887" on="1"/>
        <pt x="608" y="901" on="0"/>
        <pt x="627" y="916" on="1"/>
        <pt x="641" y="863" on="1"/>
        <pt x="640" y="862" on="0"/>
        <pt x="612" y="840" on="0"/>
        <pt x="604" y="834" on="0"/>
        <pt x="579" y="817" on="0"/>
        <pt x="566" y="811" on="0"/>
        <pt x="555" y="806" on="1"/>
        <pt x="511" y="785" on="0"/>
        <pt x="459" y="815" on="1"/>
        <pt x="429" y="832" on="0"/>
        <pt x="412" y="832" on="1"/>
        <pt x="381" y="832" on="0"/>
        <pt x="343" y="814" on="0"/>
        <pt x="334" y="809" on="0"/>
        <pt x="316" y="799" on="0"/>
        <pt x="312" y="797" on="1"/>
        <pt x="296" y="847" on="1"/>
        <pt x="356" y="897" on="0"/>
        <pt x="393" y="909" on="1"/>
        <pt x="436" y="923" on="0"/>
      </contour>
      <contour>
        <pt x="171" y="668" on="0"/>
        <pt x="225" y="725" on="0"/>
        <pt x="281" y="737" on="0"/>
        <pt x="299" y="737" on="1"/>
        <pt x="358" y="737" on="0"/>
        <pt x="416" y="682" on="0"/>
        <pt x="420" y="646" on="1"/>
        <pt x="526" y="120" on="1"/>
        <pt x="528" y="105" on="0"/>
        <pt x="548" y="108" on="0"/>
        <pt x="551" y="123" on="1"/>
        <pt x="648" y="732" on="1"/>
        <pt x="764" y="732" on="1"/>
        <pt x="667" y="106" on="1"/>
        <pt x="661" y="65" on="0"/>
        <pt x="607" y="7" on="0"/>
        <pt x="552" y="-5" on="0"/>
        <pt x="535" y="-5" on="1"/>
        <pt x="476" y="-5" on="0"/>
        <pt x="416" y="60" on="0"/>
        <pt x="412" y="103" on="1"/>
        <pt x="308" y="623" on="1"/>
        <pt x="306" y="636" on="0"/>
        <pt x="284" y="627" on="0"/>
        <pt x="282" y="616" on="1"/>
        <pt x="184" y="0" on="1"/>
        <pt x="68" y="0" on="1"/>
        <pt x="165" y="626" on="1"/>
      </contour>
    </TTGlyph>
    <TTGlyph name="O" xMin="95" yMin="-4" xMax="700" yMax="737">
      <contour>
        <pt x="372" y="734" on="0"/>
        <pt x="418" y="737" on="0"/>
        <pt x="491" y="737" on="0"/>
        <pt x="552" y="730" on="0"/>
        <pt x="613" y="709" on="0"/>
        <pt x="633" y="691" on="1"/>
        <pt x="681" y="650" on="0"/>
        <pt x="694" y="575" on="1"/>
        <pt x="700" y="541" on="0"/>
        <pt x="700" y="487" on="0"/>
        <pt x="698" y="423" on="0"/>
        <pt x="677" y="284" on="0"/>
        <pt x="647" y="178" on="0"/>
        <pt x="612" y="103" on="0"/>
        <pt x="563" y="50" on="0"/>
        <pt x="515" y="19" on="0"/>
        <pt x="482" y="10" on="1"/>
        <pt x="427" y="-4" on="0"/>
        <pt x="307" y="-4" on="0"/>
        <pt x="247" y="2" on="0"/>
        <pt x="185" y="22" on="0"/>
        <pt x="165" y="38" on="1"/>
        <pt x="116" y="77" on="0"/>
        <pt x="102" y="150" on="1"/>
        <pt x="96" y="185" on="0"/>
        <pt x="96" y="238" on="0"/>
        <pt x="97" y="300" on="0"/>
        <pt x="117" y="426" on="0"/>
        <pt x="140" y="519" on="0"/>
        <pt x="165" y="590" on="0"/>
        <pt x="200" y="645" on="0"/>
        <pt x="232" y="683" on="0"/>
        <pt x="277" y="710" on="0"/>
        <pt x="317" y="726" on="0"/>
      </contour>
      <contour>
        <pt x="254" y="498" on="1"/>
        <pt x="212" y="356" on="0"/>
        <pt x="212" y="221" on="1"/>
        <pt x="212" y="156" on="0"/>
        <pt x="243" y="131" on="1"/>
        <pt x="263" y="116" on="0"/>
        <pt x="315" y="105" on="0"/>
        <pt x="406" y="105" on="0"/>
        <pt x="470" y="124" on="0"/>
        <pt x="497" y="152" on="1"/>
        <pt x="547" y="202" on="0"/>
        <pt x="572" y="361" on="1"/>
        <pt x="584" y="439" on="0"/>
        <pt x="584" y="512" on="0"/>
        <pt x="581" y="553" on="0"/>
        <pt x="562" y="592" on="0"/>
        <pt x="542" y="614" on="0"/>
        <pt x="522" y="619" on="1"/>
        <pt x="492" y="628" on="0"/>
        <pt x="417" y="628" on="0"/>
        <pt x="389" y="627" on="0"/>
        <pt x="352" y="621" on="0"/>
        <pt x="329" y="611" on="0"/>
        <pt x="301" y="592" on="0"/>
        <pt x="292" y="578" on="1"/>
        <pt x="266" y="539" on="0"/>
      </contour>
    </TTGlyph>
    <TTGlyph name="OE" xMin="81" yMin="-4" xMax="1079" yMax="738">
      <contour>
        <pt x="457" y="737" on="1"/>
        <pt x="581" y="737" on="0"/>
        <pt x="632" y="671" on="1"/>
        <pt x="668" y="732" on="0"/>
        <pt x="753" y="732" on="1"/>
        <pt x="760" y="732" on="0"/>
        <pt x="1038" y="722" on="0"/>
        <pt x="1078" y="716" on="1"/>
        <pt x="1063" y="621" on="1"/>
        <pt x="771" y="621" on="1"/>
        <pt x="738" y="621" on="0"/>
        <pt x="714" y="591" on="0"/>
        <pt x="710" y="565" on="1"/>
        <pt x="687" y="421" on="1"/>
        <pt x="986" y="411" on="1"/>
        <pt x="972" y="316" on="1"/>
        <pt x="669" y="307" on="1"/>
        <pt x="646" y="160" on="1"/>
        <pt x="640" y="122" on="0"/>
        <pt x="660" y="114" on="1"/>
        <pt x="674" y="108" on="0"/>
        <pt x="700" y="108" on="1"/>
        <pt x="982" y="108" on="1"/>
        <pt x="967" y="14" on="1"/>
        <pt x="934" y="10" on="0"/>
        <pt x="730" y="0" on="1"/>
        <pt x="661" y="-3" on="1"/>
        <pt x="656" y="-3" on="0"/>
        <pt x="621" y="-3" on="0"/>
        <pt x="561" y="23" on="0"/>
        <pt x="545" y="53" on="1"/>
        <pt x="506" y="19" on="0"/>
        <pt x="404" y="-4" on="0"/>
        <pt x="292" y="-4" on="0"/>
        <pt x="233" y="2" on="0"/>
        <pt x="171" y="22" on="0"/>
        <pt x="150" y="38" on="1"/>
        <pt x="101" y="77" on="0"/>
        <pt x="88" y="150" on="1"/>
        <pt x="81" y="185" on="0"/>
        <pt x="81" y="238" on="0"/>
        <pt x="82" y="300" on="0"/>
        <pt x="101" y="421" on="0"/>
        <pt x="121" y="506" on="0"/>
        <pt x="145" y="573" on="0"/>
        <pt x="171" y="627" on="0"/>
        <pt x="204" y="667" on="0"/>
        <pt x="236" y="697" on="0"/>
        <pt x="278" y="716" on="0"/>
        <pt x="315" y="729" on="0"/>
        <pt x="340" y="732" on="1"/>
        <pt x="381" y="737" on="0"/>
      </contour>
      <contour>
        <pt x="239" y="498" on="1"/>
        <pt x="197" y="356" on="0"/>
        <pt x="197" y="221" on="1"/>
        <pt x="197" y="156" on="0"/>
        <pt x="229" y="131" on="1"/>
        <pt x="248" y="116" on="0"/>
        <pt x="300" y="105" on="0"/>
        <pt x="391" y="105" on="0"/>
        <pt x="455" y="124" on="0"/>
        <pt x="482" y="152" on="1"/>
        <pt x="532" y="202" on="0"/>
        <pt x="557" y="361" on="1"/>
        <pt x="570" y="441" on="0"/>
        <pt x="570" y="524" on="0"/>
        <pt x="561" y="563" on="0"/>
        <pt x="551" y="591" on="0"/>
        <pt x="529" y="610" on="0"/>
        <pt x="509" y="621" on="0"/>
        <pt x="492" y="624" on="1"/>
        <pt x="466" y="628" on="0"/>
        <pt x="403" y="628" on="0"/>
        <pt x="374" y="627" on="0"/>
        <pt x="338" y="621" on="0"/>
        <pt x="315" y="611" on="0"/>
        <pt x="287" y="592" on="0"/>
        <pt x="277" y="578" on="1"/>
        <pt x="251" y="539" on="0"/>
      </contour>
    </TTGlyph>
    <TTGlyph name="Oacute" xMin="95" yMin="-5" xMax="700" yMax="934">
      <contour>
        <pt x="419" y="797" on="1"/>
        <pt x="537" y="934" on="1"/>
        <pt x="650" y="934" on="1"/>
        <pt x="502" y="797" on="1"/>
      </contour>
      <contour>
        <pt x="372" y="734" on="0"/>
        <pt x="418" y="737" on="0"/>
        <pt x="491" y="737" on="0"/>
        <pt x="552" y="730" on="0"/>
        <pt x="613" y="709" on="0"/>
        <pt x="633" y="691" on="1"/>
        <pt x="681" y="650" on="0"/>
        <pt x="694" y="575" on="1"/>
        <pt x="700" y="541" on="0"/>
        <pt x="700" y="487" on="0"/>
        <pt x="698" y="423" on="0"/>
        <pt x="677" y="284" on="0"/>
        <pt x="647" y="178" on="0"/>
        <pt x="612" y="103" on="0"/>
        <pt x="563" y="50" on="0"/>
        <pt x="515" y="19" on="0"/>
        <pt x="482" y="10" on="1"/>
        <pt x="427" y="-4" on="0"/>
        <pt x="307" y="-4" on="0"/>
        <pt x="247" y="2" on="0"/>
        <pt x="185" y="22" on="0"/>
        <pt x="165" y="38" on="1"/>
        <pt x="116" y="77" on="0"/>
        <pt x="102" y="150" on="1"/>
        <pt x="96" y="185" on="0"/>
        <pt x="96" y="238" on="0"/>
        <pt x="97" y="300" on="0"/>
        <pt x="117" y="426" on="0"/>
        <pt x="140" y="519" on="0"/>
        <pt x="165" y="590" on="0"/>
        <pt x="200" y="645" on="0"/>
        <pt x="232" y="683" on="0"/>
        <pt x="277" y="710" on="0"/>
        <pt x="317" y="726" on="0"/>
      </contour>
      <contour>
        <pt x="254" y="498" on="1"/>
        <pt x="212" y="356" on="0"/>
        <pt x="212" y="221" on="1"/>
        <pt x="212" y="156" on="0"/>
        <pt x="243" y="131" on="1"/>
        <pt x="263" y="116" on="0"/>
        <pt x="315" y="105" on="0"/>
        <pt x="406" y="105" on="0"/>
        <pt x="470" y="124" on="0"/>
        <pt x="497" y="152" on="1"/>
        <pt x="547" y="202" on="0"/>
        <pt x="572" y="361" on="1"/>
        <pt x="584" y="441" on="0"/>
        <pt x="584" y="524" on="0"/>
        <pt x="576" y="563" on="0"/>
        <pt x="565" y="591" on="0"/>
        <pt x="543" y="610" on="0"/>
        <pt x="523" y="621" on="0"/>
        <pt x="506" y="624" on="1"/>
        <pt x="481" y="628" on="0"/>
        <pt x="417" y="628" on="0"/>
        <pt x="389" y="627" on="0"/>
        <pt x="352" y="621" on="0"/>
        <pt x="329" y="611" on="0"/>
        <pt x="301" y="592" on="0"/>
        <pt x="292" y="578" on="1"/>
        <pt x="266" y="539" on="0"/>
      </contour>
    </TTGlyph>
    <TTGlyph name="Ocircumflex" xMin="95" yMin="-5" xMax="700" yMax="931">
      <contour>
        <pt x="309" y="797" on="1"/>
        <pt x="442" y="930" on="1"/>
        <pt x="534" y="930" on="1"/>
        <pt x="612" y="797" on="1"/>
        <pt x="531" y="797" on="1"/>
        <pt x="483" y="869" on="1"/>
        <pt x="404" y="797" on="1"/>
      </contour>
      <contour>
        <pt x="372" y="734" on="0"/>
        <pt x="418" y="737" on="0"/>
        <pt x="491" y="737" on="0"/>
        <pt x="552" y="730" on="0"/>
        <pt x="613" y="709" on="0"/>
        <pt x="633" y="691" on="1"/>
        <pt x="681" y="650" on="0"/>
        <pt x="694" y="575" on="1"/>
        <pt x="700" y="541" on="0"/>
        <pt x="700" y="487" on="0"/>
        <pt x="698" y="423" on="0"/>
        <pt x="677" y="284" on="0"/>
        <pt x="647" y="178" on="0"/>
        <pt x="612" y="103" on="0"/>
        <pt x="563" y="50" on="0"/>
        <pt x="515" y="19" on="0"/>
        <pt x="482" y="10" on="1"/>
        <pt x="427" y="-4" on="0"/>
        <pt x="307" y="-4" on="0"/>
        <pt x="247" y="2" on="0"/>
        <pt x="185" y="22" on="0"/>
        <pt x="165" y="38" on="1"/>
        <pt x="116" y="77" on="0"/>
        <pt x="102" y="150" on="1"/>
        <pt x="96" y="185" on="0"/>
        <pt x="96" y="238" on="0"/>
        <pt x="97" y="300" on="0"/>
        <pt x="117" y="426" on="0"/>
        <pt x="140" y="519" on="0"/>
        <pt x="165" y="590" on="0"/>
        <pt x="200" y="645" on="0"/>
        <pt x="232" y="683" on="0"/>
        <pt x="277" y="710" on="0"/>
        <pt x="317" y="726" on="0"/>
      </contour>
      <contour>
        <pt x="254" y="498" on="1"/>
        <pt x="212" y="356" on="0"/>
        <pt x="212" y="221" on="1"/>
        <pt x="212" y="156" on="0"/>
        <pt x="243" y="131" on="1"/>
        <pt x="263" y="116" on="0"/>
        <pt x="315" y="105" on="0"/>
        <pt x="406" y="105" on="0"/>
        <pt x="470" y="124" on="0"/>
        <pt x="497" y="152" on="1"/>
        <pt x="547" y="202" on="0"/>
        <pt x="572" y="361" on="1"/>
        <pt x="584" y="441" on="0"/>
        <pt x="584" y="524" on="0"/>
        <pt x="576" y="563" on="0"/>
        <pt x="565" y="591" on="0"/>
        <pt x="543" y="610" on="0"/>
        <pt x="523" y="621" on="0"/>
        <pt x="506" y="624" on="1"/>
        <pt x="481" y="628" on="0"/>
        <pt x="417" y="628" on="0"/>
        <pt x="389" y="627" on="0"/>
        <pt x="352" y="621" on="0"/>
        <pt x="329" y="611" on="0"/>
        <pt x="301" y="592" on="0"/>
        <pt x="292" y="578" on="1"/>
        <pt x="266" y="539" on="0"/>
      </contour>
    </TTGlyph>
    <TTGlyph name="Odieresis" xMin="95" yMin="-5" xMax="700" yMax="909">
      <contour>
        <pt x="328" y="908" on="0"/>
        <pt x="374" y="908" on="0"/>
        <pt x="399" y="880" on="0"/>
        <pt x="399" y="869" on="1"/>
        <pt x="399" y="834" on="0"/>
        <pt x="357" y="797" on="0"/>
        <pt x="322" y="797" on="0"/>
        <pt x="303" y="806" on="0"/>
        <pt x="297" y="814" on="1"/>
        <pt x="283" y="830" on="0"/>
        <pt x="290" y="876" on="0"/>
      </contour>
      <contour>
        <pt x="583" y="908" on="0"/>
        <pt x="629" y="908" on="0"/>
        <pt x="654" y="880" on="0"/>
        <pt x="654" y="869" on="1"/>
        <pt x="654" y="834" on="0"/>
        <pt x="612" y="797" on="0"/>
        <pt x="577" y="797" on="0"/>
        <pt x="558" y="806" on="0"/>
        <pt x="552" y="814" on="1"/>
        <pt x="538" y="830" on="0"/>
        <pt x="545" y="876" on="0"/>
      </contour>
      <contour>
        <pt x="372" y="734" on="0"/>
        <pt x="418" y="737" on="0"/>
        <pt x="491" y="737" on="0"/>
        <pt x="552" y="730" on="0"/>
        <pt x="613" y="709" on="0"/>
        <pt x="633" y="691" on="1"/>
        <pt x="681" y="650" on="0"/>
        <pt x="694" y="575" on="1"/>
        <pt x="700" y="541" on="0"/>
        <pt x="700" y="487" on="0"/>
        <pt x="698" y="423" on="0"/>
        <pt x="677" y="284" on="0"/>
        <pt x="647" y="178" on="0"/>
        <pt x="612" y="103" on="0"/>
        <pt x="563" y="50" on="0"/>
        <pt x="515" y="19" on="0"/>
        <pt x="482" y="10" on="1"/>
        <pt x="427" y="-4" on="0"/>
        <pt x="307" y="-4" on="0"/>
        <pt x="247" y="2" on="0"/>
        <pt x="185" y="22" on="0"/>
        <pt x="165" y="38" on="1"/>
        <pt x="116" y="77" on="0"/>
        <pt x="102" y="150" on="1"/>
        <pt x="96" y="185" on="0"/>
        <pt x="96" y="238" on="0"/>
        <pt x="97" y="300" on="0"/>
        <pt x="117" y="426" on="0"/>
        <pt x="140" y="519" on="0"/>
        <pt x="165" y="590" on="0"/>
        <pt x="200" y="645" on="0"/>
        <pt x="232" y="683" on="0"/>
        <pt x="277" y="710" on="0"/>
        <pt x="317" y="726" on="0"/>
      </contour>
      <contour>
        <pt x="254" y="498" on="1"/>
        <pt x="212" y="356" on="0"/>
        <pt x="212" y="221" on="1"/>
        <pt x="212" y="156" on="0"/>
        <pt x="243" y="131" on="1"/>
        <pt x="263" y="116" on="0"/>
        <pt x="315" y="105" on="0"/>
        <pt x="406" y="105" on="0"/>
        <pt x="470" y="124" on="0"/>
        <pt x="497" y="152" on="1"/>
        <pt x="547" y="202" on="0"/>
        <pt x="572" y="361" on="1"/>
        <pt x="584" y="441" on="0"/>
        <pt x="584" y="524" on="0"/>
        <pt x="576" y="563" on="0"/>
        <pt x="565" y="591" on="0"/>
        <pt x="543" y="610" on="0"/>
        <pt x="523" y="621" on="0"/>
        <pt x="506" y="624" on="1"/>
        <pt x="481" y="628" on="0"/>
        <pt x="417" y="628" on="0"/>
        <pt x="389" y="627" on="0"/>
        <pt x="352" y="621" on="0"/>
        <pt x="329" y="611" on="0"/>
        <pt x="301" y="592" on="0"/>
        <pt x="292" y="578" on="1"/>
        <pt x="266" y="539" on="0"/>
      </contour>
    </TTGlyph>
    <TTGlyph name="Ograve" xMin="95" yMin="-5" xMax="700" yMax="934">
      <contour>
        <pt x="307" y="934" on="1"/>
        <pt x="414" y="934" on="1"/>
        <pt x="502" y="797" on="1"/>
        <pt x="419" y="797" on="1"/>
      </contour>
      <contour>
        <pt x="372" y="734" on="0"/>
        <pt x="418" y="737" on="0"/>
        <pt x="491" y="737" on="0"/>
        <pt x="552" y="730" on="0"/>
        <pt x="613" y="709" on="0"/>
        <pt x="633" y="691" on="1"/>
        <pt x="681" y="650" on="0"/>
        <pt x="694" y="575" on="1"/>
        <pt x="700" y="541" on="0"/>
        <pt x="700" y="487" on="0"/>
        <pt x="698" y="423" on="0"/>
        <pt x="677" y="284" on="0"/>
        <pt x="647" y="178" on="0"/>
        <pt x="612" y="103" on="0"/>
        <pt x="563" y="50" on="0"/>
        <pt x="515" y="19" on="0"/>
        <pt x="482" y="10" on="1"/>
        <pt x="427" y="-4" on="0"/>
        <pt x="307" y="-4" on="0"/>
        <pt x="247" y="2" on="0"/>
        <pt x="185" y="22" on="0"/>
        <pt x="165" y="38" on="1"/>
        <pt x="116" y="77" on="0"/>
        <pt x="102" y="150" on="1"/>
        <pt x="96" y="185" on="0"/>
        <pt x="96" y="238" on="0"/>
        <pt x="97" y="300" on="0"/>
        <pt x="117" y="426" on="0"/>
        <pt x="140" y="519" on="0"/>
        <pt x="165" y="590" on="0"/>
        <pt x="200" y="645" on="0"/>
        <pt x="232" y="683" on="0"/>
        <pt x="277" y="710" on="0"/>
        <pt x="317" y="726" on="0"/>
      </contour>
      <contour>
        <pt x="254" y="498" on="1"/>
        <pt x="212" y="356" on="0"/>
        <pt x="212" y="221" on="1"/>
        <pt x="212" y="156" on="0"/>
        <pt x="243" y="131" on="1"/>
        <pt x="263" y="116" on="0"/>
        <pt x="315" y="105" on="0"/>
        <pt x="406" y="105" on="0"/>
        <pt x="470" y="124" on="0"/>
        <pt x="497" y="152" on="1"/>
        <pt x="547" y="202" on="0"/>
        <pt x="572" y="361" on="1"/>
        <pt x="584" y="441" on="0"/>
        <pt x="584" y="524" on="0"/>
        <pt x="576" y="563" on="0"/>
        <pt x="565" y="591" on="0"/>
        <pt x="543" y="610" on="0"/>
        <pt x="523" y="621" on="0"/>
        <pt x="506" y="624" on="1"/>
        <pt x="481" y="628" on="0"/>
        <pt x="417" y="628" on="0"/>
        <pt x="389" y="627" on="0"/>
        <pt x="352" y="621" on="0"/>
        <pt x="329" y="611" on="0"/>
        <pt x="301" y="592" on="0"/>
        <pt x="292" y="578" on="1"/>
        <pt x="266" y="539" on="0"/>
      </contour>
    </TTGlyph>
    <TTGlyph name="Ohungarumlaut" xMin="95" yMin="-5" xMax="724" yMax="934">
      <contour>
        <pt x="345" y="797" on="1"/>
        <pt x="463" y="934" on="1"/>
        <pt x="576" y="934" on="1"/>
        <pt x="428" y="797" on="1"/>
      </contour>
      <contour>
        <pt x="493" y="797" on="1"/>
        <pt x="611" y="934" on="1"/>
        <pt x="724" y="934" on="1"/>
        <pt x="576" y="797" on="1"/>
      </contour>
      <contour>
        <pt x="372" y="734" on="0"/>
        <pt x="418" y="737" on="0"/>
        <pt x="491" y="737" on="0"/>
        <pt x="552" y="730" on="0"/>
        <pt x="613" y="709" on="0"/>
        <pt x="633" y="691" on="1"/>
        <pt x="681" y="650" on="0"/>
        <pt x="694" y="575" on="1"/>
        <pt x="700" y="541" on="0"/>
        <pt x="700" y="487" on="0"/>
        <pt x="698" y="423" on="0"/>
        <pt x="677" y="284" on="0"/>
        <pt x="647" y="178" on="0"/>
        <pt x="612" y="103" on="0"/>
        <pt x="563" y="50" on="0"/>
        <pt x="515" y="19" on="0"/>
        <pt x="482" y="10" on="1"/>
        <pt x="427" y="-4" on="0"/>
        <pt x="307" y="-4" on="0"/>
        <pt x="247" y="2" on="0"/>
        <pt x="185" y="22" on="0"/>
        <pt x="165" y="38" on="1"/>
        <pt x="116" y="77" on="0"/>
        <pt x="102" y="150" on="1"/>
        <pt x="96" y="185" on="0"/>
        <pt x="96" y="238" on="0"/>
        <pt x="97" y="300" on="0"/>
        <pt x="117" y="426" on="0"/>
        <pt x="140" y="519" on="0"/>
        <pt x="165" y="590" on="0"/>
        <pt x="200" y="645" on="0"/>
        <pt x="232" y="683" on="0"/>
        <pt x="277" y="710" on="0"/>
        <pt x="317" y="726" on="0"/>
      </contour>
      <contour>
        <pt x="254" y="498" on="1"/>
        <pt x="212" y="356" on="0"/>
        <pt x="212" y="221" on="1"/>
        <pt x="212" y="156" on="0"/>
        <pt x="243" y="131" on="1"/>
        <pt x="263" y="116" on="0"/>
        <pt x="315" y="105" on="0"/>
        <pt x="406" y="105" on="0"/>
        <pt x="470" y="124" on="0"/>
        <pt x="497" y="152" on="1"/>
        <pt x="547" y="202" on="0"/>
        <pt x="572" y="361" on="1"/>
        <pt x="584" y="441" on="0"/>
        <pt x="584" y="524" on="0"/>
        <pt x="576" y="563" on="0"/>
        <pt x="565" y="591" on="0"/>
        <pt x="543" y="610" on="0"/>
        <pt x="523" y="621" on="0"/>
        <pt x="506" y="624" on="1"/>
        <pt x="481" y="628" on="0"/>
        <pt x="417" y="628" on="0"/>
        <pt x="389" y="627" on="0"/>
        <pt x="352" y="621" on="0"/>
        <pt x="329" y="611" on="0"/>
        <pt x="301" y="592" on="0"/>
        <pt x="292" y="578" on="1"/>
        <pt x="266" y="539" on="0"/>
      </contour>
    </TTGlyph>
    <TTGlyph name="Omacron" xMin="95" yMin="-5" xMax="700" yMax="868">
      <contour>
        <pt x="319" y="794" on="1"/>
        <pt x="331" y="867" on="1"/>
        <pt x="623" y="867" on="1"/>
        <pt x="611" y="794" on="1"/>
      </contour>
      <contour>
        <pt x="372" y="734" on="0"/>
        <pt x="418" y="737" on="0"/>
        <pt x="491" y="737" on="0"/>
        <pt x="552" y="730" on="0"/>
        <pt x="613" y="709" on="0"/>
        <pt x="633" y="691" on="1"/>
        <pt x="681" y="650" on="0"/>
        <pt x="694" y="575" on="1"/>
        <pt x="700" y="541" on="0"/>
        <pt x="700" y="487" on="0"/>
        <pt x="698" y="423" on="0"/>
        <pt x="677" y="284" on="0"/>
        <pt x="647" y="178" on="0"/>
        <pt x="612" y="103" on="0"/>
        <pt x="563" y="50" on="0"/>
        <pt x="515" y="19" on="0"/>
        <pt x="482" y="10" on="1"/>
        <pt x="427" y="-4" on="0"/>
        <pt x="307" y="-4" on="0"/>
        <pt x="247" y="2" on="0"/>
        <pt x="185" y="22" on="0"/>
        <pt x="165" y="38" on="1"/>
        <pt x="116" y="77" on="0"/>
        <pt x="102" y="150" on="1"/>
        <pt x="96" y="185" on="0"/>
        <pt x="96" y="238" on="0"/>
        <pt x="97" y="300" on="0"/>
        <pt x="117" y="426" on="0"/>
        <pt x="140" y="519" on="0"/>
        <pt x="165" y="590" on="0"/>
        <pt x="200" y="645" on="0"/>
        <pt x="232" y="683" on="0"/>
        <pt x="277" y="710" on="0"/>
        <pt x="317" y="726" on="0"/>
      </contour>
      <contour>
        <pt x="254" y="498" on="1"/>
        <pt x="212" y="356" on="0"/>
        <pt x="212" y="221" on="1"/>
        <pt x="212" y="156" on="0"/>
        <pt x="243" y="131" on="1"/>
        <pt x="263" y="116" on="0"/>
        <pt x="315" y="105" on="0"/>
        <pt x="406" y="105" on="0"/>
        <pt x="470" y="124" on="0"/>
        <pt x="497" y="152" on="1"/>
        <pt x="547" y="202" on="0"/>
        <pt x="572" y="361" on="1"/>
        <pt x="584" y="441" on="0"/>
        <pt x="584" y="524" on="0"/>
        <pt x="576" y="563" on="0"/>
        <pt x="565" y="591" on="0"/>
        <pt x="543" y="610" on="0"/>
        <pt x="523" y="621" on="0"/>
        <pt x="506" y="624" on="1"/>
        <pt x="481" y="628" on="0"/>
        <pt x="417" y="628" on="0"/>
        <pt x="389" y="627" on="0"/>
        <pt x="352" y="621" on="0"/>
        <pt x="329" y="611" on="0"/>
        <pt x="301" y="592" on="0"/>
        <pt x="292" y="578" on="1"/>
        <pt x="266" y="539" on="0"/>
      </contour>
    </TTGlyph>
    <TTGlyph name="Omega" xMin="60" yMin="0" xMax="777" yMax="739">
      <contour>
        <pt x="109" y="314" on="1"/>
        <pt x="109" y="406" on="0"/>
        <pt x="143" y="499" on="1"/>
        <pt x="158" y="544" on="0"/>
        <pt x="219" y="634" on="0"/>
        <pt x="300" y="698" on="0"/>
        <pt x="423" y="739" on="0"/>
        <pt x="567" y="739" on="0"/>
        <pt x="672" y="701" on="0"/>
        <pt x="704" y="667" on="1"/>
        <pt x="776" y="591" on="0"/>
        <pt x="776" y="473" on="1"/>
        <pt x="776" y="431" on="0"/>
        <pt x="771" y="386" on="1"/>
        <pt x="755" y="288" on="0"/>
        <pt x="691" y="161" on="0"/>
        <pt x="617" y="108" on="1"/>
        <pt x="730" y="98" on="1"/>
        <pt x="714" y="0" on="1"/>
        <pt x="472" y="0" on="1"/>
        <pt x="490" y="110" on="1"/>
        <pt x="568" y="160" on="0"/>
        <pt x="601" y="215" on="1"/>
        <pt x="637" y="274" on="0"/>
        <pt x="654" y="385" on="1"/>
        <pt x="660" y="423" on="0"/>
        <pt x="660" y="456" on="1"/>
        <pt x="660" y="630" on="0"/>
        <pt x="484" y="630" on="1"/>
        <pt x="424" y="630" on="0"/>
        <pt x="330" y="587" on="0"/>
        <pt x="301" y="550" on="1"/>
        <pt x="246" y="479" on="0"/>
        <pt x="231" y="380" on="1"/>
        <pt x="221" y="320" on="0"/>
        <pt x="221" y="277" on="0"/>
        <pt x="224" y="234" on="0"/>
        <pt x="234" y="212" on="1"/>
        <pt x="257" y="162" on="0"/>
        <pt x="313" y="110" on="1"/>
        <pt x="295" y="0" on="1"/>
        <pt x="61" y="0" on="1"/>
        <pt x="77" y="99" on="1"/>
        <pt x="198" y="109" on="1"/>
        <pt x="109" y="179" on="0"/>
      </contour>
    </TTGlyph>
    <TTGlyph name="Oslash" xMin="52" yMin="-5" xMax="728" yMax="738">
      <contour>
        <pt x="121" y="83" on="1"/>
        <pt x="92" y="136" on="0"/>
        <pt x="92" y="291" on="0"/>
        <pt x="114" y="428" on="0"/>
        <pt x="138" y="521" on="0"/>
        <pt x="163" y="591" on="0"/>
        <pt x="197" y="646" on="0"/>
        <pt x="230" y="684" on="0"/>
        <pt x="275" y="711" on="0"/>
        <pt x="315" y="726" on="0"/>
        <pt x="342" y="730" on="1"/>
        <pt x="386" y="737" on="0"/>
        <pt x="449" y="737" on="1"/>
        <pt x="575" y="737" on="0"/>
        <pt x="628" y="696" on="1"/>
        <pt x="657" y="732" on="1"/>
        <pt x="727" y="732" on="1"/>
        <pt x="665" y="657" on="1"/>
        <pt x="698" y="602" on="0"/>
        <pt x="698" y="498" on="1"/>
        <pt x="698" y="434" on="0"/>
        <pt x="675" y="282" on="0"/>
        <pt x="644" y="176" on="0"/>
        <pt x="609" y="102" on="0"/>
        <pt x="561" y="49" on="0"/>
        <pt x="513" y="18" on="0"/>
        <pt x="479" y="10" on="1"/>
        <pt x="425" y="-4" on="0"/>
        <pt x="279" y="-4" on="0"/>
        <pt x="187" y="14" on="0"/>
        <pt x="156" y="41" on="1"/>
        <pt x="122" y="0" on="1"/>
        <pt x="52" y="0" on="1"/>
      </contour>
      <contour>
        <pt x="243" y="472" on="0"/>
        <pt x="228" y="404" on="0"/>
        <pt x="211" y="296" on="0"/>
        <pt x="211" y="218" on="0"/>
        <pt x="217" y="196" on="1"/>
        <pt x="549" y="604" on="1"/>
        <pt x="532" y="619" on="0"/>
        <pt x="480" y="628" on="0"/>
        <pt x="415" y="628" on="0"/>
        <pt x="386" y="627" on="0"/>
        <pt x="350" y="621" on="0"/>
        <pt x="327" y="611" on="0"/>
        <pt x="299" y="592" on="0"/>
        <pt x="280" y="564" on="0"/>
        <pt x="259" y="525" on="0"/>
      </contour>
      <contour>
        <pt x="355" y="105" on="1"/>
        <pt x="404" y="105" on="0"/>
        <pt x="468" y="124" on="0"/>
        <pt x="495" y="152" on="1"/>
        <pt x="544" y="202" on="0"/>
        <pt x="569" y="361" on="1"/>
        <pt x="581" y="436" on="0"/>
        <pt x="581" y="525" on="0"/>
        <pt x="574" y="550" on="1"/>
        <pt x="237" y="137" on="1"/>
        <pt x="266" y="105" on="0"/>
      </contour>
    </TTGlyph>
    <TTGlyph name="Otilde" xMin="95" yMin="-5" xMax="700" yMax="917">
      <contour>
        <pt x="484" y="897" on="0"/>
        <pt x="514" y="881" on="0"/>
        <pt x="529" y="880" on="0"/>
        <pt x="550" y="880" on="0"/>
        <pt x="615" y="906" on="0"/>
        <pt x="628" y="916" on="1"/>
        <pt x="642" y="863" on="1"/>
        <pt x="640" y="862" on="0"/>
        <pt x="613" y="840" on="0"/>
        <pt x="605" y="834" on="0"/>
        <pt x="580" y="817" on="0"/>
        <pt x="567" y="811" on="0"/>
        <pt x="556" y="806" on="1"/>
        <pt x="512" y="785" on="0"/>
        <pt x="459" y="815" on="1"/>
        <pt x="430" y="832" on="0"/>
        <pt x="396" y="832" on="0"/>
        <pt x="368" y="825" on="0"/>
        <pt x="348" y="816" on="0"/>
        <pt x="340" y="812" on="0"/>
        <pt x="316" y="799" on="0"/>
        <pt x="312" y="797" on="1"/>
        <pt x="297" y="847" on="1"/>
        <pt x="340" y="883" on="0"/>
        <pt x="374" y="901" on="0"/>
        <pt x="390" y="908" on="0"/>
        <pt x="397" y="910" on="1"/>
        <pt x="433" y="921" on="0"/>
      </contour>
      <contour>
        <pt x="372" y="734" on="0"/>
        <pt x="418" y="737" on="0"/>
        <pt x="491" y="737" on="0"/>
        <pt x="552" y="730" on="0"/>
        <pt x="613" y="709" on="0"/>
        <pt x="633" y="691" on="1"/>
        <pt x="681" y="650" on="0"/>
        <pt x="694" y="575" on="1"/>
        <pt x="700" y="541" on="0"/>
        <pt x="700" y="487" on="0"/>
        <pt x="698" y="423" on="0"/>
        <pt x="677" y="284" on="0"/>
        <pt x="647" y="178" on="0"/>
        <pt x="612" y="103" on="0"/>
        <pt x="563" y="50" on="0"/>
        <pt x="515" y="19" on="0"/>
        <pt x="482" y="10" on="1"/>
        <pt x="427" y="-4" on="0"/>
        <pt x="307" y="-4" on="0"/>
        <pt x="247" y="2" on="0"/>
        <pt x="185" y="22" on="0"/>
        <pt x="165" y="38" on="1"/>
        <pt x="116" y="77" on="0"/>
        <pt x="102" y="150" on="1"/>
        <pt x="96" y="185" on="0"/>
        <pt x="96" y="238" on="0"/>
        <pt x="97" y="300" on="0"/>
        <pt x="117" y="426" on="0"/>
        <pt x="140" y="519" on="0"/>
        <pt x="165" y="590" on="0"/>
        <pt x="200" y="645" on="0"/>
        <pt x="232" y="683" on="0"/>
        <pt x="277" y="710" on="0"/>
        <pt x="317" y="726" on="0"/>
      </contour>
      <contour>
        <pt x="254" y="498" on="1"/>
        <pt x="212" y="356" on="0"/>
        <pt x="212" y="221" on="1"/>
        <pt x="212" y="156" on="0"/>
        <pt x="243" y="131" on="1"/>
        <pt x="263" y="116" on="0"/>
        <pt x="315" y="105" on="0"/>
        <pt x="406" y="105" on="0"/>
        <pt x="470" y="124" on="0"/>
        <pt x="497" y="152" on="1"/>
        <pt x="547" y="202" on="0"/>
        <pt x="572" y="361" on="1"/>
        <pt x="584" y="441" on="0"/>
        <pt x="584" y="524" on="0"/>
        <pt x="576" y="563" on="0"/>
        <pt x="565" y="591" on="0"/>
        <pt x="543" y="610" on="0"/>
        <pt x="523" y="621" on="0"/>
        <pt x="506" y="624" on="1"/>
        <pt x="481" y="628" on="0"/>
        <pt x="417" y="628" on="0"/>
        <pt x="389" y="627" on="0"/>
        <pt x="352" y="621" on="0"/>
        <pt x="329" y="611" on="0"/>
        <pt x="301" y="592" on="0"/>
        <pt x="292" y="578" on="1"/>
        <pt x="266" y="539" on="0"/>
      </contour>
    </TTGlyph>
    <TTGlyph name="P" xMin="64" yMin="0" xMax="649" yMax="732">
      <contour>
        <pt x="459" y="280" on="1"/>
        <pt x="428" y="281" on="1"/>
        <pt x="421" y="281" on="0"/>
        <pt x="386" y="281" on="0"/>
        <pt x="232" y="296" on="0"/>
        <pt x="228" y="299" on="1"/>
        <pt x="180" y="0" on="1"/>
        <pt x="64" y="0" on="1"/>
        <pt x="180" y="732" on="1"/>
        <pt x="486" y="732" on="1"/>
        <pt x="559" y="732" on="0"/>
        <pt x="607" y="685" on="1"/>
        <pt x="649" y="645" on="0"/>
        <pt x="649" y="558" on="1"/>
        <pt x="649" y="488" on="0"/>
        <pt x="613" y="380" on="0"/>
        <pt x="583" y="334" on="0"/>
        <pt x="547" y="301" on="0"/>
        <pt x="528" y="294" on="1"/>
        <pt x="487" y="280" on="0"/>
      </contour>
      <contour>
        <pt x="527" y="510" on="1"/>
        <pt x="531" y="530" on="0"/>
        <pt x="531" y="554" on="0"/>
        <pt x="527" y="583" on="0"/>
        <pt x="517" y="608" on="0"/>
        <pt x="506" y="614" on="1"/>
        <pt x="488" y="626" on="0"/>
        <pt x="462" y="626" on="1"/>
        <pt x="279" y="626" on="1"/>
        <pt x="241" y="386" on="1"/>
        <pt x="424" y="386" on="1"/>
        <pt x="464" y="386" on="0"/>
        <pt x="516" y="438" on="0"/>
      </contour>
    </TTGlyph>
    <TTGlyph name="Q" xMin="98" yMin="-167" xMax="703" yMax="737">
      <contour>
        <pt x="375" y="735" on="0"/>
        <pt x="421" y="737" on="0"/>
        <pt x="493" y="737" on="0"/>
        <pt x="555" y="729" on="0"/>
        <pt x="615" y="708" on="0"/>
        <pt x="636" y="690" on="1"/>
        <pt x="683" y="649" on="0"/>
        <pt x="696" y="574" on="1"/>
        <pt x="702" y="539" on="0"/>
        <pt x="702" y="485" on="0"/>
        <pt x="701" y="421" on="0"/>
        <pt x="680" y="282" on="0"/>
        <pt x="649" y="176" on="0"/>
        <pt x="614" y="102" on="0"/>
        <pt x="565" y="49" on="0"/>
        <pt x="518" y="19" on="0"/>
        <pt x="484" y="10" on="1"/>
        <pt x="430" y="-4" on="0"/>
        <pt x="309" y="-4" on="0"/>
        <pt x="250" y="2" on="0"/>
        <pt x="188" y="22" on="0"/>
        <pt x="167" y="39" on="1"/>
        <pt x="118" y="78" on="0"/>
        <pt x="105" y="151" on="1"/>
        <pt x="98" y="186" on="0"/>
        <pt x="98" y="240" on="0"/>
        <pt x="99" y="301" on="0"/>
        <pt x="119" y="428" on="0"/>
        <pt x="142" y="521" on="0"/>
        <pt x="168" y="591" on="0"/>
        <pt x="202" y="646" on="0"/>
        <pt x="235" y="684" on="0"/>
        <pt x="280" y="711" on="0"/>
        <pt x="319" y="726" on="0"/>
      </contour>
      <contour>
        <pt x="242" y="446" on="1"/>
        <pt x="214" y="320" on="0"/>
        <pt x="214" y="221" on="1"/>
        <pt x="214" y="156" on="0"/>
        <pt x="246" y="131" on="1"/>
        <pt x="265" y="116" on="0"/>
        <pt x="317" y="105" on="0"/>
        <pt x="409" y="105" on="0"/>
        <pt x="472" y="124" on="0"/>
        <pt x="499" y="152" on="1"/>
        <pt x="549" y="202" on="0"/>
        <pt x="574" y="361" on="1"/>
        <pt x="587" y="441" on="0"/>
        <pt x="587" y="524" on="0"/>
        <pt x="578" y="563" on="0"/>
        <pt x="568" y="591" on="0"/>
        <pt x="546" y="610" on="0"/>
        <pt x="526" y="621" on="0"/>
        <pt x="509" y="624" on="1"/>
        <pt x="483" y="628" on="0"/>
        <pt x="417" y="628" on="0"/>
        <pt x="385" y="626" on="0"/>
        <pt x="345" y="619" on="0"/>
        <pt x="321" y="604" on="0"/>
        <pt x="291" y="578" on="0"/>
        <pt x="281" y="558" on="1"/>
        <pt x="256" y="507" on="0"/>
      </contour>
      <contour>
        <pt x="452" y="-71" on="1"/>
        <pt x="485" y="-71" on="0"/>
        <pt x="529" y="-58" on="1"/>
        <pt x="513" y="-159" on="1"/>
        <pt x="483" y="-167" on="0"/>
        <pt x="423" y="-167" on="0"/>
        <pt x="394" y="-159" on="1"/>
        <pt x="331" y="-141" on="0"/>
        <pt x="309" y="-94" on="1"/>
        <pt x="298" y="-71" on="0"/>
        <pt x="298" y="-38" on="0"/>
        <pt x="299" y="-33" on="1"/>
        <pt x="368" y="-33" on="1"/>
        <pt x="394" y="-71" on="0"/>
      </contour>
    </TTGlyph>
    <TTGlyph name="R" xMin="64" yMin="0" xMax="647" yMax="732">
      <contour>
        <pt x="490" y="732" on="1"/>
        <pt x="572" y="732" on="0"/>
        <pt x="615" y="676" on="1"/>
        <pt x="647" y="634" on="0"/>
        <pt x="647" y="557" on="1"/>
        <pt x="647" y="471" on="0"/>
        <pt x="605" y="367" on="0"/>
        <pt x="574" y="327" on="0"/>
        <pt x="528" y="301" on="0"/>
        <pt x="505" y="295" on="0"/>
        <pt x="490" y="293" on="1"/>
        <pt x="594" y="0" on="1"/>
        <pt x="464" y="0" on="1"/>
        <pt x="374" y="285" on="1"/>
        <pt x="227" y="296" on="1"/>
        <pt x="180" y="0" on="1"/>
        <pt x="64" y="0" on="1"/>
        <pt x="180" y="732" on="1"/>
      </contour>
      <contour>
        <pt x="424" y="388" on="1"/>
        <pt x="528" y="388" on="0"/>
        <pt x="528" y="548" on="1"/>
        <pt x="528" y="586" on="0"/>
        <pt x="519" y="602" on="1"/>
        <pt x="504" y="626" on="0"/>
        <pt x="465" y="626" on="1"/>
        <pt x="280" y="626" on="1"/>
        <pt x="243" y="388" on="1"/>
      </contour>
    </TTGlyph>
    <TTGlyph name="Racute" xMin="59" yMin="0" xMax="643" yMax="932">
      <contour>
        <pt x="372" y="795" on="1"/>
        <pt x="490" y="932" on="1"/>
        <pt x="603" y="932" on="1"/>
        <pt x="455" y="795" on="1"/>
      </contour>
      <contour>
        <pt x="486" y="732" on="1"/>
        <pt x="568" y="732" on="0"/>
        <pt x="611" y="676" on="1"/>
        <pt x="643" y="634" on="0"/>
        <pt x="643" y="557" on="1"/>
        <pt x="643" y="471" on="0"/>
        <pt x="601" y="367" on="0"/>
        <pt x="569" y="327" on="0"/>
        <pt x="524" y="301" on="0"/>
        <pt x="501" y="295" on="0"/>
        <pt x="485" y="293" on="1"/>
        <pt x="590" y="0" on="1"/>
        <pt x="460" y="0" on="1"/>
        <pt x="369" y="285" on="1"/>
        <pt x="223" y="296" on="1"/>
        <pt x="176" y="0" on="1"/>
        <pt x="60" y="0" on="1"/>
        <pt x="176" y="732" on="1"/>
      </contour>
      <contour>
        <pt x="420" y="388" on="1"/>
        <pt x="524" y="388" on="0"/>
        <pt x="524" y="548" on="1"/>
        <pt x="524" y="586" on="0"/>
        <pt x="514" y="602" on="1"/>
        <pt x="500" y="626" on="0"/>
        <pt x="461" y="626" on="1"/>
        <pt x="276" y="626" on="1"/>
        <pt x="238" y="388" on="1"/>
      </contour>
    </TTGlyph>
    <TTGlyph name="Rcaron" xMin="64" yMin="0" xMax="647" yMax="931">
      <contour>
        <pt x="294" y="930" on="1"/>
        <pt x="375" y="930" on="1"/>
        <pt x="424" y="859" on="1"/>
        <pt x="501" y="930" on="1"/>
        <pt x="596" y="930" on="1"/>
        <pt x="464" y="797" on="1"/>
        <pt x="373" y="797" on="1"/>
      </contour>
      <contour>
        <pt x="490" y="732" on="1"/>
        <pt x="572" y="732" on="0"/>
        <pt x="615" y="676" on="1"/>
        <pt x="647" y="634" on="0"/>
        <pt x="647" y="557" on="1"/>
        <pt x="647" y="471" on="0"/>
        <pt x="605" y="367" on="0"/>
        <pt x="574" y="327" on="0"/>
        <pt x="528" y="301" on="0"/>
        <pt x="505" y="295" on="0"/>
        <pt x="490" y="293" on="1"/>
        <pt x="594" y="0" on="1"/>
        <pt x="464" y="0" on="1"/>
        <pt x="374" y="285" on="1"/>
        <pt x="227" y="296" on="1"/>
        <pt x="180" y="0" on="1"/>
        <pt x="64" y="0" on="1"/>
        <pt x="180" y="732" on="1"/>
      </contour>
      <contour>
        <pt x="424" y="388" on="1"/>
        <pt x="528" y="388" on="0"/>
        <pt x="528" y="548" on="1"/>
        <pt x="528" y="586" on="0"/>
        <pt x="519" y="602" on="1"/>
        <pt x="504" y="626" on="0"/>
        <pt x="465" y="626" on="1"/>
        <pt x="280" y="626" on="1"/>
        <pt x="243" y="388" on="1"/>
      </contour>
    </TTGlyph>
    <TTGlyph name="Rcommaaccent" xMin="64" yMin="-262" xMax="647" yMax="732">
      <contour>
        <pt x="269" y="-179" on="1"/>
        <pt x="259" y="-179" on="0"/>
        <pt x="248" y="-167" on="0"/>
        <pt x="250" y="-156" on="1"/>
        <pt x="260" y="-89" on="1"/>
        <pt x="265" y="-65" on="0"/>
        <pt x="287" y="-65" on="1"/>
        <pt x="352" y="-65" on="1"/>
        <pt x="370" y="-65" on="0"/>
        <pt x="370" y="-83" on="1"/>
        <pt x="370" y="-86" on="0"/>
        <pt x="369" y="-89" on="1"/>
        <pt x="354" y="-189" on="1"/>
        <pt x="349" y="-215" on="0"/>
        <pt x="336" y="-232" on="1"/>
        <pt x="313" y="-261" on="0"/>
        <pt x="263" y="-261" on="1"/>
        <pt x="255" y="-261" on="0"/>
        <pt x="249" y="-260" on="1"/>
        <pt x="238" y="-258" on="1"/>
        <pt x="245" y="-220" on="1"/>
        <pt x="257" y="-220" on="0"/>
        <pt x="264" y="-216" on="1"/>
        <pt x="274" y="-210" on="0"/>
        <pt x="276" y="-195" on="1"/>
        <pt x="279" y="-179" on="1"/>
      </contour>
      <contour>
        <pt x="490" y="732" on="1"/>
        <pt x="572" y="732" on="0"/>
        <pt x="615" y="676" on="1"/>
        <pt x="647" y="634" on="0"/>
        <pt x="647" y="557" on="1"/>
        <pt x="647" y="471" on="0"/>
        <pt x="605" y="367" on="0"/>
        <pt x="574" y="327" on="0"/>
        <pt x="528" y="301" on="0"/>
        <pt x="505" y="295" on="0"/>
        <pt x="490" y="293" on="1"/>
        <pt x="594" y="0" on="1"/>
        <pt x="464" y="0" on="1"/>
        <pt x="374" y="285" on="1"/>
        <pt x="227" y="296" on="1"/>
        <pt x="180" y="0" on="1"/>
        <pt x="64" y="0" on="1"/>
        <pt x="180" y="732" on="1"/>
      </contour>
      <contour>
        <pt x="424" y="388" on="1"/>
        <pt x="528" y="388" on="0"/>
        <pt x="528" y="548" on="1"/>
        <pt x="528" y="586" on="0"/>
        <pt x="519" y="602" on="1"/>
        <pt x="504" y="626" on="0"/>
        <pt x="465" y="626" on="1"/>
        <pt x="280" y="626" on="1"/>
        <pt x="243" y="388" on="1"/>
      </contour>
    </TTGlyph>
    <TTGlyph name="S" xMin="73" yMin="-8" xMax="625" yMax="739">
      <contour>
        <pt x="335" y="101" on="1"/>
        <pt x="440" y="101" on="0"/>
        <pt x="451" y="174" on="1"/>
        <pt x="459" y="224" on="1"/>
        <pt x="461" y="239" on="0"/>
        <pt x="461" y="271" on="0"/>
        <pt x="454" y="283" on="1"/>
        <pt x="443" y="303" on="0"/>
        <pt x="399" y="303" on="1"/>
        <pt x="284" y="303" on="1"/>
        <pt x="201" y="303" on="0"/>
        <pt x="129" y="372" on="0"/>
        <pt x="124" y="413" on="1"/>
        <pt x="121" y="434" on="0"/>
        <pt x="121" y="469" on="0"/>
        <pt x="124" y="490" on="1"/>
        <pt x="135" y="563" on="1"/>
        <pt x="156" y="705" on="0"/>
        <pt x="274" y="731" on="1"/>
        <pt x="309" y="738" on="0"/>
        <pt x="358" y="738" on="0"/>
        <pt x="362" y="738" on="1"/>
        <pt x="364" y="738" on="1"/>
        <pt x="427" y="738" on="0"/>
        <pt x="580" y="722" on="0"/>
        <pt x="625" y="711" on="1"/>
        <pt x="611" y="620" on="1"/>
        <pt x="402" y="629" on="0"/>
        <pt x="362" y="629" on="0"/>
        <pt x="356" y="629" on="1"/>
        <pt x="309" y="629" on="0"/>
        <pt x="258" y="600" on="0"/>
        <pt x="250" y="546" on="1"/>
        <pt x="243" y="499" on="1"/>
        <pt x="238" y="467" on="0"/>
        <pt x="244" y="444" on="0"/>
        <pt x="249" y="433" on="0"/>
        <pt x="263" y="425" on="0"/>
        <pt x="272" y="421" on="0"/>
        <pt x="283" y="420" on="1"/>
        <pt x="297" y="419" on="0"/>
        <pt x="318" y="419" on="1"/>
        <pt x="435" y="419" on="1"/>
        <pt x="512" y="419" on="0"/>
        <pt x="545" y="377" on="1"/>
        <pt x="578" y="335" on="0"/>
        <pt x="578" y="286" on="1"/>
        <pt x="578" y="263" on="0"/>
        <pt x="575" y="233" on="1"/>
        <pt x="567" y="166" on="1"/>
        <pt x="562" y="119" on="0"/>
        <pt x="525" y="51" on="0"/>
        <pt x="480" y="16" on="0"/>
        <pt x="447" y="6" on="1"/>
        <pt x="399" y="-8" on="0"/>
        <pt x="332" y="-8" on="1"/>
        <pt x="167" y="-8" on="0"/>
        <pt x="74" y="20" on="1"/>
        <pt x="88" y="111" on="1"/>
        <pt x="169" y="101" on="0"/>
      </contour>
    </TTGlyph>
    <TTGlyph name="Sacute" xMin="65" yMin="-8" xMax="618" yMax="935">
      <contour>
        <pt x="365" y="798" on="1"/>
        <pt x="483" y="935" on="1"/>
        <pt x="595" y="935" on="1"/>
        <pt x="448" y="798" on="1"/>
      </contour>
      <contour>
        <pt x="327" y="101" on="1"/>
        <pt x="432" y="101" on="0"/>
        <pt x="443" y="174" on="1"/>
        <pt x="451" y="224" on="1"/>
        <pt x="454" y="239" on="0"/>
        <pt x="454" y="269" on="0"/>
        <pt x="448" y="280" on="1"/>
        <pt x="437" y="303" on="0"/>
        <pt x="391" y="303" on="1"/>
        <pt x="276" y="303" on="1"/>
        <pt x="194" y="303" on="0"/>
        <pt x="121" y="372" on="0"/>
        <pt x="116" y="413" on="1"/>
        <pt x="113" y="434" on="0"/>
        <pt x="113" y="469" on="0"/>
        <pt x="116" y="490" on="1"/>
        <pt x="127" y="563" on="1"/>
        <pt x="146" y="687" on="0"/>
        <pt x="234" y="721" on="1"/>
        <pt x="280" y="738" on="0"/>
        <pt x="345" y="738" on="1"/>
        <pt x="350" y="738" on="0"/>
        <pt x="355" y="738" on="1"/>
        <pt x="356" y="738" on="1"/>
        <pt x="419" y="738" on="0"/>
        <pt x="572" y="722" on="0"/>
        <pt x="617" y="711" on="1"/>
        <pt x="603" y="620" on="1"/>
        <pt x="395" y="629" on="0"/>
        <pt x="355" y="629" on="0"/>
        <pt x="348" y="629" on="1"/>
        <pt x="301" y="629" on="0"/>
        <pt x="251" y="600" on="0"/>
        <pt x="242" y="546" on="1"/>
        <pt x="235" y="499" on="1"/>
        <pt x="230" y="467" on="0"/>
        <pt x="237" y="444" on="0"/>
        <pt x="242" y="433" on="0"/>
        <pt x="255" y="425" on="0"/>
        <pt x="264" y="421" on="0"/>
        <pt x="275" y="420" on="1"/>
        <pt x="289" y="419" on="0"/>
        <pt x="311" y="419" on="1"/>
        <pt x="427" y="419" on="1"/>
        <pt x="504" y="419" on="0"/>
        <pt x="537" y="377" on="1"/>
        <pt x="570" y="335" on="0"/>
        <pt x="570" y="286" on="1"/>
        <pt x="570" y="263" on="0"/>
        <pt x="567" y="233" on="1"/>
        <pt x="560" y="166" on="1"/>
        <pt x="554" y="119" on="0"/>
        <pt x="517" y="51" on="0"/>
        <pt x="472" y="16" on="0"/>
        <pt x="439" y="6" on="1"/>
        <pt x="391" y="-8" on="0"/>
        <pt x="324" y="-8" on="1"/>
        <pt x="160" y="-8" on="0"/>
        <pt x="66" y="20" on="1"/>
        <pt x="80" y="111" on="1"/>
        <pt x="161" y="101" on="0"/>
      </contour>
    </TTGlyph>
    <TTGlyph name="Scaron" xMin="73" yMin="-8" xMax="625" yMax="933">
      <contour>
        <pt x="289" y="932" on="1"/>
        <pt x="370" y="932" on="1"/>
        <pt x="419" y="860" on="1"/>
        <pt x="497" y="932" on="1"/>
        <pt x="592" y="932" on="1"/>
        <pt x="459" y="799" on="1"/>
        <pt x="369" y="799" on="1"/>
      </contour>
      <contour>
        <pt x="335" y="101" on="1"/>
        <pt x="440" y="101" on="0"/>
        <pt x="451" y="174" on="1"/>
        <pt x="459" y="224" on="1"/>
        <pt x="461" y="239" on="0"/>
        <pt x="461" y="271" on="0"/>
        <pt x="454" y="283" on="1"/>
        <pt x="443" y="303" on="0"/>
        <pt x="399" y="303" on="1"/>
        <pt x="284" y="303" on="1"/>
        <pt x="201" y="303" on="0"/>
        <pt x="129" y="372" on="0"/>
        <pt x="124" y="413" on="1"/>
        <pt x="121" y="434" on="0"/>
        <pt x="121" y="469" on="0"/>
        <pt x="124" y="490" on="1"/>
        <pt x="135" y="563" on="1"/>
        <pt x="154" y="687" on="0"/>
        <pt x="242" y="721" on="1"/>
        <pt x="287" y="738" on="0"/>
        <pt x="353" y="738" on="1"/>
        <pt x="358" y="738" on="0"/>
        <pt x="362" y="738" on="1"/>
        <pt x="364" y="738" on="1"/>
        <pt x="427" y="738" on="0"/>
        <pt x="580" y="722" on="0"/>
        <pt x="625" y="711" on="1"/>
        <pt x="611" y="620" on="1"/>
        <pt x="402" y="629" on="0"/>
        <pt x="362" y="629" on="0"/>
        <pt x="356" y="629" on="1"/>
        <pt x="309" y="629" on="0"/>
        <pt x="258" y="600" on="0"/>
        <pt x="250" y="546" on="1"/>
        <pt x="243" y="499" on="1"/>
        <pt x="238" y="467" on="0"/>
        <pt x="244" y="444" on="0"/>
        <pt x="249" y="433" on="0"/>
        <pt x="263" y="425" on="0"/>
        <pt x="272" y="421" on="0"/>
        <pt x="283" y="420" on="1"/>
        <pt x="297" y="419" on="0"/>
        <pt x="318" y="419" on="1"/>
        <pt x="435" y="419" on="1"/>
        <pt x="512" y="419" on="0"/>
        <pt x="545" y="377" on="1"/>
        <pt x="578" y="335" on="0"/>
        <pt x="578" y="286" on="1"/>
        <pt x="578" y="263" on="0"/>
        <pt x="575" y="233" on="1"/>
        <pt x="567" y="166" on="1"/>
        <pt x="562" y="119" on="0"/>
        <pt x="525" y="51" on="0"/>
        <pt x="480" y="16" on="0"/>
        <pt x="447" y="6" on="1"/>
        <pt x="399" y="-8" on="0"/>
        <pt x="332" y="-8" on="1"/>
        <pt x="167" y="-8" on="0"/>
        <pt x="74" y="20" on="1"/>
        <pt x="88" y="111" on="1"/>
        <pt x="169" y="101" on="0"/>
      </contour>
    </TTGlyph>
    <TTGlyph name="Scedilla" xMin="73" yMin="-185" xMax="625" yMax="739">
      <contour>
        <pt x="231" y="-184" on="1"/>
        <pt x="177" y="-184" on="1"/>
        <pt x="185" y="-133" on="1"/>
        <pt x="235" y="-118" on="1"/>
        <pt x="262" y="-107" on="0"/>
        <pt x="270" y="-79" on="1"/>
        <pt x="274" y="-67" on="0"/>
        <pt x="277" y="-45" on="1"/>
        <pt x="362" y="-45" on="1"/>
        <pt x="354" y="-98" on="0"/>
        <pt x="339" y="-127" on="1"/>
        <pt x="312" y="-184" on="0"/>
      </contour>
      <contour>
        <pt x="335" y="101" on="1"/>
        <pt x="440" y="101" on="0"/>
        <pt x="451" y="174" on="1"/>
        <pt x="459" y="224" on="1"/>
        <pt x="461" y="239" on="0"/>
        <pt x="461" y="271" on="0"/>
        <pt x="454" y="283" on="1"/>
        <pt x="443" y="303" on="0"/>
        <pt x="399" y="303" on="1"/>
        <pt x="284" y="303" on="1"/>
        <pt x="201" y="303" on="0"/>
        <pt x="129" y="372" on="0"/>
        <pt x="124" y="413" on="1"/>
        <pt x="121" y="434" on="0"/>
        <pt x="121" y="469" on="0"/>
        <pt x="124" y="490" on="1"/>
        <pt x="135" y="563" on="1"/>
        <pt x="154" y="687" on="0"/>
        <pt x="242" y="721" on="1"/>
        <pt x="287" y="738" on="0"/>
        <pt x="353" y="738" on="1"/>
        <pt x="358" y="738" on="0"/>
        <pt x="362" y="738" on="1"/>
        <pt x="364" y="738" on="1"/>
        <pt x="427" y="738" on="0"/>
        <pt x="580" y="722" on="0"/>
        <pt x="625" y="711" on="1"/>
        <pt x="611" y="620" on="1"/>
        <pt x="402" y="629" on="0"/>
        <pt x="362" y="629" on="0"/>
        <pt x="356" y="629" on="1"/>
        <pt x="309" y="629" on="0"/>
        <pt x="258" y="600" on="0"/>
        <pt x="250" y="546" on="1"/>
        <pt x="243" y="499" on="1"/>
        <pt x="238" y="467" on="0"/>
        <pt x="244" y="444" on="0"/>
        <pt x="249" y="433" on="0"/>
        <pt x="263" y="425" on="0"/>
        <pt x="272" y="421" on="0"/>
        <pt x="283" y="420" on="1"/>
        <pt x="297" y="419" on="0"/>
        <pt x="318" y="419" on="1"/>
        <pt x="435" y="419" on="1"/>
        <pt x="512" y="419" on="0"/>
        <pt x="545" y="377" on="1"/>
        <pt x="578" y="335" on="0"/>
        <pt x="578" y="286" on="1"/>
        <pt x="578" y="263" on="0"/>
        <pt x="575" y="233" on="1"/>
        <pt x="567" y="166" on="1"/>
        <pt x="562" y="119" on="0"/>
        <pt x="525" y="51" on="0"/>
        <pt x="480" y="16" on="0"/>
        <pt x="447" y="6" on="1"/>
        <pt x="399" y="-8" on="0"/>
        <pt x="332" y="-8" on="1"/>
        <pt x="167" y="-8" on="0"/>
        <pt x="74" y="20" on="1"/>
        <pt x="88" y="111" on="1"/>
        <pt x="169" y="101" on="0"/>
      </contour>
    </TTGlyph>
    <TTGlyph name="Scircumflex" xMin="73" yMin="-8" xMax="625" yMax="933">
      <contour>
        <pt x="258" y="799" on="1"/>
        <pt x="391" y="932" on="1"/>
        <pt x="483" y="932" on="1"/>
        <pt x="561" y="799" on="1"/>
        <pt x="480" y="799" on="1"/>
        <pt x="432" y="870" on="1"/>
        <pt x="353" y="799" on="1"/>
      </contour>
      <contour>
        <pt x="335" y="101" on="1"/>
        <pt x="440" y="101" on="0"/>
        <pt x="451" y="174" on="1"/>
        <pt x="459" y="224" on="1"/>
        <pt x="461" y="239" on="0"/>
        <pt x="461" y="271" on="0"/>
        <pt x="454" y="283" on="1"/>
        <pt x="443" y="303" on="0"/>
        <pt x="399" y="303" on="1"/>
        <pt x="284" y="303" on="1"/>
        <pt x="201" y="303" on="0"/>
        <pt x="129" y="372" on="0"/>
        <pt x="124" y="413" on="1"/>
        <pt x="121" y="434" on="0"/>
        <pt x="121" y="469" on="0"/>
        <pt x="124" y="490" on="1"/>
        <pt x="135" y="563" on="1"/>
        <pt x="154" y="687" on="0"/>
        <pt x="242" y="721" on="1"/>
        <pt x="287" y="738" on="0"/>
        <pt x="353" y="738" on="1"/>
        <pt x="358" y="738" on="0"/>
        <pt x="362" y="738" on="1"/>
        <pt x="364" y="738" on="1"/>
        <pt x="427" y="738" on="0"/>
        <pt x="580" y="722" on="0"/>
        <pt x="625" y="711" on="1"/>
        <pt x="611" y="620" on="1"/>
        <pt x="402" y="629" on="0"/>
        <pt x="362" y="629" on="0"/>
        <pt x="356" y="629" on="1"/>
        <pt x="309" y="629" on="0"/>
        <pt x="258" y="600" on="0"/>
        <pt x="250" y="546" on="1"/>
        <pt x="243" y="499" on="1"/>
        <pt x="238" y="467" on="0"/>
        <pt x="244" y="444" on="0"/>
        <pt x="249" y="433" on="0"/>
        <pt x="263" y="425" on="0"/>
        <pt x="272" y="421" on="0"/>
        <pt x="283" y="420" on="1"/>
        <pt x="297" y="419" on="0"/>
        <pt x="318" y="419" on="1"/>
        <pt x="435" y="419" on="1"/>
        <pt x="512" y="419" on="0"/>
        <pt x="545" y="377" on="1"/>
        <pt x="578" y="335" on="0"/>
        <pt x="578" y="286" on="1"/>
        <pt x="578" y="263" on="0"/>
        <pt x="575" y="233" on="1"/>
        <pt x="567" y="166" on="1"/>
        <pt x="562" y="119" on="0"/>
        <pt x="525" y="51" on="0"/>
        <pt x="480" y="16" on="0"/>
        <pt x="447" y="6" on="1"/>
        <pt x="399" y="-8" on="0"/>
        <pt x="332" y="-8" on="1"/>
        <pt x="167" y="-8" on="0"/>
        <pt x="74" y="20" on="1"/>
        <pt x="88" y="111" on="1"/>
        <pt x="169" y="101" on="0"/>
      </contour>
    </TTGlyph>
    <TTGlyph name="T" xMin="128" yMin="0" xMax="675" yMax="732">
      <contour>
        <pt x="128" y="623" on="1"/>
        <pt x="146" y="732" on="1"/>
        <pt x="675" y="732" on="1"/>
        <pt x="657" y="623" on="1"/>
        <pt x="448" y="623" on="1"/>
        <pt x="349" y="0" on="1"/>
        <pt x="233" y="0" on="1"/>
        <pt x="332" y="623" on="1"/>
      </contour>
    </TTGlyph>
    <TTGlyph name="Tbar" xMin="128" yMin="0" xMax="675" yMax="732">
      <contour>
        <pt x="128" y="623" on="1"/>
        <pt x="146" y="732" on="1"/>
        <pt x="675" y="732" on="1"/>
        <pt x="657" y="623" on="1"/>
        <pt x="448" y="623" on="1"/>
        <pt x="418" y="437" on="1"/>
        <pt x="524" y="437" on="1"/>
        <pt x="515" y="376" on="1"/>
        <pt x="409" y="376" on="1"/>
        <pt x="349" y="0" on="1"/>
        <pt x="233" y="0" on="1"/>
        <pt x="293" y="376" on="1"/>
        <pt x="187" y="376" on="1"/>
        <pt x="196" y="437" on="1"/>
        <pt x="302" y="437" on="1"/>
        <pt x="332" y="623" on="1"/>
      </contour>
    </TTGlyph>
    <TTGlyph name="Tcaron" xMin="128" yMin="0" xMax="675" yMax="931">
      <contour>
        <pt x="290" y="930" on="1"/>
        <pt x="371" y="930" on="1"/>
        <pt x="421" y="859" on="1"/>
        <pt x="498" y="930" on="1"/>
        <pt x="593" y="930" on="1"/>
        <pt x="460" y="797" on="1"/>
        <pt x="370" y="797" on="1"/>
      </contour>
      <contour>
        <pt x="128" y="623" on="1"/>
        <pt x="146" y="732" on="1"/>
        <pt x="675" y="732" on="1"/>
        <pt x="657" y="623" on="1"/>
        <pt x="448" y="623" on="1"/>
        <pt x="349" y="0" on="1"/>
        <pt x="233" y="0" on="1"/>
        <pt x="332" y="623" on="1"/>
      </contour>
    </TTGlyph>
    <TTGlyph name="Tcommaaccent" xMin="107" yMin="-184" xMax="654" yMax="732">
      <contour>
        <pt x="176" y="-184" on="1"/>
        <pt x="121" y="-184" on="1"/>
        <pt x="130" y="-132" on="1"/>
        <pt x="179" y="-117" on="1"/>
        <pt x="201" y="-108" on="0"/>
        <pt x="208" y="-94" on="1"/>
        <pt x="217" y="-74" on="0"/>
        <pt x="222" y="-44" on="1"/>
        <pt x="306" y="-44" on="1"/>
        <pt x="294" y="-122" on="0"/>
        <pt x="238" y="-184" on="0"/>
      </contour>
      <contour>
        <pt x="107" y="623" on="1"/>
        <pt x="125" y="732" on="1"/>
        <pt x="654" y="732" on="1"/>
        <pt x="636" y="623" on="1"/>
        <pt x="427" y="623" on="1"/>
        <pt x="328" y="0" on="1"/>
        <pt x="212" y="0" on="1"/>
        <pt x="311" y="623" on="1"/>
      </contour>
    </TTGlyph>
    <TTGlyph name="Thorn" xMin="50" yMin="0" xMax="573" yMax="730">
      <contour>
        <pt x="51" y="0" on="1"/>
        <pt x="51" y="0" on="0"/>
        <pt x="166" y="729" on="1"/>
        <pt x="282" y="729" on="1"/>
        <pt x="260" y="588" on="1"/>
        <pt x="425" y="588" on="1"/>
        <pt x="472" y="588" on="0"/>
        <pt x="534" y="549" on="0"/>
        <pt x="547" y="525" on="1"/>
        <pt x="572" y="479" on="0"/>
        <pt x="572" y="423" on="1"/>
        <pt x="572" y="399" on="0"/>
        <pt x="562" y="332" on="0"/>
        <pt x="546" y="271" on="0"/>
        <pt x="523" y="227" on="0"/>
        <pt x="500" y="194" on="0"/>
        <pt x="468" y="174" on="0"/>
        <pt x="441" y="161" on="0"/>
        <pt x="422" y="157" on="1"/>
        <pt x="389" y="152" on="0"/>
        <pt x="342" y="152" on="1"/>
        <pt x="246" y="152" on="0"/>
        <pt x="195" y="172" on="1"/>
        <pt x="167" y="0" on="1"/>
      </contour>
      <contour>
        <pt x="345" y="258" on="1"/>
        <pt x="369" y="258" on="0"/>
        <pt x="398" y="265" on="0"/>
        <pt x="412" y="277" on="1"/>
        <pt x="438" y="298" on="0"/>
        <pt x="450" y="375" on="1"/>
        <pt x="453" y="390" on="0"/>
        <pt x="453" y="408" on="0"/>
        <pt x="450" y="430" on="0"/>
        <pt x="447" y="453" on="0"/>
        <pt x="432" y="468" on="0"/>
        <pt x="421" y="477" on="0"/>
        <pt x="412" y="479" on="1"/>
        <pt x="397" y="482" on="0"/>
        <pt x="381" y="482" on="1"/>
        <pt x="243" y="482" on="1"/>
        <pt x="208" y="258" on="1"/>
      </contour>
    </TTGlyph>
    <TTGlyph name="U" xMin="107" yMin="-5" xMax="721" yMax="733">
      <contour>
        <pt x="232" y="308" on="1"/>
        <pt x="224" y="260" on="0"/>
        <pt x="224" y="174" on="0"/>
        <pt x="239" y="148" on="1"/>
        <pt x="265" y="104" on="0"/>
        <pt x="435" y="104" on="0"/>
        <pt x="519" y="197" on="0"/>
        <pt x="536" y="308" on="1"/>
        <pt x="603" y="732" on="1"/>
        <pt x="720" y="732" on="1"/>
        <pt x="655" y="298" on="1"/>
        <pt x="630" y="140" on="0"/>
        <pt x="483" y="-5" on="0"/>
        <pt x="336" y="-5" on="1"/>
        <pt x="203" y="-5" on="0"/>
        <pt x="153" y="59" on="1"/>
        <pt x="107" y="117" on="0"/>
        <pt x="107" y="202" on="1"/>
        <pt x="107" y="251" on="0"/>
        <pt x="116" y="319" on="1"/>
        <pt x="182" y="732" on="1"/>
        <pt x="299" y="732" on="1"/>
      </contour>
    </TTGlyph>
    <TTGlyph name="Uacute" xMin="107" yMin="-5" xMax="721" yMax="934">
      <contour>
        <pt x="420" y="797" on="1"/>
        <pt x="538" y="934" on="1"/>
        <pt x="651" y="934" on="1"/>
        <pt x="503" y="797" on="1"/>
      </contour>
      <contour>
        <pt x="232" y="308" on="1"/>
        <pt x="224" y="260" on="0"/>
        <pt x="224" y="174" on="0"/>
        <pt x="239" y="148" on="1"/>
        <pt x="265" y="104" on="0"/>
        <pt x="435" y="104" on="0"/>
        <pt x="519" y="197" on="0"/>
        <pt x="536" y="308" on="1"/>
        <pt x="603" y="732" on="1"/>
        <pt x="720" y="732" on="1"/>
        <pt x="655" y="298" on="1"/>
        <pt x="630" y="140" on="0"/>
        <pt x="483" y="-5" on="0"/>
        <pt x="336" y="-5" on="1"/>
        <pt x="203" y="-5" on="0"/>
        <pt x="153" y="59" on="1"/>
        <pt x="107" y="117" on="0"/>
        <pt x="107" y="202" on="1"/>
        <pt x="107" y="251" on="0"/>
        <pt x="116" y="319" on="1"/>
        <pt x="182" y="732" on="1"/>
        <pt x="299" y="732" on="1"/>
      </contour>
    </TTGlyph>
    <TTGlyph name="Ubreve" xMin="107" yMin="-5" xMax="721" yMax="911">
      <contour>
        <pt x="419" y="910" on="1"/>
        <pt x="418" y="905" on="0"/>
        <pt x="418" y="879" on="0"/>
        <pt x="444" y="850" on="0"/>
        <pt x="469" y="850" on="1"/>
        <pt x="470" y="850" on="0"/>
        <pt x="471" y="850" on="1"/>
        <pt x="532" y="850" on="0"/>
        <pt x="540" y="910" on="1"/>
        <pt x="594" y="910" on="1"/>
        <pt x="587" y="854" on="0"/>
        <pt x="522" y="797" on="0"/>
        <pt x="423" y="797" on="0"/>
        <pt x="365" y="855" on="0"/>
        <pt x="365" y="898" on="1"/>
        <pt x="365" y="904" on="0"/>
        <pt x="366" y="910" on="1"/>
      </contour>
      <contour>
        <pt x="232" y="308" on="1"/>
        <pt x="224" y="260" on="0"/>
        <pt x="224" y="174" on="0"/>
        <pt x="239" y="148" on="1"/>
        <pt x="265" y="104" on="0"/>
        <pt x="435" y="104" on="0"/>
        <pt x="519" y="197" on="0"/>
        <pt x="536" y="308" on="1"/>
        <pt x="603" y="732" on="1"/>
        <pt x="720" y="732" on="1"/>
        <pt x="655" y="298" on="1"/>
        <pt x="630" y="140" on="0"/>
        <pt x="483" y="-5" on="0"/>
        <pt x="336" y="-5" on="1"/>
        <pt x="203" y="-5" on="0"/>
        <pt x="153" y="59" on="1"/>
        <pt x="107" y="117" on="0"/>
        <pt x="107" y="202" on="1"/>
        <pt x="107" y="251" on="0"/>
        <pt x="116" y="319" on="1"/>
        <pt x="182" y="732" on="1"/>
        <pt x="299" y="732" on="1"/>
      </contour>
    </TTGlyph>
    <TTGlyph name="Ucircumflex" xMin="107" yMin="-5" xMax="721" yMax="931">
      <contour>
        <pt x="310" y="797" on="1"/>
        <pt x="443" y="930" on="1"/>
        <pt x="535" y="930" on="1"/>
        <pt x="613" y="797" on="1"/>
        <pt x="532" y="797" on="1"/>
        <pt x="484" y="869" on="1"/>
        <pt x="405" y="797" on="1"/>
      </contour>
      <contour>
        <pt x="232" y="308" on="1"/>
        <pt x="224" y="260" on="0"/>
        <pt x="224" y="174" on="0"/>
        <pt x="239" y="148" on="1"/>
        <pt x="265" y="104" on="0"/>
        <pt x="435" y="104" on="0"/>
        <pt x="519" y="197" on="0"/>
        <pt x="536" y="308" on="1"/>
        <pt x="603" y="732" on="1"/>
        <pt x="720" y="732" on="1"/>
        <pt x="655" y="298" on="1"/>
        <pt x="630" y="140" on="0"/>
        <pt x="483" y="-5" on="0"/>
        <pt x="336" y="-5" on="1"/>
        <pt x="203" y="-5" on="0"/>
        <pt x="153" y="59" on="1"/>
        <pt x="107" y="117" on="0"/>
        <pt x="107" y="202" on="1"/>
        <pt x="107" y="251" on="0"/>
        <pt x="116" y="319" on="1"/>
        <pt x="182" y="732" on="1"/>
        <pt x="299" y="732" on="1"/>
      </contour>
    </TTGlyph>
    <TTGlyph name="Udieresis" xMin="107" yMin="-5" xMax="721" yMax="909">
      <contour>
        <pt x="329" y="908" on="0"/>
        <pt x="375" y="908" on="0"/>
        <pt x="400" y="880" on="0"/>
        <pt x="400" y="858" on="0"/>
        <pt x="397" y="842" on="0"/>
        <pt x="385" y="821" on="0"/>
        <pt x="377" y="814" on="1"/>
        <pt x="358" y="797" on="0"/>
        <pt x="312" y="797" on="0"/>
        <pt x="287" y="827" on="0"/>
        <pt x="287" y="838" on="1"/>
        <pt x="287" y="873" on="0"/>
      </contour>
      <contour>
        <pt x="584" y="908" on="0"/>
        <pt x="630" y="908" on="0"/>
        <pt x="655" y="880" on="0"/>
        <pt x="655" y="858" on="0"/>
        <pt x="653" y="846" on="0"/>
        <pt x="647" y="831" on="0"/>
        <pt x="637" y="819" on="0"/>
        <pt x="626" y="808" on="0"/>
        <pt x="619" y="805" on="1"/>
        <pt x="605" y="797" on="0"/>
        <pt x="567" y="797" on="0"/>
        <pt x="542" y="827" on="0"/>
        <pt x="542" y="838" on="1"/>
        <pt x="542" y="873" on="0"/>
      </contour>
      <contour>
        <pt x="232" y="308" on="1"/>
        <pt x="224" y="260" on="0"/>
        <pt x="224" y="174" on="0"/>
        <pt x="239" y="148" on="1"/>
        <pt x="265" y="104" on="0"/>
        <pt x="435" y="104" on="0"/>
        <pt x="519" y="197" on="0"/>
        <pt x="536" y="308" on="1"/>
        <pt x="603" y="732" on="1"/>
        <pt x="720" y="732" on="1"/>
        <pt x="655" y="298" on="1"/>
        <pt x="630" y="140" on="0"/>
        <pt x="483" y="-5" on="0"/>
        <pt x="336" y="-5" on="1"/>
        <pt x="203" y="-5" on="0"/>
        <pt x="153" y="59" on="1"/>
        <pt x="107" y="117" on="0"/>
        <pt x="107" y="202" on="1"/>
        <pt x="107" y="251" on="0"/>
        <pt x="116" y="319" on="1"/>
        <pt x="182" y="732" on="1"/>
        <pt x="299" y="732" on="1"/>
      </contour>
    </TTGlyph>
    <TTGlyph name="Ugrave" xMin="107" yMin="-5" xMax="721" yMax="934">
      <contour>
        <pt x="308" y="934" on="1"/>
        <pt x="415" y="934" on="1"/>
        <pt x="503" y="797" on="1"/>
        <pt x="420" y="797" on="1"/>
      </contour>
      <contour>
        <pt x="232" y="308" on="1"/>
        <pt x="224" y="260" on="0"/>
        <pt x="224" y="174" on="0"/>
        <pt x="239" y="148" on="1"/>
        <pt x="265" y="104" on="0"/>
        <pt x="435" y="104" on="0"/>
        <pt x="519" y="197" on="0"/>
        <pt x="536" y="308" on="1"/>
        <pt x="603" y="732" on="1"/>
        <pt x="720" y="732" on="1"/>
        <pt x="655" y="298" on="1"/>
        <pt x="630" y="140" on="0"/>
        <pt x="483" y="-5" on="0"/>
        <pt x="336" y="-5" on="1"/>
        <pt x="203" y="-5" on="0"/>
        <pt x="153" y="59" on="1"/>
        <pt x="107" y="117" on="0"/>
        <pt x="107" y="202" on="1"/>
        <pt x="107" y="251" on="0"/>
        <pt x="116" y="319" on="1"/>
        <pt x="182" y="732" on="1"/>
        <pt x="299" y="732" on="1"/>
      </contour>
    </TTGlyph>
    <TTGlyph name="Uhungarumlaut" xMin="107" yMin="-5" xMax="725" yMax="934">
      <contour>
        <pt x="346" y="797" on="1"/>
        <pt x="464" y="934" on="1"/>
        <pt x="577" y="934" on="1"/>
        <pt x="429" y="797" on="1"/>
      </contour>
      <contour>
        <pt x="494" y="797" on="1"/>
        <pt x="612" y="934" on="1"/>
        <pt x="725" y="934" on="1"/>
        <pt x="577" y="797" on="1"/>
      </contour>
      <contour>
        <pt x="232" y="308" on="1"/>
        <pt x="224" y="260" on="0"/>
        <pt x="224" y="174" on="0"/>
        <pt x="239" y="148" on="1"/>
        <pt x="265" y="104" on="0"/>
        <pt x="435" y="104" on="0"/>
        <pt x="519" y="197" on="0"/>
        <pt x="536" y="308" on="1"/>
        <pt x="603" y="732" on="1"/>
        <pt x="720" y="732" on="1"/>
        <pt x="655" y="298" on="1"/>
        <pt x="630" y="140" on="0"/>
        <pt x="483" y="-5" on="0"/>
        <pt x="336" y="-5" on="1"/>
        <pt x="203" y="-5" on="0"/>
        <pt x="153" y="59" on="1"/>
        <pt x="107" y="117" on="0"/>
        <pt x="107" y="202" on="1"/>
        <pt x="107" y="251" on="0"/>
        <pt x="116" y="319" on="1"/>
        <pt x="182" y="732" on="1"/>
        <pt x="299" y="732" on="1"/>
      </contour>
    </TTGlyph>
    <TTGlyph name="Umacron" xMin="107" yMin="-5" xMax="721" yMax="871">
      <contour>
        <pt x="316" y="797" on="1"/>
        <pt x="327" y="870" on="1"/>
        <pt x="619" y="870" on="1"/>
        <pt x="608" y="797" on="1"/>
      </contour>
      <contour>
        <pt x="232" y="308" on="1"/>
        <pt x="224" y="260" on="0"/>
        <pt x="224" y="174" on="0"/>
        <pt x="239" y="148" on="1"/>
        <pt x="265" y="104" on="0"/>
        <pt x="435" y="104" on="0"/>
        <pt x="519" y="197" on="0"/>
        <pt x="536" y="308" on="1"/>
        <pt x="603" y="732" on="1"/>
        <pt x="720" y="732" on="1"/>
        <pt x="655" y="298" on="1"/>
        <pt x="630" y="140" on="0"/>
        <pt x="483" y="-5" on="0"/>
        <pt x="336" y="-5" on="1"/>
        <pt x="203" y="-5" on="0"/>
        <pt x="153" y="59" on="1"/>
        <pt x="107" y="117" on="0"/>
        <pt x="107" y="202" on="1"/>
        <pt x="107" y="251" on="0"/>
        <pt x="116" y="319" on="1"/>
        <pt x="182" y="732" on="1"/>
        <pt x="299" y="732" on="1"/>
      </contour>
    </TTGlyph>
    <TTGlyph name="Uogonek" xMin="107" yMin="-187" xMax="721" yMax="732">
      <contour>
        <pt x="224" y="-108" on="1"/>
        <pt x="224" y="-39" on="0"/>
        <pt x="316" y="1" on="1"/>
        <pt x="365" y="1" on="1"/>
        <pt x="300" y="-44" on="0"/>
        <pt x="300" y="-80" on="1"/>
        <pt x="300" y="-113" on="0"/>
        <pt x="346" y="-113" on="1"/>
        <pt x="350" y="-113" on="0"/>
        <pt x="354" y="-113" on="1"/>
        <pt x="342" y="-184" on="1"/>
        <pt x="328" y="-186" on="0"/>
        <pt x="315" y="-186" on="1"/>
        <pt x="277" y="-186" on="0"/>
        <pt x="224" y="-140" on="0"/>
      </contour>
      <contour>
        <pt x="232" y="308" on="1"/>
        <pt x="224" y="260" on="0"/>
        <pt x="224" y="174" on="0"/>
        <pt x="239" y="148" on="1"/>
        <pt x="265" y="104" on="0"/>
        <pt x="435" y="104" on="0"/>
        <pt x="519" y="197" on="0"/>
        <pt x="536" y="308" on="1"/>
        <pt x="603" y="732" on="1"/>
        <pt x="720" y="732" on="1"/>
        <pt x="655" y="298" on="1"/>
        <pt x="630" y="140" on="0"/>
        <pt x="483" y="-5" on="0"/>
        <pt x="336" y="-5" on="1"/>
        <pt x="203" y="-5" on="0"/>
        <pt x="153" y="59" on="1"/>
        <pt x="107" y="117" on="0"/>
        <pt x="107" y="202" on="1"/>
        <pt x="107" y="251" on="0"/>
        <pt x="116" y="319" on="1"/>
        <pt x="182" y="732" on="1"/>
        <pt x="299" y="732" on="1"/>
      </contour>
    </TTGlyph>
    <TTGlyph name="Uring" xMin="107" yMin="-5" xMax="721" yMax="1001">
      <contour>
        <pt x="444" y="1000" on="0"/>
        <pt x="528" y="1000" on="0"/>
        <pt x="579" y="944" on="0"/>
        <pt x="579" y="908" on="1"/>
        <pt x="579" y="859" on="0"/>
        <pt x="512" y="797" on="0"/>
        <pt x="428" y="797" on="0"/>
        <pt x="376" y="852" on="0"/>
        <pt x="376" y="888" on="1"/>
        <pt x="376" y="937" on="0"/>
      </contour>
      <contour>
        <pt x="440" y="864" on="0"/>
        <pt x="461" y="852" on="0"/>
        <pt x="493" y="852" on="0"/>
        <pt x="525" y="881" on="0"/>
        <pt x="525" y="920" on="0"/>
        <pt x="502" y="946" on="0"/>
        <pt x="463" y="946" on="0"/>
        <pt x="432" y="918" on="0"/>
        <pt x="429" y="885" on="0"/>
      </contour>
      <contour>
        <pt x="232" y="308" on="1"/>
        <pt x="224" y="260" on="0"/>
        <pt x="224" y="174" on="0"/>
        <pt x="239" y="148" on="1"/>
        <pt x="265" y="104" on="0"/>
        <pt x="435" y="104" on="0"/>
        <pt x="519" y="197" on="0"/>
        <pt x="536" y="308" on="1"/>
        <pt x="603" y="732" on="1"/>
        <pt x="720" y="732" on="1"/>
        <pt x="655" y="298" on="1"/>
        <pt x="630" y="140" on="0"/>
        <pt x="483" y="-5" on="0"/>
        <pt x="336" y="-5" on="1"/>
        <pt x="203" y="-5" on="0"/>
        <pt x="153" y="59" on="1"/>
        <pt x="107" y="117" on="0"/>
        <pt x="107" y="202" on="1"/>
        <pt x="107" y="251" on="0"/>
        <pt x="116" y="319" on="1"/>
        <pt x="182" y="732" on="1"/>
        <pt x="299" y="732" on="1"/>
      </contour>
    </TTGlyph>
    <TTGlyph name="Utilde" xMin="107" yMin="-5" xMax="721" yMax="917">
      <contour>
        <pt x="454" y="914" on="0"/>
        <pt x="514" y="881" on="0"/>
        <pt x="530" y="880" on="0"/>
        <pt x="551" y="880" on="0"/>
        <pt x="616" y="906" on="0"/>
        <pt x="628" y="916" on="1"/>
        <pt x="643" y="863" on="1"/>
        <pt x="641" y="862" on="0"/>
        <pt x="613" y="840" on="0"/>
        <pt x="606" y="834" on="0"/>
        <pt x="581" y="817" on="0"/>
        <pt x="568" y="811" on="0"/>
        <pt x="557" y="806" on="1"/>
        <pt x="518" y="788" on="0"/>
        <pt x="478" y="807" on="1"/>
        <pt x="459" y="815" on="0"/>
        <pt x="429" y="832" on="0"/>
        <pt x="413" y="832" on="0"/>
        <pt x="403" y="832" on="0"/>
        <pt x="383" y="828" on="0"/>
        <pt x="369" y="825" on="0"/>
        <pt x="349" y="816" on="0"/>
        <pt x="340" y="812" on="0"/>
        <pt x="317" y="799" on="0"/>
        <pt x="313" y="797" on="1"/>
        <pt x="298" y="847" on="1"/>
        <pt x="335" y="879" on="0"/>
        <pt x="397" y="915" on="0"/>
      </contour>
      <contour>
        <pt x="232" y="308" on="1"/>
        <pt x="224" y="260" on="0"/>
        <pt x="224" y="174" on="0"/>
        <pt x="239" y="148" on="1"/>
        <pt x="265" y="104" on="0"/>
        <pt x="435" y="104" on="0"/>
        <pt x="519" y="197" on="0"/>
        <pt x="536" y="308" on="1"/>
        <pt x="603" y="732" on="1"/>
        <pt x="720" y="732" on="1"/>
        <pt x="655" y="298" on="1"/>
        <pt x="630" y="140" on="0"/>
        <pt x="483" y="-5" on="0"/>
        <pt x="336" y="-5" on="1"/>
        <pt x="203" y="-5" on="0"/>
        <pt x="153" y="59" on="1"/>
        <pt x="107" y="117" on="0"/>
        <pt x="107" y="202" on="1"/>
        <pt x="107" y="251" on="0"/>
        <pt x="116" y="319" on="1"/>
        <pt x="182" y="732" on="1"/>
        <pt x="299" y="732" on="1"/>
      </contour>
    </TTGlyph>
    <TTGlyph name="V" xMin="143" yMin="0" xMax="764" yMax="732">
      <contour>
        <pt x="143" y="732" on="1"/>
        <pt x="265" y="732" on="1"/>
        <pt x="354" y="161" on="1"/>
        <pt x="634" y="732" on="1"/>
        <pt x="764" y="732" on="1"/>
        <pt x="396" y="0" on="1"/>
        <pt x="266" y="0" on="1"/>
      </contour>
    </TTGlyph>
    <TTGlyph name="W" xMin="143" yMin="0" xMax="1092" yMax="732">
      <contour>
        <pt x="143" y="732" on="1"/>
        <pt x="263" y="732" on="1"/>
        <pt x="354" y="165" on="1"/>
        <pt x="623" y="732" on="1"/>
        <pt x="749" y="732" on="1"/>
        <pt x="642" y="512" on="1"/>
        <pt x="696" y="162" on="1"/>
        <pt x="968" y="732" on="1"/>
        <pt x="1092" y="732" on="1"/>
        <pt x="738" y="0" on="1"/>
        <pt x="611" y="0" on="1"/>
        <pt x="559" y="327" on="1"/>
        <pt x="399" y="0" on="1"/>
        <pt x="266" y="0" on="1"/>
      </contour>
    </TTGlyph>
    <TTGlyph name="Wacute" xMin="143" yMin="0" xMax="1092" yMax="934">
      <contour>
        <pt x="586" y="797" on="1"/>
        <pt x="705" y="934" on="1"/>
        <pt x="817" y="934" on="1"/>
        <pt x="669" y="797" on="1"/>
      </contour>
      <contour>
        <pt x="143" y="732" on="1"/>
        <pt x="263" y="732" on="1"/>
        <pt x="354" y="165" on="1"/>
        <pt x="623" y="732" on="1"/>
        <pt x="749" y="732" on="1"/>
        <pt x="642" y="512" on="1"/>
        <pt x="696" y="162" on="1"/>
        <pt x="968" y="732" on="1"/>
        <pt x="1092" y="732" on="1"/>
        <pt x="738" y="0" on="1"/>
        <pt x="611" y="0" on="1"/>
        <pt x="559" y="327" on="1"/>
        <pt x="399" y="0" on="1"/>
        <pt x="266" y="0" on="1"/>
      </contour>
    </TTGlyph>
    <TTGlyph name="Wcircumflex" xMin="143" yMin="0" xMax="1092" yMax="931">
      <contour>
        <pt x="462" y="797" on="1"/>
        <pt x="594" y="930" on="1"/>
        <pt x="686" y="930" on="1"/>
        <pt x="764" y="797" on="1"/>
        <pt x="683" y="797" on="1"/>
        <pt x="635" y="869" on="1"/>
        <pt x="556" y="797" on="1"/>
      </contour>
      <contour>
        <pt x="143" y="732" on="1"/>
        <pt x="263" y="732" on="1"/>
        <pt x="354" y="165" on="1"/>
        <pt x="623" y="732" on="1"/>
        <pt x="749" y="732" on="1"/>
        <pt x="642" y="512" on="1"/>
        <pt x="696" y="162" on="1"/>
        <pt x="968" y="732" on="1"/>
        <pt x="1092" y="732" on="1"/>
        <pt x="738" y="0" on="1"/>
        <pt x="611" y="0" on="1"/>
        <pt x="559" y="327" on="1"/>
        <pt x="399" y="0" on="1"/>
        <pt x="266" y="0" on="1"/>
      </contour>
    </TTGlyph>
    <TTGlyph name="Wdieresis" xMin="143" yMin="0" xMax="1092" yMax="909">
      <contour>
        <pt x="499" y="908" on="0"/>
        <pt x="545" y="908" on="0"/>
        <pt x="569" y="880" on="0"/>
        <pt x="569" y="858" on="0"/>
        <pt x="567" y="842" on="0"/>
        <pt x="555" y="821" on="0"/>
        <pt x="546" y="814" on="1"/>
        <pt x="527" y="797" on="0"/>
        <pt x="481" y="797" on="0"/>
        <pt x="456" y="827" on="0"/>
        <pt x="456" y="838" on="1"/>
        <pt x="456" y="873" on="0"/>
      </contour>
      <contour>
        <pt x="754" y="908" on="0"/>
        <pt x="800" y="908" on="0"/>
        <pt x="824" y="880" on="0"/>
        <pt x="824" y="858" on="0"/>
        <pt x="822" y="842" on="0"/>
        <pt x="810" y="821" on="0"/>
        <pt x="801" y="814" on="1"/>
        <pt x="782" y="797" on="0"/>
        <pt x="736" y="797" on="0"/>
        <pt x="711" y="827" on="0"/>
        <pt x="711" y="838" on="1"/>
        <pt x="711" y="873" on="0"/>
      </contour>
      <contour>
        <pt x="143" y="732" on="1"/>
        <pt x="263" y="732" on="1"/>
        <pt x="354" y="165" on="1"/>
        <pt x="623" y="732" on="1"/>
        <pt x="749" y="732" on="1"/>
        <pt x="642" y="512" on="1"/>
        <pt x="696" y="162" on="1"/>
        <pt x="968" y="732" on="1"/>
        <pt x="1092" y="732" on="1"/>
        <pt x="738" y="0" on="1"/>
        <pt x="611" y="0" on="1"/>
        <pt x="559" y="327" on="1"/>
        <pt x="399" y="0" on="1"/>
        <pt x="266" y="0" on="1"/>
      </contour>
    </TTGlyph>
    <TTGlyph name="Wgrave" xMin="143" yMin="0" xMax="1092" yMax="934">
      <contour>
        <pt x="474" y="934" on="1"/>
        <pt x="582" y="934" on="1"/>
        <pt x="669" y="797" on="1"/>
        <pt x="586" y="797" on="1"/>
      </contour>
      <contour>
        <pt x="143" y="732" on="1"/>
        <pt x="263" y="732" on="1"/>
        <pt x="354" y="165" on="1"/>
        <pt x="623" y="732" on="1"/>
        <pt x="749" y="732" on="1"/>
        <pt x="642" y="512" on="1"/>
        <pt x="696" y="162" on="1"/>
        <pt x="968" y="732" on="1"/>
        <pt x="1092" y="732" on="1"/>
        <pt x="738" y="0" on="1"/>
        <pt x="611" y="0" on="1"/>
        <pt x="559" y="327" on="1"/>
        <pt x="399" y="0" on="1"/>
        <pt x="266" y="0" on="1"/>
      </contour>
    </TTGlyph>
    <TTGlyph name="X" xMin="34" yMin="0" xMax="716" yMax="732">
      <contour>
        <pt x="34" y="0" on="1"/>
        <pt x="307" y="371" on="1"/>
        <pt x="148" y="732" on="1"/>
        <pt x="273" y="732" on="1"/>
        <pt x="386" y="464" on="1"/>
        <pt x="583" y="732" on="1"/>
        <pt x="716" y="732" on="1"/>
        <pt x="436" y="351" on="1"/>
        <pt x="590" y="0" on="1"/>
        <pt x="464" y="0" on="1"/>
        <pt x="357" y="257" on="1"/>
        <pt x="168" y="0" on="1"/>
      </contour>
    </TTGlyph>
    <TTGlyph name="X.salt" xMin="16" yMin="0" xMax="740" yMax="732">
      <contour>
        <pt x="243" y="460" on="1"/>
        <pt x="133" y="732" on="1"/>
        <pt x="257" y="732" on="1"/>
        <pt x="354" y="484" on="1"/>
        <pt x="367" y="458" on="0"/>
        <pt x="367" y="400" on="1"/>
        <pt x="367" y="307" on="0"/>
        <pt x="341" y="272" on="1"/>
        <pt x="152" y="0" on="1"/>
        <pt x="17" y="0" on="1"/>
        <pt x="225" y="308" on="1"/>
        <pt x="259" y="358" on="0"/>
        <pt x="259" y="420" on="0"/>
      </contour>
      <contour>
        <pt x="394" y="272" on="1"/>
        <pt x="387" y="288" on="0"/>
        <pt x="387" y="341" on="0"/>
        <pt x="408" y="451" on="0"/>
        <pt x="433" y="484" on="1"/>
        <pt x="608" y="732" on="1"/>
        <pt x="740" y="732" on="1"/>
        <pt x="542" y="454" on="1"/>
        <pt x="500" y="393" on="0"/>
        <pt x="500" y="336" on="0"/>
        <pt x="511" y="302" on="1"/>
        <pt x="624" y="0" on="1"/>
        <pt x="499" y="0" on="1"/>
      </contour>
    </TTGlyph>
    <TTGlyph name="Y" xMin="143" yMin="0" xMax="731" yMax="732">
      <contour>
        <pt x="143" y="732" on="1"/>
        <pt x="268" y="732" on="1"/>
        <pt x="368" y="371" on="1"/>
        <pt x="597" y="732" on="1"/>
        <pt x="731" y="732" on="1"/>
        <pt x="408" y="239" on="1"/>
        <pt x="370" y="0" on="1"/>
        <pt x="254" y="0" on="1"/>
        <pt x="292" y="239" on="1"/>
      </contour>
    </TTGlyph>
    <TTGlyph name="Yacute" xMin="143" yMin="0" xMax="731" yMax="934">
      <contour>
        <pt x="406" y="797" on="1"/>
        <pt x="524" y="934" on="1"/>
        <pt x="637" y="934" on="1"/>
        <pt x="489" y="797" on="1"/>
      </contour>
      <contour>
        <pt x="143" y="732" on="1"/>
        <pt x="268" y="732" on="1"/>
        <pt x="368" y="371" on="1"/>
        <pt x="597" y="732" on="1"/>
        <pt x="731" y="732" on="1"/>
        <pt x="408" y="239" on="1"/>
        <pt x="370" y="0" on="1"/>
        <pt x="254" y="0" on="1"/>
        <pt x="292" y="239" on="1"/>
      </contour>
    </TTGlyph>
    <TTGlyph name="Ycircumflex" xMin="143" yMin="0" xMax="731" yMax="931">
      <contour>
        <pt x="296" y="797" on="1"/>
        <pt x="428" y="930" on="1"/>
        <pt x="520" y="930" on="1"/>
        <pt x="599" y="797" on="1"/>
        <pt x="517" y="797" on="1"/>
        <pt x="470" y="869" on="1"/>
        <pt x="391" y="797" on="1"/>
      </contour>
      <contour>
        <pt x="143" y="732" on="1"/>
        <pt x="268" y="732" on="1"/>
        <pt x="368" y="371" on="1"/>
        <pt x="597" y="732" on="1"/>
        <pt x="731" y="732" on="1"/>
        <pt x="408" y="239" on="1"/>
        <pt x="370" y="0" on="1"/>
        <pt x="254" y="0" on="1"/>
        <pt x="292" y="239" on="1"/>
      </contour>
    </TTGlyph>
    <TTGlyph name="Ydieresis" xMin="115" yMin="0" xMax="704" yMax="906">
      <contour>
        <pt x="287" y="905" on="0"/>
        <pt x="333" y="905" on="0"/>
        <pt x="357" y="876" on="0"/>
        <pt x="357" y="866" on="1"/>
        <pt x="357" y="831" on="0"/>
        <pt x="315" y="794" on="0"/>
        <pt x="269" y="794" on="0"/>
        <pt x="244" y="823" on="0"/>
        <pt x="244" y="834" on="1"/>
        <pt x="244" y="869" on="0"/>
      </contour>
      <contour>
        <pt x="542" y="905" on="0"/>
        <pt x="588" y="905" on="0"/>
        <pt x="612" y="876" on="0"/>
        <pt x="612" y="866" on="1"/>
        <pt x="612" y="831" on="0"/>
        <pt x="570" y="794" on="0"/>
        <pt x="524" y="794" on="0"/>
        <pt x="499" y="823" on="0"/>
        <pt x="499" y="834" on="1"/>
        <pt x="499" y="869" on="0"/>
      </contour>
      <contour>
        <pt x="115" y="732" on="1"/>
        <pt x="240" y="732" on="1"/>
        <pt x="340" y="371" on="1"/>
        <pt x="569" y="732" on="1"/>
        <pt x="703" y="732" on="1"/>
        <pt x="380" y="239" on="1"/>
        <pt x="342" y="0" on="1"/>
        <pt x="226" y="0" on="1"/>
        <pt x="264" y="239" on="1"/>
      </contour>
    </TTGlyph>
    <TTGlyph name="Ygrave" xMin="143" yMin="0" xMax="731" yMax="934">
      <contour>
        <pt x="294" y="934" on="1"/>
        <pt x="401" y="934" on="1"/>
        <pt x="489" y="797" on="1"/>
        <pt x="406" y="797" on="1"/>
      </contour>
      <contour>
        <pt x="143" y="732" on="1"/>
        <pt x="268" y="732" on="1"/>
        <pt x="368" y="371" on="1"/>
        <pt x="597" y="732" on="1"/>
        <pt x="731" y="732" on="1"/>
        <pt x="408" y="239" on="1"/>
        <pt x="370" y="0" on="1"/>
        <pt x="254" y="0" on="1"/>
        <pt x="292" y="239" on="1"/>
      </contour>
    </TTGlyph>
    <TTGlyph name="Z" xMin="29" yMin="0" xMax="646" yMax="732">
      <contour>
        <pt x="30" y="0" on="1"/>
        <pt x="47" y="109" on="1"/>
        <pt x="484" y="623" on="1"/>
        <pt x="128" y="623" on="1"/>
        <pt x="146" y="732" on="1"/>
        <pt x="646" y="732" on="1"/>
        <pt x="628" y="623" on="1"/>
        <pt x="198" y="109" on="1"/>
        <pt x="547" y="109" on="1"/>
        <pt x="530" y="0" on="1"/>
      </contour>
    </TTGlyph>
    <TTGlyph name="Zacute" xMin="97" yMin="0" xMax="714" yMax="931">
      <contour>
        <pt x="431" y="794" on="1"/>
        <pt x="549" y="930" on="1"/>
        <pt x="662" y="930" on="1"/>
        <pt x="514" y="794" on="1"/>
      </contour>
      <contour>
        <pt x="97" y="0" on="1"/>
        <pt x="115" y="109" on="1"/>
        <pt x="552" y="623" on="1"/>
        <pt x="196" y="623" on="1"/>
        <pt x="213" y="732" on="1"/>
        <pt x="713" y="732" on="1"/>
        <pt x="696" y="623" on="1"/>
        <pt x="266" y="109" on="1"/>
        <pt x="615" y="109" on="1"/>
        <pt x="597" y="0" on="1"/>
      </contour>
    </TTGlyph>
    <TTGlyph name="Zcaron" xMin="29" yMin="0" xMax="646" yMax="931">
      <contour>
        <pt x="276" y="930" on="1"/>
        <pt x="357" y="930" on="1"/>
        <pt x="406" y="859" on="1"/>
        <pt x="484" y="930" on="1"/>
        <pt x="579" y="930" on="1"/>
        <pt x="446" y="797" on="1"/>
        <pt x="356" y="797" on="1"/>
      </contour>
      <contour>
        <pt x="30" y="0" on="1"/>
        <pt x="47" y="109" on="1"/>
        <pt x="484" y="623" on="1"/>
        <pt x="128" y="623" on="1"/>
        <pt x="146" y="732" on="1"/>
        <pt x="646" y="732" on="1"/>
        <pt x="628" y="623" on="1"/>
        <pt x="198" y="109" on="1"/>
        <pt x="547" y="109" on="1"/>
        <pt x="530" y="0" on="1"/>
      </contour>
    </TTGlyph>
    <TTGlyph name="Zdotaccent" xMin="29" yMin="0" xMax="646" yMax="913">
      <contour>
        <pt x="393" y="913" on="1"/>
        <pt x="457" y="913" on="1"/>
        <pt x="480" y="913" on="0"/>
        <pt x="476" y="888" on="1"/>
        <pt x="465" y="820" on="1"/>
        <pt x="462" y="797" on="0"/>
        <pt x="439" y="797" on="1"/>
        <pt x="375" y="797" on="1"/>
        <pt x="365" y="797" on="0"/>
        <pt x="353" y="810" on="0"/>
        <pt x="354" y="820" on="1"/>
        <pt x="365" y="888" on="1"/>
        <pt x="369" y="913" on="0"/>
      </contour>
      <contour>
        <pt x="30" y="0" on="1"/>
        <pt x="47" y="109" on="1"/>
        <pt x="484" y="623" on="1"/>
        <pt x="128" y="623" on="1"/>
        <pt x="146" y="732" on="1"/>
        <pt x="646" y="732" on="1"/>
        <pt x="628" y="623" on="1"/>
        <pt x="198" y="109" on="1"/>
        <pt x="547" y="109" on="1"/>
        <pt x="530" y="0" on="1"/>
      </contour>
    </TTGlyph>
    <TTGlyph name="a" xMin="70" yMin="-7" xMax="571" yMax="543">
      <contour>
        <pt x="239" y="528" on="0"/>
        <pt x="287" y="539" on="0"/>
        <pt x="334" y="542" on="0"/>
        <pt x="400" y="542" on="0"/>
        <pt x="535" y="513" on="0"/>
        <pt x="571" y="479" on="1"/>
        <pt x="501" y="1" on="1"/>
        <pt x="413" y="1" on="1"/>
        <pt x="395" y="57" on="1"/>
        <pt x="373" y="34" on="0"/>
        <pt x="273" y="-6" on="0"/>
        <pt x="183" y="-6" on="0"/>
        <pt x="121" y="22" on="0"/>
        <pt x="98" y="57" on="1"/>
        <pt x="71" y="97" on="0"/>
        <pt x="71" y="222" on="0"/>
        <pt x="93" y="353" on="0"/>
        <pt x="134" y="445" on="0"/>
        <pt x="178" y="497" on="0"/>
      </contour>
      <contour>
        <pt x="448" y="431" on="1"/>
        <pt x="400" y="446" on="0"/>
        <pt x="333" y="446" on="0"/>
        <pt x="298" y="439" on="0"/>
        <pt x="275" y="431" on="0"/>
        <pt x="243" y="409" on="0"/>
        <pt x="232" y="391" on="1"/>
        <pt x="207" y="347" on="0"/>
        <pt x="194" y="264" on="1"/>
        <pt x="186" y="221" on="0"/>
        <pt x="186" y="158" on="0"/>
        <pt x="194" y="137" on="1"/>
        <pt x="208" y="96" on="0"/>
        <pt x="303" y="96" on="0"/>
        <pt x="367" y="120" on="0"/>
        <pt x="405" y="145" on="1"/>
      </contour>
    </TTGlyph>
    <TTGlyph name="a.salt" xMin="73" yMin="-8" xMax="568" yMax="536">
      <contour>
        <pt x="329" y="536" on="1"/>
        <pt x="402" y="536" on="0"/>
        <pt x="526" y="502" on="0"/>
        <pt x="568" y="479" on="1"/>
        <pt x="506" y="16" on="1"/>
        <pt x="493" y="8" on="0"/>
        <pt x="287" y="-7" on="0"/>
        <pt x="199" y="-7" on="0"/>
        <pt x="129" y="21" on="0"/>
        <pt x="104" y="55" on="1"/>
        <pt x="74" y="97" on="0"/>
        <pt x="74" y="180" on="1"/>
        <pt x="74" y="223" on="0"/>
        <pt x="81" y="279" on="1"/>
        <pt x="101" y="424" on="0"/>
        <pt x="215" y="536" on="0"/>
      </contour>
      <contour>
        <pt x="196" y="259" on="1"/>
        <pt x="190" y="214" on="0"/>
        <pt x="190" y="148" on="0"/>
        <pt x="197" y="127" on="1"/>
        <pt x="210" y="88" on="0"/>
        <pt x="260" y="88" on="1"/>
        <pt x="400" y="92" on="1"/>
        <pt x="447" y="423" on="1"/>
        <pt x="372" y="442" on="0"/>
        <pt x="332" y="442" on="1"/>
        <pt x="267" y="442" on="0"/>
        <pt x="211" y="367" on="0"/>
      </contour>
    </TTGlyph>
    <TTGlyph name="a.smcp" xMin="29" yMin="0" xMax="572" yMax="570">
      <contour>
        <pt x="30" y="0" on="1"/>
        <pt x="332" y="570" on="1"/>
        <pt x="465" y="570" on="1"/>
        <pt x="572" y="0" on="1"/>
        <pt x="457" y="0" on="1"/>
        <pt x="430" y="129" on="1"/>
        <pt x="223" y="129" on="1"/>
        <pt x="157" y="0" on="1"/>
      </contour>
      <contour>
        <pt x="273" y="228" on="1"/>
        <pt x="417" y="228" on="1"/>
        <pt x="378" y="425" on="1"/>
      </contour>
    </TTGlyph>
    <TTGlyph name="a.superior" xMin="102" yMin="362" xMax="466" yMax="734">
      <contour>
        <pt x="231" y="727" on="0"/>
        <pt x="258" y="732" on="0"/>
        <pt x="283" y="733" on="0"/>
        <pt x="332" y="733" on="0"/>
        <pt x="441" y="712" on="0"/>
        <pt x="465" y="689" on="1"/>
        <pt x="418" y="367" on="1"/>
        <pt x="354" y="367" on="1"/>
        <pt x="338" y="417" on="1"/>
        <pt x="321" y="396" on="0"/>
        <pt x="252" y="362" on="0"/>
        <pt x="211" y="362" on="1"/>
        <pt x="149" y="362" on="0"/>
        <pt x="121" y="411" on="1"/>
        <pt x="103" y="440" on="0"/>
        <pt x="103" y="523" on="0"/>
        <pt x="116" y="599" on="0"/>
        <pt x="138" y="655" on="0"/>
        <pt x="166" y="691" on="0"/>
        <pt x="195" y="715" on="0"/>
      </contour>
      <contour>
        <pt x="218" y="628" on="0"/>
        <pt x="200" y="584" on="0"/>
        <pt x="190" y="521" on="0"/>
        <pt x="190" y="481" on="0"/>
        <pt x="194" y="469" on="1"/>
        <pt x="202" y="442" on="0"/>
        <pt x="233" y="442" on="1"/>
        <pt x="288" y="442" on="0"/>
        <pt x="344" y="482" on="1"/>
        <pt x="370" y="649" on="1"/>
        <pt x="331" y="660" on="0"/>
        <pt x="285" y="660" on="0"/>
        <pt x="260" y="657" on="0"/>
        <pt x="241" y="648" on="0"/>
      </contour>
    </TTGlyph>
    <TTGlyph name="aacute" xMin="70" yMin="-7" xMax="571" yMax="739">
      <contour>
        <pt x="320" y="602" on="1"/>
        <pt x="439" y="739" on="1"/>
        <pt x="551" y="739" on="1"/>
        <pt x="403" y="602" on="1"/>
      </contour>
      <contour>
        <pt x="239" y="528" on="0"/>
        <pt x="287" y="539" on="0"/>
        <pt x="334" y="542" on="0"/>
        <pt x="376" y="542" on="0"/>
        <pt x="453" y="533" on="0"/>
        <pt x="547" y="502" on="0"/>
        <pt x="571" y="479" on="1"/>
        <pt x="501" y="1" on="1"/>
        <pt x="413" y="1" on="1"/>
        <pt x="395" y="57" on="1"/>
        <pt x="373" y="34" on="0"/>
        <pt x="273" y="-6" on="0"/>
        <pt x="183" y="-6" on="0"/>
        <pt x="121" y="22" on="0"/>
        <pt x="98" y="57" on="1"/>
        <pt x="71" y="97" on="0"/>
        <pt x="71" y="222" on="0"/>
        <pt x="93" y="353" on="0"/>
        <pt x="134" y="445" on="0"/>
        <pt x="178" y="497" on="0"/>
      </contour>
      <contour>
        <pt x="448" y="431" on="1"/>
        <pt x="400" y="446" on="0"/>
        <pt x="333" y="446" on="0"/>
        <pt x="298" y="439" on="0"/>
        <pt x="275" y="431" on="0"/>
        <pt x="243" y="409" on="0"/>
        <pt x="232" y="391" on="1"/>
        <pt x="207" y="347" on="0"/>
        <pt x="194" y="264" on="1"/>
        <pt x="186" y="221" on="0"/>
        <pt x="186" y="158" on="0"/>
        <pt x="194" y="137" on="1"/>
        <pt x="208" y="96" on="0"/>
        <pt x="303" y="96" on="0"/>
        <pt x="367" y="120" on="0"/>
        <pt x="405" y="145" on="1"/>
      </contour>
    </TTGlyph>
    <TTGlyph name="aacute.salt" xMin="73" yMin="-8" xMax="568" yMax="737">
      <contour>
        <pt x="314" y="600" on="1"/>
        <pt x="432" y="737" on="1"/>
        <pt x="544" y="737" on="1"/>
        <pt x="397" y="600" on="1"/>
      </contour>
      <contour>
        <pt x="329" y="536" on="1"/>
        <pt x="402" y="536" on="0"/>
        <pt x="526" y="502" on="0"/>
        <pt x="568" y="479" on="1"/>
        <pt x="506" y="16" on="1"/>
        <pt x="493" y="8" on="0"/>
        <pt x="287" y="-7" on="0"/>
        <pt x="199" y="-7" on="0"/>
        <pt x="129" y="21" on="0"/>
        <pt x="104" y="55" on="1"/>
        <pt x="74" y="97" on="0"/>
        <pt x="74" y="180" on="1"/>
        <pt x="74" y="223" on="0"/>
        <pt x="81" y="279" on="1"/>
        <pt x="101" y="424" on="0"/>
        <pt x="215" y="536" on="0"/>
      </contour>
      <contour>
        <pt x="196" y="259" on="1"/>
        <pt x="190" y="214" on="0"/>
        <pt x="190" y="148" on="0"/>
        <pt x="197" y="127" on="1"/>
        <pt x="210" y="88" on="0"/>
        <pt x="260" y="88" on="1"/>
        <pt x="400" y="92" on="1"/>
        <pt x="447" y="423" on="1"/>
        <pt x="372" y="442" on="0"/>
        <pt x="332" y="442" on="1"/>
        <pt x="267" y="442" on="0"/>
        <pt x="211" y="367" on="0"/>
      </contour>
    </TTGlyph>
    <TTGlyph name="aacute.smcp" xMin="29" yMin="0" xMax="598" yMax="767">
      <contour>
        <pt x="367" y="630" on="1"/>
        <pt x="485" y="766" on="1"/>
        <pt x="597" y="766" on="1"/>
        <pt x="450" y="630" on="1"/>
      </contour>
      <contour>
        <pt x="30" y="0" on="1"/>
        <pt x="332" y="570" on="1"/>
        <pt x="465" y="570" on="1"/>
        <pt x="572" y="0" on="1"/>
        <pt x="457" y="0" on="1"/>
        <pt x="430" y="129" on="1"/>
        <pt x="223" y="129" on="1"/>
        <pt x="157" y="0" on="1"/>
      </contour>
      <contour>
        <pt x="273" y="228" on="1"/>
        <pt x="417" y="228" on="1"/>
        <pt x="378" y="425" on="1"/>
      </contour>
    </TTGlyph>
    <TTGlyph name="abreve" xMin="70" yMin="-7" xMax="571" yMax="717">
      <contour>
        <pt x="312" y="716" on="1"/>
        <pt x="312" y="711" on="0"/>
        <pt x="312" y="685" on="0"/>
        <pt x="338" y="656" on="0"/>
        <pt x="363" y="656" on="1"/>
        <pt x="364" y="656" on="0"/>
        <pt x="365" y="656" on="1"/>
        <pt x="425" y="656" on="0"/>
        <pt x="434" y="716" on="1"/>
        <pt x="487" y="716" on="1"/>
        <pt x="480" y="660" on="0"/>
        <pt x="416" y="603" on="0"/>
        <pt x="316" y="603" on="0"/>
        <pt x="259" y="661" on="0"/>
        <pt x="259" y="704" on="1"/>
        <pt x="259" y="710" on="0"/>
        <pt x="259" y="716" on="1"/>
      </contour>
      <contour>
        <pt x="239" y="528" on="0"/>
        <pt x="287" y="539" on="0"/>
        <pt x="334" y="542" on="0"/>
        <pt x="376" y="542" on="0"/>
        <pt x="453" y="533" on="0"/>
        <pt x="547" y="502" on="0"/>
        <pt x="571" y="479" on="1"/>
        <pt x="501" y="1" on="1"/>
        <pt x="413" y="1" on="1"/>
        <pt x="395" y="57" on="1"/>
        <pt x="373" y="34" on="0"/>
        <pt x="273" y="-6" on="0"/>
        <pt x="183" y="-6" on="0"/>
        <pt x="121" y="22" on="0"/>
        <pt x="98" y="57" on="1"/>
        <pt x="71" y="97" on="0"/>
        <pt x="71" y="222" on="0"/>
        <pt x="93" y="353" on="0"/>
        <pt x="134" y="445" on="0"/>
        <pt x="178" y="497" on="0"/>
      </contour>
      <contour>
        <pt x="448" y="431" on="1"/>
        <pt x="400" y="446" on="0"/>
        <pt x="333" y="446" on="0"/>
        <pt x="298" y="439" on="0"/>
        <pt x="275" y="431" on="0"/>
        <pt x="243" y="409" on="0"/>
        <pt x="232" y="391" on="1"/>
        <pt x="207" y="347" on="0"/>
        <pt x="194" y="264" on="1"/>
        <pt x="186" y="221" on="0"/>
        <pt x="186" y="158" on="0"/>
        <pt x="194" y="137" on="1"/>
        <pt x="208" y="96" on="0"/>
        <pt x="303" y="96" on="0"/>
        <pt x="367" y="120" on="0"/>
        <pt x="405" y="145" on="1"/>
      </contour>
    </TTGlyph>
    <TTGlyph name="abreve.salt" xMin="73" yMin="-8" xMax="568" yMax="711">
      <contour>
        <pt x="307" y="710" on="1"/>
        <pt x="307" y="705" on="0"/>
        <pt x="307" y="679" on="0"/>
        <pt x="333" y="650" on="0"/>
        <pt x="358" y="650" on="1"/>
        <pt x="359" y="650" on="0"/>
        <pt x="360" y="650" on="1"/>
        <pt x="420" y="650" on="0"/>
        <pt x="429" y="710" on="1"/>
        <pt x="482" y="710" on="1"/>
        <pt x="468" y="597" on="0"/>
        <pt x="357" y="597" on="1"/>
        <pt x="311" y="597" on="0"/>
        <pt x="253" y="655" on="0"/>
        <pt x="253" y="698" on="1"/>
        <pt x="253" y="704" on="0"/>
        <pt x="254" y="710" on="1"/>
      </contour>
      <contour>
        <pt x="329" y="536" on="1"/>
        <pt x="402" y="536" on="0"/>
        <pt x="526" y="502" on="0"/>
        <pt x="568" y="479" on="1"/>
        <pt x="506" y="16" on="1"/>
        <pt x="493" y="8" on="0"/>
        <pt x="287" y="-7" on="0"/>
        <pt x="199" y="-7" on="0"/>
        <pt x="129" y="21" on="0"/>
        <pt x="104" y="55" on="1"/>
        <pt x="74" y="97" on="0"/>
        <pt x="74" y="180" on="1"/>
        <pt x="74" y="223" on="0"/>
        <pt x="81" y="279" on="1"/>
        <pt x="101" y="424" on="0"/>
        <pt x="215" y="536" on="0"/>
      </contour>
      <contour>
        <pt x="196" y="259" on="1"/>
        <pt x="190" y="214" on="0"/>
        <pt x="190" y="148" on="0"/>
        <pt x="197" y="127" on="1"/>
        <pt x="210" y="88" on="0"/>
        <pt x="260" y="88" on="1"/>
        <pt x="400" y="92" on="1"/>
        <pt x="447" y="423" on="1"/>
        <pt x="372" y="442" on="0"/>
        <pt x="332" y="442" on="1"/>
        <pt x="267" y="442" on="0"/>
        <pt x="211" y="367" on="0"/>
      </contour>
    </TTGlyph>
    <TTGlyph name="abreve.smcp" xMin="29" yMin="0" xMax="572" yMax="744">
      <contour>
        <pt x="359" y="743" on="1"/>
        <pt x="358" y="738" on="0"/>
        <pt x="358" y="712" on="0"/>
        <pt x="384" y="683" on="0"/>
        <pt x="410" y="683" on="1"/>
        <pt x="411" y="683" on="0"/>
        <pt x="412" y="683" on="1"/>
        <pt x="472" y="683" on="0"/>
        <pt x="481" y="743" on="1"/>
        <pt x="534" y="743" on="1"/>
        <pt x="527" y="687" on="0"/>
        <pt x="462" y="630" on="0"/>
        <pt x="363" y="630" on="0"/>
        <pt x="305" y="688" on="0"/>
        <pt x="305" y="731" on="1"/>
        <pt x="305" y="737" on="0"/>
        <pt x="306" y="743" on="1"/>
      </contour>
      <contour>
        <pt x="30" y="0" on="1"/>
        <pt x="332" y="570" on="1"/>
        <pt x="465" y="570" on="1"/>
        <pt x="572" y="0" on="1"/>
        <pt x="457" y="0" on="1"/>
        <pt x="430" y="129" on="1"/>
        <pt x="223" y="129" on="1"/>
        <pt x="157" y="0" on="1"/>
      </contour>
      <contour>
        <pt x="273" y="228" on="1"/>
        <pt x="417" y="228" on="1"/>
        <pt x="378" y="425" on="1"/>
      </contour>
    </TTGlyph>
    <TTGlyph name="acircumflex" xMin="70" yMin="-7" xMax="571" yMax="736">
      <contour>
        <pt x="204" y="602" on="1"/>
        <pt x="337" y="736" on="1"/>
        <pt x="429" y="736" on="1"/>
        <pt x="507" y="602" on="1"/>
        <pt x="426" y="602" on="1"/>
        <pt x="378" y="674" on="1"/>
        <pt x="299" y="602" on="1"/>
      </contour>
      <contour>
        <pt x="239" y="528" on="0"/>
        <pt x="287" y="539" on="0"/>
        <pt x="334" y="542" on="0"/>
        <pt x="376" y="542" on="0"/>
        <pt x="453" y="533" on="0"/>
        <pt x="547" y="502" on="0"/>
        <pt x="571" y="479" on="1"/>
        <pt x="501" y="1" on="1"/>
        <pt x="413" y="1" on="1"/>
        <pt x="395" y="57" on="1"/>
        <pt x="373" y="34" on="0"/>
        <pt x="273" y="-6" on="0"/>
        <pt x="183" y="-6" on="0"/>
        <pt x="121" y="22" on="0"/>
        <pt x="98" y="57" on="1"/>
        <pt x="71" y="97" on="0"/>
        <pt x="71" y="222" on="0"/>
        <pt x="93" y="353" on="0"/>
        <pt x="134" y="445" on="0"/>
        <pt x="178" y="497" on="0"/>
      </contour>
      <contour>
        <pt x="448" y="431" on="1"/>
        <pt x="400" y="446" on="0"/>
        <pt x="333" y="446" on="0"/>
        <pt x="298" y="439" on="0"/>
        <pt x="275" y="431" on="0"/>
        <pt x="243" y="409" on="0"/>
        <pt x="232" y="391" on="1"/>
        <pt x="207" y="347" on="0"/>
        <pt x="194" y="264" on="1"/>
        <pt x="186" y="221" on="0"/>
        <pt x="186" y="158" on="0"/>
        <pt x="194" y="137" on="1"/>
        <pt x="208" y="96" on="0"/>
        <pt x="303" y="96" on="0"/>
        <pt x="367" y="120" on="0"/>
        <pt x="405" y="145" on="1"/>
      </contour>
    </TTGlyph>
    <TTGlyph name="acircumflex.salt" xMin="73" yMin="-8" xMax="568" yMax="731">
      <contour>
        <pt x="207" y="597" on="1"/>
        <pt x="339" y="731" on="1"/>
        <pt x="431" y="731" on="1"/>
        <pt x="510" y="597" on="1"/>
        <pt x="428" y="597" on="1"/>
        <pt x="381" y="669" on="1"/>
        <pt x="302" y="597" on="1"/>
      </contour>
      <contour>
        <pt x="329" y="536" on="1"/>
        <pt x="402" y="536" on="0"/>
        <pt x="526" y="502" on="0"/>
        <pt x="568" y="479" on="1"/>
        <pt x="506" y="16" on="1"/>
        <pt x="493" y="8" on="0"/>
        <pt x="287" y="-7" on="0"/>
        <pt x="199" y="-7" on="0"/>
        <pt x="129" y="21" on="0"/>
        <pt x="104" y="55" on="1"/>
        <pt x="74" y="97" on="0"/>
        <pt x="74" y="180" on="1"/>
        <pt x="74" y="223" on="0"/>
        <pt x="81" y="279" on="1"/>
        <pt x="101" y="424" on="0"/>
        <pt x="215" y="536" on="0"/>
      </contour>
      <contour>
        <pt x="196" y="259" on="1"/>
        <pt x="190" y="214" on="0"/>
        <pt x="190" y="148" on="0"/>
        <pt x="197" y="127" on="1"/>
        <pt x="210" y="88" on="0"/>
        <pt x="260" y="88" on="1"/>
        <pt x="400" y="92" on="1"/>
        <pt x="447" y="423" on="1"/>
        <pt x="372" y="442" on="0"/>
        <pt x="332" y="442" on="1"/>
        <pt x="267" y="442" on="0"/>
        <pt x="211" y="367" on="0"/>
      </contour>
    </TTGlyph>
</ttFont>
